<svg width="1280" height="852" viewBox="0 0 1280 852" fill="none" xmlns="http://www.w3.org/2000/svg">
<g clip-path="url(#clip0_1894_2406)">
<path opacity="0.29" d="M991.001 832.999L974.273 820.368C969.246 816.572 965.684 811.157 964.19 805.039L962.436 797.859C959.148 784.398 944.165 777.524 931.817 783.811C929.622 784.928 927.636 786.414 925.946 788.204L905.724 809.614C898.784 816.961 888.433 820.015 878.617 817.61L876.377 817.061C850.637 810.754 848.022 775.186 872.564 765.183C887.348 759.157 904.128 767.026 908.95 782.245L910.835 788.196C919.282 814.855 892.914 839.328 866.958 828.921L840.839 818.449C831.419 814.672 820.82 815.188 811.811 819.863L803.062 824.404C793.428 829.404 781.604 826.921 774.795 818.469L770.255 812.833C763.634 804.615 751.168 804.453 744.335 812.496C734.627 823.925 715.946 817.898 714.747 802.95L714.137 795.34C712.618 776.4 688.009 770.075 677.546 785.936L668.398 799.804C658.126 815.375 635.208 815.158 625.232 799.396L616.874 786.191C606.788 770.255 584.12 768.723 571.982 783.157L567.673 788.281C550.412 808.807 517.131 793.091 522.015 766.722C527.335 737.994 488.656 723.544 473.838 748.724L449.047 790.85C434.338 815.843 396.457 808.944 391.504 780.37C386.969 754.206 353.877 745.348 336.878 765.747L286.214 826.544C267.568 848.918 236.71 856.873 209.571 846.301L154.294 824.766C113.667 808.939 109.382 753.147 147.116 731.301L149.773 729.762C166.272 720.211 186.888 721.477 202.093 732.977L206.73 736.484C223.604 749.246 227.995 772.751 216.868 790.744C214.309 794.882 211.034 798.531 207.196 801.52L191.468 813.774C151.211 845.138 97.9092 854.225 49.5335 837.973L45.6255 836.66C16.1816 826.769 -9.741 808.51 -28.9715 784.118L-53.5095 752.994C-92.647 703.351 -108.859 639.422 -98.1065 577.128L-96.2397 566.312C-88.0401 518.807 -62.478 476.043 -24.5176 446.327L0.246284 426.942C10.2478 419.112 22.0942 413.986 34.648 412.054C65.96 407.237 96.8704 422.861 111.558 450.931L140.021 505.327C159.625 542.794 207.695 554.497 242.328 530.234C260.096 517.787 271.098 497.812 272.122 476.141L273.924 437.971C275.184 411.291 292.211 387.924 317.221 378.551C347.04 367.375 380.603 378.794 397.418 405.837L454.898 498.275C480.116 538.831 452.594 591.573 404.903 594.083L397.75 594.46C379.665 595.412 362.459 586.592 352.672 571.354C328.775 534.148 360.93 486.392 404.393 494.541L467.106 506.3C481.015 508.908 495.278 504.083 504.748 493.567C529.638 465.928 575.501 483.535 575.501 520.73V577.275C575.501 621.136 619.618 651.263 660.471 635.302L664.015 633.917C676.374 629.088 689.917 628.164 702.818 631.269L724.886 636.581C780.006 649.848 826.865 594.915 805.073 542.575L788.293 502.273C772.326 463.924 718.846 461.67 699.709 498.54L698.751 500.386C695.316 507.005 693.733 514.429 694.171 521.874C696.457 560.735 746.265 575.216 769.03 543.638L829.859 459.261C865.033 410.471 941.954 432.272 946.298 492.261C948.227 518.899 966.401 541.579 991.977 549.268L1013.73 555.806C1024.99 559.192 1034.99 565.845 1042.47 574.923C1078.87 619.129 1150.59 591.267 1147.6 534.079L1147.09 524.412C1146.39 510.864 1150.25 497.471 1158.06 486.381L1167.83 472.525C1176.9 459.651 1176.79 442.432 1167.54 429.684C1155.63 413.269 1159.23 390.316 1175.6 378.339L1189.26 368.34C1205.13 356.723 1213.4 337.373 1210.83 317.871L1209.26 305.89C1205.98 281.047 1215.64 256.254 1234.85 240.165L1246.05 230.784C1267.78 212.587 1272.68 181.12 1257.52 157.174L1245.7 138.493C1230.68 114.766 1243.6 83.2963 1270.94 76.8883C1310.62 67.5892 1313.76 12.2202 1275.31 -1.29482C1265.78 -4.64564 1255.34 -4.33748 1246.03 -0.430099L1196.44 20.3641C1187.61 24.0661 1179.82 29.8596 1173.73 37.2452C1152.92 62.4799 1115.56 65.9828 1090.43 45.0557L1062.85 22.1003C1043.94 6.35419 1015.81 9.07642 1000.27 28.157C987.241 44.1534 964.881 49.0144 946.386 39.8716L927.799 30.6834C907.609 20.7028 883.089 30.7934 875.314 51.9312C874.45 54.2812 873.835 56.7514 873.504 59.2334L870.103 84.777C865.712 117.75 818.41 118.281 811.462 85.7507C808.013 69.601 791.435 59.6263 775.636 64.4325L734.572 76.9242C715.064 82.8589 701.239 58.0058 716.571 44.5611C728.814 33.825 748.001 42.519 748.001 58.8026V65.2701C748.001 78.4095 736.498 88.5835 723.457 86.9784L687.482 82.5506C665.686 79.8681 644.819 92.2047 636.663 112.594C629.318 130.958 611.481 142.999 591.703 142.999C577.052 142.999 563.15 149.622 553.943 161.018L510.503 214.782C483.282 248.472 431.682 247.717 405.458 213.246L388.012 190.314C359.909 153.372 301.352 166.966 292.397 212.51L290.898 220.136C288.171 234.004 292.943 248.284 303.458 257.728L346.543 296.422C368.845 316.451 347.993 352.724 319.461 343.531C312.444 341.27 306.613 336.312 303.254 329.749L255.001 235.499L245.328 219.264C227.949 190.092 189.306 182.081 161.761 201.939C141.11 216.827 113.155 216.473 92.8881 201.065L52.5428 170.394C45.6393 165.145 36.475 163.706 28.2633 166.494C5.41694 174.25 4.18567 206.488 26.6723 215.232L30.5642 216.746C37.271 219.354 44.8749 217.963 50.2237 213.149C64.1963 200.574 53.4564 177.506 34.8386 180.103L-32.4987 189.499" stroke="#F89E24"/>
</g>
<defs>
<clipPath id="clip0_1894_2406">
<rect width="1280" height="852" fill="white"/>
</clipPath>
</defs>
</svg>
