<svg width="1280" height="56" viewBox="0 0 1280 56" fill="none" xmlns="http://www.w3.org/2000/svg">
<path opacity="0.5" d="M0 42.0001H44.3538C47.7779 42.0001 51.1952 41.6969 54.5658 41.094L107.201 31.6797C109.704 31.232 112.08 30.2466 114.165 28.7917L118.824 25.5412C125.79 20.6812 126.37 10.5825 120.005 4.95799L118.833 3.92209C114.401 0.00527978 107.71 0.12577 103.422 4.19963C97.5157 9.81022 99.2241 19.6243 106.678 22.9092L140.041 37.6114C146.533 40.4722 153.73 41.333 160.713 40.084L202.287 32.648C208.315 31.5697 213.937 28.8729 218.552 24.8459L218.941 24.5066C230.657 14.2812 247.908 13.5781 260.418 22.8162C267.512 28.0548 276.401 30.2499 285.118 28.9157L309.087 25.247C316.622 24.0937 324.31 24.437 331.712 26.2571L348.734 30.4429C350.232 30.8113 351.651 31.448 352.923 32.322L356.373 34.6941C361.681 38.3434 361.991 46.0703 356.991 50.1323L356.706 50.3637C353.37 53.0742 348.601 53.11 345.225 50.4499C340.101 46.4132 340.697 38.4725 346.366 35.2457L364.872 24.7113C366.287 23.906 367.781 23.2498 369.332 22.7531L405.034 11.3144C413.882 8.47972 423.281 7.81202 432.441 9.36742L466.597 15.1674C469.86 15.7215 473.069 16.5539 476.19 17.6554L502.625 26.9855C510.128 29.6336 518.096 30.7096 526.032 30.1468L573.467 26.7826C580.674 26.2714 587.588 23.7249 593.404 19.4391L600.437 14.2574C602.426 12.7911 604.833 12.0001 607.305 12.0001H607.754C613.104 12.0001 617.685 15.8354 618.625 21.1025C619.182 24.2168 621.047 26.9432 623.748 28.5902L626.966 30.5522C634.614 35.2159 644.461 34.0394 650.795 27.705L652.5 26.0001L661.512 16.5137C661.837 16.172 662.13 15.8017 662.388 15.4072C665.829 10.1445 673.759 10.8896 676.159 16.7012L678.366 22.0442C679.416 24.5864 681.391 26.636 683.893 27.7796L697.721 34.1009C708.844 39.186 721.457 39.9707 733.125 36.3036L746.157 32.208C748.686 31.4129 751.005 30.0584 752.939 28.2448C760.123 21.5099 771.428 21.9531 778.062 29.2298L787.702 39.8018C792.055 44.5763 790.015 52.2534 783.865 54.237C782.318 54.7362 780.664 54.801 779.082 54.4244L777.968 54.1592C769.366 52.1111 765.289 42.2459 769.936 34.7228L774.675 27.0501C778.808 20.3584 786.559 16.8073 794.326 18.0467L821.091 22.3179C825.972 23.0967 830.624 24.9291 834.725 27.6877L843.262 33.4306C850.803 38.5042 860.794 37.9692 867.75 32.1191C873.972 26.8874 882.707 25.8538 889.978 29.4891L902.332 35.6663C910.544 39.772 919.887 41.0315 928.892 39.2466L968.339 31.4283C969.772 31.1444 971.154 30.6496 972.442 29.96L977.311 27.3514C986.036 22.677 985.675 10.0458 976.697 5.87741C972.855 4.09352 968.357 4.46631 964.861 6.85839L957.093 12.1736C953.593 14.5683 951.5 18.5358 951.5 22.7764C951.5 29.5278 956.726 35.1272 963.461 35.593L1001.36 38.2138C1004.12 38.4044 1006.88 38.3814 1009.63 38.1451L1037.09 35.7883C1044.95 35.1138 1052.58 32.8438 1059.54 29.1171L1073.35 21.7086C1080.38 17.9434 1088.1 15.6655 1096.04 15.0172L1114.37 13.5209C1126.48 12.5321 1138.6 15.3735 1149.01 21.6439L1160.85 28.7707C1171.34 35.0941 1183.58 37.9289 1195.79 36.8686L1205.13 36.0576C1214.87 35.2115 1224.66 36.9518 1233.52 41.103C1245.75 46.8372 1259.66 47.9185 1272.63 44.1446L1280 42.0001" stroke="#C5B473"/>
</svg>
