<svg width="321" height="253" viewBox="0 0 321 253" fill="none" xmlns="http://www.w3.org/2000/svg">
<path d="M44.0194 51.8101C54.8762 64.1877 70.1122 70.8287 84.7203 78.1999C91.8503 81.805 98.8348 85.5845 105.069 90.294C106.421 91.3135 107.752 92.3907 109.032 93.5146C112.843 96.8417 116.299 100.641 119.237 105.098C121.999 109.277 123.882 113.72 125.156 118.312C127.182 125.643 127.621 133.383 127.45 141.192C127.16 155.378 124.227 169.487 118.938 182.646C116.792 187.983 114.638 193.562 111.363 198.337C110.634 199.388 109.802 200.76 108.581 201.288C106.987 201.988 105.306 200.048 106.387 198.573C114.09 188.194 116.979 173.808 116.356 160.948C115.643 146.164 107.971 134.699 96.8788 125.347C93.9328 122.86 90.8566 120.504 87.7023 118.185C87.641 118.13 87.5693 118.104 87.4975 118.077C86.7944 117.818 86.1124 118.74 86.7226 119.34C90.1912 122.753 93.6259 126.17 96.8017 129.671C112.357 146.811 112.147 173.299 104.93 170.639C104.341 170.423 103.711 170.011 103.043 169.39C93.6053 160.681 80.391 155.763 68.9864 148.985C64.9724 146.61 61.179 143.99 57.8499 140.905C44.6383 128.638 38.1698 111.782 37.1732 94.0087C36.4368 80.7481 39.4896 66.5368 40.1225 53.2753C40.1951 51.5745 41.7524 50.6654 43.0725 51.1519C43.4077 51.2588 43.7346 51.4772 44.0194 51.8101Z" fill="url(#paint0_linear_179_116)"/>
<path d="M43.6435 52.1399L43.6394 52.1351C43.4073 51.8638 43.1564 51.7034 42.9206 51.6283L42.9101 51.6249L42.8996 51.6211C41.9025 51.2536 40.6804 51.9291 40.622 53.2967L40.6219 53.2992C40.3769 58.4327 39.7701 63.7119 39.1619 69.0039C38.9821 70.5681 38.8022 72.1335 38.6314 73.6966C37.8816 80.5609 37.3067 87.3943 37.6725 93.981C38.6634 111.652 45.0918 128.377 58.1901 140.539C61.4845 143.591 65.2459 146.191 69.241 148.555L69.2418 148.556C72.963 150.767 76.8648 152.773 80.7805 154.786C82.8542 155.853 84.9317 156.921 86.9884 158.023C92.907 161.193 98.6155 164.624 103.382 169.023L103.384 169.024C104.02 169.616 104.595 169.983 105.102 170.17C105.856 170.448 106.468 170.34 106.989 169.947C107.541 169.53 108.037 168.755 108.418 167.612C109.177 165.333 109.4 161.819 108.909 157.638C107.929 149.291 104.127 138.487 96.4314 130.007L96.4313 130.007C93.2661 126.518 89.8406 123.109 86.3721 119.696C85.8731 119.206 85.9049 118.554 86.2016 118.109C86.4854 117.683 87.0598 117.383 87.6704 117.608C87.674 117.609 87.6779 117.611 87.6821 117.612C87.746 117.635 87.885 117.686 88.0136 117.793C91.1675 120.113 94.2482 122.472 97.2014 124.965C108.361 134.374 116.134 145.958 116.856 160.924C117.482 173.859 114.582 188.37 106.79 198.869C106.409 199.389 106.5 199.988 106.865 200.426C107.236 200.872 107.825 201.073 108.38 200.83L108.383 200.829C108.89 200.61 109.343 200.202 109.773 199.688C110.11 199.285 110.408 198.848 110.702 198.417C110.785 198.295 110.868 198.173 110.952 198.053C114.003 193.604 116.073 188.443 118.104 183.382C118.227 183.074 118.351 182.767 118.474 182.46C123.741 169.355 126.662 155.306 126.95 141.182L126.95 141.181C127.121 133.395 126.681 125.709 124.675 118.446C123.413 113.896 121.549 109.503 118.82 105.373L118.819 105.373C115.909 100.959 112.484 97.1924 108.704 93.8912L108.703 93.8904C107.432 92.7752 106.111 91.7058 104.768 90.6932L104.768 90.693C98.5711 86.012 91.6203 82.249 84.4951 78.6463C82.7987 77.7903 81.0917 76.9432 79.3822 76.095C66.4145 69.6606 53.3067 63.1566 43.6435 52.1398L43.6435 52.1399Z" stroke="url(#paint1_linear_179_116)" stroke-opacity="0.1"/>
<g filter="url(#filter0_i_179_116)">
<path d="M234.582 3.1767C219.26 24.4325 196.13 37.2642 174.105 51.1577C163.356 57.9505 152.864 64.9975 143.702 73.4041C141.715 75.2243 139.77 77.1325 137.912 79.1074C132.38 84.9561 127.481 91.5002 123.503 99.0053C119.76 106.046 117.45 113.369 116.129 120.839C114.032 132.759 114.509 145.088 115.966 157.433C118.576 179.864 125.363 201.77 135.738 221.815C139.947 229.945 144.205 238.457 150.118 245.524C151.433 247.079 152.959 249.126 154.974 249.777C157.606 250.644 159.975 247.317 158.037 245.143C144.259 229.869 137.501 207.517 136.537 187.048C135.424 163.519 145.84 144.192 161.994 127.695C166.284 123.308 170.8 119.109 175.446 114.956C175.534 114.859 175.644 114.807 175.754 114.754C176.828 114.237 178.048 115.594 177.173 116.637C172.195 122.57 167.272 128.504 162.772 134.532C140.728 164.046 145.078 205.977 156.11 200.669C157.009 200.236 157.945 199.488 158.909 198.404C172.539 183.175 192.728 173.379 209.768 160.912C215.766 156.54 221.379 151.814 226.185 146.422C245.255 124.984 252.945 97.2988 251.828 68.9908C250.984 47.8711 243.992 25.8201 240.978 4.90687C240.605 2.2234 238 1.01941 235.982 1.99029C235.467 2.21043 234.983 2.60606 234.582 3.1767Z" fill="#F1F1F1" fill-opacity="0.1"/>
<path d="M234.582 3.1767C219.26 24.4325 196.13 37.2642 174.105 51.1577C163.356 57.9505 152.864 64.9975 143.702 73.4041C141.715 75.2243 139.77 77.1325 137.912 79.1074C132.38 84.9561 127.481 91.5002 123.503 99.0053C119.76 106.046 117.45 113.369 116.129 120.839C114.032 132.759 114.509 145.088 115.966 157.433C118.576 179.864 125.363 201.77 135.738 221.815C139.947 229.945 144.205 238.457 150.118 245.524C151.433 247.079 152.959 249.126 154.974 249.777C157.606 250.644 159.975 247.317 158.037 245.143C144.259 229.869 137.501 207.517 136.537 187.048C135.424 163.519 145.84 144.192 161.994 127.695C166.284 123.308 170.8 119.109 175.446 114.956C175.534 114.859 175.644 114.807 175.754 114.754C176.828 114.237 178.048 115.594 177.173 116.637C172.195 122.57 167.272 128.504 162.772 134.532C140.728 164.046 145.078 205.977 156.11 200.669C157.009 200.236 157.945 199.488 158.909 198.404C172.539 183.175 192.728 173.379 209.768 160.912C215.766 156.54 221.379 151.814 226.185 146.422C245.255 124.984 252.945 97.2988 251.828 68.9908C250.984 47.8711 243.992 25.8201 240.978 4.90687C240.605 2.2234 238 1.01941 235.982 1.99029C235.467 2.21043 234.983 2.60606 234.582 3.1767Z" fill="url(#paint2_linear_179_116)" fill-opacity="0.2"/>
<path d="M234.988 3.4691L234.991 3.464C235.345 2.95967 235.76 2.62913 236.179 2.45001L236.189 2.44565L236.199 2.44084C237.906 1.61919 240.156 2.62264 240.483 4.97571L240.483 4.97819C241.648 13.063 243.407 21.3212 245.173 29.6108C245.696 32.0633 246.219 34.5185 246.727 36.9728C248.957 47.7358 250.908 58.4944 251.329 69.0105C252.442 97.2168 244.778 124.767 225.811 146.09C221.037 151.446 215.454 156.149 209.473 160.508L209.472 160.509C203.906 164.581 198.015 168.361 192.111 172.148C188.99 174.15 185.865 176.155 182.783 178.206C173.893 184.123 165.395 190.407 158.536 198.07L158.535 198.072C157.6 199.125 156.714 199.823 155.893 200.218C154.656 200.813 153.563 200.737 152.587 200.136C151.577 199.515 150.642 198.301 149.854 196.522C148.281 192.971 147.394 187.388 147.538 180.669C147.825 167.246 152.224 149.491 163.173 134.831L163.173 134.831C167.664 128.816 172.578 122.891 177.556 116.958C178.168 116.229 178.043 115.36 177.582 114.795C177.137 114.248 176.323 113.925 175.537 114.303L175.521 114.311C175.423 114.358 175.248 114.442 175.097 114.597C170.453 118.749 165.933 122.952 161.637 127.345C145.421 143.905 134.916 163.36 136.038 187.072C137.005 207.615 143.787 230.091 157.665 245.477C158.453 246.362 158.38 247.478 157.806 248.319C157.227 249.167 156.194 249.653 155.13 249.302L155.127 249.301C154.227 249.01 153.408 248.397 152.635 247.634C152.029 247.035 151.478 246.373 150.945 245.733C150.796 245.554 150.648 245.376 150.5 245.202C144.97 238.591 140.893 230.701 136.913 222.998C136.669 222.526 136.426 222.055 136.182 221.585C125.835 201.593 119.066 179.745 116.463 157.375L116.463 157.374C115.009 145.052 114.537 132.778 116.621 120.926C117.935 113.5 120.23 106.228 123.944 99.24L123.944 99.2395C127.899 91.779 132.771 85.2711 138.275 79.451L138.276 79.4501C140.126 77.4848 142.061 75.5852 144.04 73.7728L144.04 73.7725C153.168 65.3978 163.628 58.3704 174.372 51.5803C176.932 49.9657 179.508 48.3643 182.087 46.7613C201.661 34.5966 221.386 22.337 234.988 3.4691Z" stroke="url(#paint3_linear_179_116)" stroke-opacity="0.1"/>
</g>
<defs>
<filter id="filter0_i_179_116" x="90.4129" y="-22.643" width="185.822" height="296.861" filterUnits="userSpaceOnUse" color-interpolation-filters="sRGB">
<feFlood flood-opacity="0" result="BackgroundImageFix"/>
<feBlend mode="normal" in="SourceGraphic" in2="BackgroundImageFix" result="shape"/>
<feColorMatrix in="SourceAlpha" type="matrix" values="0 0 0 0 0 0 0 0 0 0 0 0 0 0 0 0 0 0 127 0" result="hardAlpha"/>
<feOffset dy="4.06"/>
<feGaussianBlur stdDeviation="8.125"/>
<feComposite in2="hardAlpha" operator="arithmetic" k2="-1" k3="1"/>
<feColorMatrix type="matrix" values="0 0 0 0 1 0 0 0 0 1 0 0 0 0 1 0 0 0 0.4 0"/>
<feBlend mode="normal" in2="shape" result="effect1_innerShadow_179_116"/>
</filter>
<linearGradient id="paint0_linear_179_116" x1="152.577" y1="91.5007" x2="8.90956" y2="76.4946" gradientUnits="userSpaceOnUse">
<stop stop-color="#FFD482"/>
<stop offset="1" stop-color="#FF8C00"/>
</linearGradient>
<linearGradient id="paint1_linear_179_116" x1="147.226" y1="95.2795" x2="39.1793" y2="55.4661" gradientUnits="userSpaceOnUse">
<stop stop-color="#FFC282"/>
<stop offset="1" stop-color="#FF4980"/>
</linearGradient>
<linearGradient id="paint2_linear_179_116" x1="68.6211" y1="82.5217" x2="293.948" y2="36.9573" gradientUnits="userSpaceOnUse">
<stop stop-color="#FFD482"/>
<stop offset="1" stop-color="#FF377F"/>
</linearGradient>
<linearGradient id="paint3_linear_179_116" x1="77.6716" y1="87.6966" x2="242.804" y2="8.23441" gradientUnits="userSpaceOnUse">
<stop stop-color="#FFC282"/>
<stop offset="1" stop-color="#FF4980"/>
</linearGradient>
</defs>
</svg>
