<svg width="26" height="39" viewBox="0 0 26 39" fill="none" xmlns="http://www.w3.org/2000/svg">
<g id="Group">
<path id="Vector" fill-rule="evenodd" clip-rule="evenodd" d="M25.451 25.9287L19.133 32.3351L0.125 13.1159V0.321289L25.451 25.9287Z" fill="#ED5C4E"/>
<g id="Group_2">
<path id="Vector_2" fill-rule="evenodd" clip-rule="evenodd" d="M0.431 0.630557L0.125 0.339355V0.466756C0.215 0.503156 0.341 0.575957 0.431 0.630557Z" fill="#A33B35"/>
<g id="Group 1000002465">
<path id="Vector_3" fill-rule="evenodd" clip-rule="evenodd" d="M8.61947 8.92956L8.24147 8.54736C8.06147 8.63836 7.93547 8.72936 7.75547 8.82036C5.41547 10.0398 2.94947 10.8224 0.339469 11.2228C0.267469 11.241 0.177469 11.241 0.105469 11.241V11.7506C0.897469 11.6414 1.72547 11.4958 2.51747 11.3138C4.69547 10.8042 6.71147 10.0034 8.61947 8.92956Z" fill="#A33B35"/>
<path id="Vector_4" fill-rule="evenodd" clip-rule="evenodd" d="M5.03984 5.30794L4.67984 4.94394C4.51784 5.03494 4.35584 5.12594 4.19384 5.21694C4.17584 5.19874 4.15784 5.18054 4.13984 5.16234C4.19384 4.94394 4.22984 4.76194 4.28384 4.56174L3.85184 4.12494C3.74384 4.57994 3.63584 4.98034 3.47384 5.41714C3.43784 5.48994 3.43784 5.56274 3.32984 5.59914C2.98784 5.70834 2.68184 5.90854 2.28584 5.98134C2.59184 5.05314 2.75384 4.14314 2.87984 3.17854L2.41184 2.70534C2.28584 3.83374 2.08784 4.94394 1.70984 6.01774C1.65584 6.18154 1.58384 6.27254 1.42184 6.30894C1.15184 6.38174 0.881844 6.47274 0.521844 6.56374C1.04384 4.92574 1.24184 3.32414 1.34984 1.63154L0.863844 1.14014C0.863844 1.17654 0.863844 1.23114 0.863844 1.24934C0.773844 2.66894 0.647844 3.99754 0.323844 5.38074C0.269844 5.61734 0.161844 5.85394 0.0898438 6.09054V7.21894C0.755844 7.05514 1.43984 6.87314 2.08784 6.63654C3.14984 6.25434 4.08584 5.79934 5.03984 5.30794Z" fill="#A33B35"/>
<path id="Vector_5" fill-rule="evenodd" clip-rule="evenodd" d="M0.125 8.20175V8.69315C1.133 8.49295 2.177 8.21995 3.167 7.87415C4.229 7.49195 5.237 7.05515 6.227 6.50915L5.849 6.12695C5.147 6.50915 4.463 6.83675 3.725 7.12795C2.573 7.58295 1.349 7.92875 0.125 8.20175Z" fill="#A33B35"/>
<path id="Vector_6" fill-rule="evenodd" clip-rule="evenodd" d="M0.125 9.69426V10.2039C0.215 10.1857 0.341 10.1857 0.449 10.1675C2.375 9.82166 4.229 9.23926 6.011 8.42026C6.497 8.18366 6.947 7.94706 7.415 7.69226L7.037 7.31006C6.101 7.83786 5.165 8.27466 4.157 8.63866C2.843 9.11186 1.475 9.45766 0.125 9.69426Z" fill="#A33B35"/>
<path id="Vector_7" fill-rule="evenodd" clip-rule="evenodd" d="M12.8855 14.8995C11.2115 14.8267 8.69147 14.6447 7.03547 14.4809C6.85547 14.4627 6.74747 14.4263 6.72947 14.2079C6.72947 13.9713 6.49547 13.6619 6.65747 13.5163C6.76547 13.4071 7.10747 13.5163 7.34147 13.5527C9.42947 13.7711 10.7255 13.8803 12.8135 13.9349V13.4071C11.7875 13.3707 11.0135 13.3343 9.96947 13.2615C8.88947 13.1887 7.82747 13.0613 6.76547 12.9703C6.54947 12.9521 6.42347 12.8611 6.36947 12.6427C6.33347 12.4789 6.31547 12.2969 6.24347 12.1513C6.11747 11.8601 6.26147 11.8601 6.47747 11.8783C8.31347 12.0967 10.1495 12.2423 11.9855 12.3151L11.4275 11.7509C10.0955 11.6781 8.76347 11.5871 7.43147 11.4233C8.00747 11.1321 8.60147 10.8409 9.17747 10.5679C9.35747 10.4951 9.53747 10.5497 9.69947 10.5679C9.89747 10.5861 10.0955 10.6043 10.3115 10.6043L9.48347 9.76709C7.88147 10.6771 6.20747 11.3869 4.44347 11.9147C3.02147 12.3333 1.58147 12.6245 0.105469 12.8065V13.0795L0.339469 13.3161C0.357469 13.3161 0.375469 13.2979 0.411469 13.2797C0.663469 13.2615 0.915469 13.2251 1.16747 13.1705C1.34747 13.1341 1.36547 13.2069 1.38347 13.3525C1.41947 13.7165 1.45547 14.0805 1.47347 14.4445L2.03147 15.0087C1.97747 14.4263 1.94147 13.8257 1.86947 13.2433C1.85147 13.0977 1.90547 13.0249 2.04947 12.9885C2.30147 12.9339 2.55347 12.8975 2.80547 12.8247C2.98547 12.7883 3.02147 12.8611 3.03947 13.0249C3.12947 14.0987 3.21947 15.1725 3.27347 16.2463L3.83147 16.8105C3.83147 16.7377 3.83147 16.6649 3.83147 16.6103C3.79547 15.4091 3.68747 14.2079 3.56147 13.0067C3.54347 12.7883 3.56147 12.6609 3.83147 12.5881C4.46147 12.4243 4.46147 12.4061 4.55147 13.0249C4.80347 14.6811 4.94747 16.3373 5.00147 17.9935L5.50547 18.5213C5.46947 16.9197 5.37947 15.3181 5.16347 13.7347C5.10947 13.3525 5.07347 12.9703 5.00147 12.5881C4.96547 12.3697 5.00147 12.2423 5.23547 12.2059C5.30747 12.1877 5.37947 12.1695 5.43347 12.1513C5.63147 12.0603 5.70347 12.0967 5.77547 12.3333C6.13547 13.6619 6.36947 15.0087 6.51347 16.3555C6.62147 17.4657 6.67547 18.5759 6.67547 19.6861L7.77347 20.7963C9.60947 21.1421 11.0135 21.3605 12.8675 21.4697M7.95347 20.1047C7.93547 20.2685 7.88147 20.3413 7.70147 20.2867C7.61147 20.2685 7.50347 20.2503 7.41347 20.2321C7.23347 20.2139 7.16147 20.1229 7.17947 19.9227C7.21547 18.3393 7.12547 16.7741 6.89147 15.2089C6.85547 15.0087 6.90947 14.9541 7.08947 14.9723C7.26947 15.0087 7.46747 15.0087 7.64747 15.0451C7.70147 15.0451 7.73747 15.0815 7.79147 15.0815C7.80947 15.1361 7.80947 15.1907 7.82747 15.2453C8.15147 16.8651 8.15147 18.4849 7.95347 20.1047ZM9.50147 20.2685C9.46547 20.5597 9.35747 20.5961 9.10547 20.5415C8.42147 20.4141 8.42147 20.4141 8.49347 19.7407C8.67347 18.2483 8.61947 16.7559 8.34947 15.2817C8.34947 15.2453 8.33147 15.2089 8.33147 15.1361C8.63747 15.1543 8.90747 15.1907 9.17747 15.1907C9.32147 15.1907 9.37547 15.2635 9.41147 15.4091C9.71747 17.0471 9.75347 18.6487 9.50147 20.2685ZM11.0315 20.6143C11.0315 20.6689 11.0135 20.7053 11.0135 20.7599C10.9595 20.7599 10.9055 20.7781 10.8695 20.7599C10.7795 20.7599 10.6715 20.7417 10.5815 20.7235C10.0055 20.6325 9.98747 20.6325 10.0775 20.0683C10.2935 18.5395 10.2575 17.0289 9.98747 15.5183C9.95147 15.2999 9.98747 15.2635 10.2035 15.2817C11.0135 15.3363 11.0135 15.3363 11.1395 16.1371C11.3195 17.6295 11.3015 19.1219 11.0315 20.6143ZM12.6515 20.5051C12.6335 20.6325 12.5795 20.7417 12.5435 20.8327C12.4715 20.9237 12.4175 20.9237 12.3635 20.9237C12.2735 20.9237 12.1835 20.9055 12.0935 20.8873C11.5355 20.8145 11.5355 20.8145 11.6255 20.2685C11.8595 18.7397 11.8415 17.2109 11.5715 15.6821C11.5175 15.3909 11.6075 15.3363 11.8415 15.3909C12.0755 15.4455 12.3995 15.2999 12.5435 15.5001C12.6695 15.6639 12.6515 15.9551 12.6875 16.1917C12.9035 17.6295 12.8495 19.0673 12.6515 20.5051Z" fill="#A33B35"/>
</g>
</g>
<path id="Vector_8" fill-rule="evenodd" clip-rule="evenodd" d="M18.7748 22.2705C18.6848 22.3797 18.3608 22.3797 18.2348 22.3979C15.1748 22.6527 12.1328 22.5435 9.10884 22.0885C9.05484 22.0885 9.01884 22.0703 8.96484 22.0703L9.55884 22.6709C12.1148 23.0167 14.6888 23.1623 17.2628 22.9985C17.4428 22.9803 17.6408 22.9803 17.8208 22.9803C17.8388 22.9803 17.8568 22.9985 17.9648 23.0531C17.6768 23.3625 17.3888 23.6173 17.1368 23.9085C17.0468 23.9995 16.9568 23.9813 16.8668 23.9995C14.7968 24.1087 12.7268 24.0541 10.6748 23.8175L11.2328 24.3817C11.8448 24.4363 12.4568 24.4909 13.0688 24.5273C14.0768 24.5819 15.0848 24.5637 16.0928 24.5455C16.2008 24.5455 16.3088 24.5091 16.4528 24.6001C16.1648 24.8913 15.9128 25.1461 15.6428 25.4191C15.5528 25.5101 15.4628 25.5101 15.3548 25.5101C14.3468 25.5283 13.3388 25.4919 12.3128 25.4373L12.8528 25.9833C12.8888 25.9833 12.9068 25.9833 12.9428 25.9833C13.5908 26.0197 14.3288 26.0379 15.0488 26.0561H14.9408C14.9228 26.0561 14.9588 26.0561 14.9408 26.0561" fill="#A33B35"/>
<path id="Vector_9" d="M25.4524 25.9287L19.1344 32.3351L12.8164 25.9469L19.1524 19.5405L25.4524 25.9287Z" fill="#F8D53C"/>
<path id="Vector_10" d="M12.8344 38.7415L19.1524 32.3533L12.8164 25.9287L12.8344 38.7415Z" fill="#F89E24"/>
<path id="Vector_11" d="M12.8344 25.9289L19.1524 19.5407L12.8164 13.1343L12.8344 25.9289Z" fill="#F89E24"/>
<path id="Vector_12" d="M12.8149 13.1522L19.1149 6.74575L12.7969 0.339355L12.8149 13.1522Z" fill="#F89E24"/>
<path id="Vector_13" d="M12.8164 13.152L19.1164 6.74561L25.4524 13.1702L19.1524 19.5402L12.8164 13.152Z" fill="#F8D53C"/>
</g>
</svg>
