<svg width="523" height="72" viewBox="0 0 523 72" fill="none" xmlns="http://www.w3.org/2000/svg">
<path d="M72.2914 9.0383L72.2913 9.03841L72.2944 9.04039C72.6489 9.2713 73.0057 9.38786 73.4135 9.38786H80.3114V30.8311C80.3114 31.1888 80.4699 31.4665 80.7778 31.7004C81.0848 31.9337 81.443 32.05 81.8502 32.05C82.3063 32.05 82.6647 31.9341 82.9722 31.7004C83.281 31.4659 83.4386 31.1501 83.4386 30.8311V9.38786H90.3365C90.7926 9.38786 91.151 9.272 91.4586 9.0383C91.7665 8.80439 91.925 8.52665 91.925 8.16893C91.925 7.84989 91.7674 7.53414 91.4586 7.29956C91.151 7.06587 90.7926 6.95 90.3365 6.95H73.4135C72.9573 6.95 72.599 7.06587 72.2914 7.29956C71.9826 7.53415 71.825 7.84989 71.825 8.16893C71.825 8.52665 71.9835 8.80439 72.2914 9.0383Z" fill="#323433" stroke="#323433" stroke-width="0.1"/>
<path d="M106.289 31.6627L106.289 31.6628L106.292 31.6648C106.645 31.8957 107 32.0123 107.406 32.0123C107.81 32.0123 108.214 31.8968 108.519 31.7028L108.519 31.703L108.523 31.7004C108.83 31.4657 108.987 31.15 108.987 30.8311V24.2823H122.763V30.8311C122.763 31.1887 122.921 31.4664 123.227 31.7004C123.533 31.9341 123.89 32.05 124.344 32.05C124.798 32.05 125.155 31.9341 125.461 31.7004C125.768 31.4657 125.925 31.15 125.925 30.8311V8.16893C125.925 7.81131 125.767 7.53359 125.461 7.29963L125.461 7.29952L125.458 7.29753C125.105 7.0666 124.75 6.95 124.344 6.95C123.89 6.95 123.533 7.0659 123.227 7.29963C122.921 7.53359 122.763 7.81131 122.763 8.16893V21.8444H108.987V8.16893C108.987 7.81131 108.829 7.53359 108.523 7.29963C108.217 7.0659 107.86 6.95 107.406 6.95C106.952 6.95 106.595 7.0659 106.289 7.29963C105.983 7.53358 105.825 7.81131 105.825 8.16893V30.7934C105.825 31.151 105.983 31.4287 106.289 31.6627Z" fill="#323433" stroke="#323433" stroke-width="0.1"/>
<path d="M140.318 31.7007L140.318 31.7008L140.321 31.7027C140.696 31.9336 141.072 32.05 141.502 32.05H141.503H141.503H141.503H141.504H141.504H141.504H141.504H141.505H141.505H141.505H141.506H141.506H141.506H141.507H141.507H141.507H141.508H141.508H141.508H141.508H141.509H141.509H141.509H141.51H141.51H141.51H141.511H141.511H141.511H141.512H141.512H141.512H141.512H141.513H141.513H141.513H141.514H141.514H141.514H141.515H141.515H141.515H141.516H141.516H141.516H141.516H141.517H141.517H141.517H141.518H141.518H141.518H141.519H141.519H141.519H141.52H141.52H141.52H141.52H141.521H141.521H141.521H141.522H141.522H141.522H141.523H141.523H141.523H141.524H141.524H141.524H141.524H141.525H141.525H141.525H141.526H141.526H141.526H141.527H141.527H141.527H141.528H141.528H141.528H141.528H141.529H141.529H141.529H141.53H141.53H141.53H141.531H141.531H141.531H141.532H141.532H141.532H141.532H141.533H141.533H141.533H141.534H141.534H141.534H141.535H141.535H141.535H141.536H141.536H141.536H141.536H141.537H141.537H141.537H141.538H141.538H141.538H141.539H141.539H141.539H141.54H141.54H141.54H141.54H141.541H141.541H141.541H141.542H141.542H141.542H141.543H141.543H141.543H141.544H141.544H141.544H141.544H141.545H141.545H141.545H141.546H141.546H141.546H141.547H141.547H141.547H141.548H141.548H141.548H141.548H141.549H141.549H141.549H141.55H141.55H141.55H141.551H141.551H141.551H141.552H141.552H141.552H141.552H141.553H141.553H141.553H141.554H141.554H141.554H141.555H141.555H141.555H141.556H141.556H141.556H141.556H141.557H141.557H141.557H141.558H141.558H141.558H141.559H141.559H141.559H141.56H141.56H141.56H141.56H141.561H141.561H141.561H141.562H141.562H141.562H141.563H141.563H141.563H141.564H141.564H141.564H141.564H141.565H141.565H141.565H141.566H141.566H141.566H141.567H141.567H141.567H141.568H141.568H141.568H141.568H141.569H141.569H141.569H141.57H141.57H141.57H141.571H141.571H141.571H141.572H141.572H141.572H141.572H141.573H141.573H141.573H141.574H141.574H141.574H141.575H141.575H141.575H141.576H141.576H141.576H141.576H141.577H141.577H141.577H141.578H141.578H141.578H141.579H141.579H141.579H141.58H141.58H141.58H141.58H141.581H141.581H141.581H141.582H141.582H141.582H141.583H141.583H141.583H141.584H141.584H141.584H141.584H141.585H141.585H141.585H141.586H141.586H141.586H141.587H141.587H141.587H141.588H141.588H141.588H141.588H141.589H141.589H141.589H141.59H141.59H141.59H141.591H141.591H141.591H141.592H141.592H141.592H141.592H141.593H141.593H141.593H141.594H141.594H141.594H141.595H141.595H141.595H141.596H141.596H141.596H141.596H141.597H141.597H141.597H141.598H141.598H141.598H141.599H141.599H141.599H141.6H141.6H141.6H141.6H141.601H141.601H141.601H141.602H141.602H141.602H141.603H141.603H141.603H141.603H141.604H141.604H141.604H141.605H141.605H141.605H141.606H141.606H141.606H141.607H141.607H141.607H141.607H141.608H141.608H141.608H141.609H141.609H141.609H141.61H141.61H141.61H141.611H141.611H141.611H141.611H141.612H141.612H141.612H141.613H141.613H141.613H141.614H141.614H141.614H141.615H141.615H141.615H141.615H141.616H141.616H141.616H141.617H141.617H141.617H141.618H141.618H141.618H141.619H141.619H141.619H141.619H141.62H141.62H141.62H141.621H141.621H141.621H141.622H141.622H141.622H141.623H141.623H141.623H141.623H141.624H141.624H141.624H141.625H141.625H141.625H141.626H141.626H141.626H141.627H141.627H141.627H141.627H141.628H141.628H141.628H141.629H141.629H141.629H141.63H141.63H141.63H141.631H141.631H141.631H141.631H141.632H141.632H141.632H141.633H141.633H141.633H141.634H141.634H141.634H141.635H141.635H141.635H141.635H141.636H141.636H141.636H141.637H141.637H141.637H141.638H141.638H141.638H141.639H141.639H141.639H141.639H141.64H141.64H141.64H141.641H141.641H141.641H141.642H141.642H141.642H141.643H141.643H141.643H141.643H141.644H141.644H141.644H141.645H141.645H141.645H141.646H141.646H141.646H141.647H141.647H141.647H141.647H141.648H141.648H141.648H141.649H141.649H141.649H141.65H141.65H141.65H141.651H141.651H141.651H141.651H141.652H141.652H141.652H141.653H141.653H141.653H141.654H141.654H141.654H141.655H141.655H141.655H141.655H141.656H141.656H141.656H141.657H141.657H141.657H141.658H141.658H141.658H141.659H141.659H141.659H141.659H141.66H158.248C158.676 32.05 159.107 31.9346 159.432 31.7007C159.756 31.4677 159.925 31.1897 159.925 30.8671C159.925 30.5076 159.757 30.2294 159.432 29.9957C159.107 29.7617 158.676 29.6464 158.248 29.6464H143.18V24.3083H154.941C155.422 24.3083 155.8 24.1926 156.125 23.959C156.45 23.7252 156.618 23.447 156.618 23.0876C156.618 22.7649 156.449 22.487 156.125 22.254C155.8 22.0204 155.422 21.9047 154.941 21.9047H143.18V9.39139H158.248C158.676 9.39139 159.107 9.27604 159.432 9.0421C159.757 8.80833 159.925 8.53011 159.925 8.17069C159.925 7.85004 159.758 7.53374 159.432 7.29929C159.107 7.06536 158.676 6.95 158.248 6.95H141.502C141.021 6.95 140.643 7.0657 140.318 7.29929C139.992 7.53374 139.825 7.85004 139.825 8.17069V30.8293C139.825 31.1887 139.993 31.4669 140.318 31.7007Z" fill="#323433" stroke="#323433" stroke-width="0.1"/>
<path d="M183.494 8.84848L183.494 8.84849L183.495 8.85001L191.738 23.5389V31.0268C191.738 31.3854 191.904 31.6631 192.225 31.8965L192.225 31.8966L192.228 31.8985C192.598 32.1291 192.971 32.2453 193.396 32.2453C193.872 32.2453 194.246 32.1298 194.567 31.8965C194.889 31.6624 195.054 31.3467 195.054 31.0268V23.539L203.349 8.85013L203.349 8.85015L203.35 8.84848C203.513 8.53255 203.513 8.2139 203.35 7.89797L203.35 7.89779L203.346 7.89256C203.133 7.58326 202.865 7.34865 202.436 7.23188C202.013 7.11646 201.589 7.11646 201.165 7.23188C200.741 7.34749 200.416 7.58043 200.252 7.89717L193.396 20.1068L186.54 7.89718C186.376 7.58044 186.051 7.3475 185.627 7.23188C185.203 7.11646 184.831 7.11646 184.407 7.23188L184.407 7.23172L184.404 7.23313C183.985 7.38501 183.659 7.57907 183.494 7.89797C183.331 8.2139 183.331 8.53255 183.494 8.84848Z" fill="#323433" stroke="#323433" stroke-width="0.1"/>
<path d="M228.542 7.91284L228.636 7.87644L228.63 7.8664C228.547 7.70798 228.462 7.58524 228.334 7.46283C228.078 7.21922 227.777 7.09531 227.433 7.09531C227.052 7.09531 226.749 7.21801 226.493 7.46283C226.364 7.58524 226.279 7.70798 226.196 7.8664L226.195 7.8661L226.191 7.87682L226.285 7.91284L226.191 7.87691L226.191 7.87717L226.191 7.87821L226.189 7.88238L226.183 7.89906L226.157 7.96575L226.054 8.23247L225.642 9.29885C225.276 10.2465 224.726 11.6674 223.994 13.5603C222.528 17.3461 220.331 23.0201 217.4 30.5728C217.269 30.9064 217.316 31.236 217.44 31.5522L217.443 31.5599L217.447 31.567C217.615 31.8472 217.87 32.0914 218.212 32.214L218.212 32.214L218.216 32.2151L218.219 32.216C218.337 32.2536 218.468 32.2953 218.642 32.2953C218.935 32.2953 219.193 32.2252 219.405 32.0852C219.617 31.9451 219.778 31.739 219.883 31.4774L219.884 31.476L222.576 24.4901L222.576 24.4896L224.16 20.4493L224.16 20.449L227.433 12.0038L231.379 22.1861L231.379 22.1863L232.923 26.1513L232.923 26.1515L234.982 31.4761L234.983 31.4774C235.088 31.739 235.249 31.9451 235.461 32.0852C235.673 32.2252 235.931 32.2953 236.224 32.2953C236.369 32.2953 236.486 32.266 236.608 32.2354C236.633 32.2292 236.658 32.2231 236.683 32.2171L236.683 32.2177L236.693 32.214C237.029 32.0937 237.294 31.888 237.426 31.5522L237.426 31.5522L237.427 31.5486C237.552 31.1917 237.556 30.8631 237.425 30.5707C234.495 23.0001 232.298 17.3268 230.833 13.5461C230.1 11.6555 229.551 10.2381 229.184 9.29344L228.772 8.23079L228.669 7.96519L228.644 7.8988L228.637 7.8822L228.636 7.87805L228.635 7.87701L228.635 7.87675L228.542 7.91284Z" fill="#A33B35" stroke="#A33B35" stroke-width="0.2"/>
<path d="M262.702 24.3375C265.17 23.9483 267.27 22.9674 268.909 21.3933C270.616 19.7988 271.472 17.9356 271.472 15.8056C271.472 13.4095 270.426 11.3564 268.293 9.68647C266.207 7.979 263.649 7.14531 260.667 7.14531H252.884C252.45 7.14531 252.108 7.26171 251.815 7.49616C251.523 7.73012 251.372 8.00787 251.372 8.32824V31.0246C251.372 31.3818 251.522 31.6598 251.815 31.8945C252.109 32.1293 252.497 32.2453 252.884 32.2453C253.314 32.2453 253.659 32.1311 253.861 31.9305C254.153 31.6954 254.302 31.38 254.302 31.0624V24.5036H259.042L265.914 31.7763C265.914 31.7764 265.914 31.7764 265.914 31.7764L265.914 31.7765L262.702 24.3375ZM260.667 22.0622H254.396V9.54893H260.667C262.826 9.54893 264.655 10.1874 266.202 11.3887C267.749 12.6267 268.495 14.0858 268.495 15.8056C268.495 17.5248 267.702 18.9844 266.201 20.2232C264.702 21.4609 262.827 22.0622 260.667 22.0622Z" fill="#323433" stroke="#323433" stroke-width="0.1"/>
<path d="M304.355 32.2062C304.727 32.1296 305.007 32.0039 305.194 31.8147C305.383 31.6238 305.472 31.3739 305.472 31.0613V8.38019C305.472 8.02193 305.315 7.74357 305.011 7.50896C304.707 7.27458 304.353 7.15833 303.902 7.15833C303.501 7.15833 303.098 7.2742 302.793 7.50896C302.489 7.74357 302.333 8.02193 302.333 8.38019V26.6013L288.257 7.74674C288.257 7.74652 288.257 7.7463 288.257 7.74608C287.899 7.2344 287.288 7.0432 286.539 7.19716C286.167 7.27371 285.875 7.39932 285.676 7.58782C285.474 7.77791 285.372 8.02789 285.372 8.34239V31.0235C285.372 31.3817 285.528 31.6601 285.833 31.8947L285.832 31.8948L285.835 31.8968C286.186 32.1284 286.538 32.2453 286.941 32.2453C287.345 32.2453 287.697 32.1284 288.047 31.8968L288.048 31.8969L288.05 31.8947C288.356 31.6594 288.511 31.3429 288.511 31.0235V12.8017L302.635 31.6183C302.893 32.0529 303.354 32.2453 303.951 32.2453H303.953C304.05 32.2453 304.202 32.2453 304.355 32.2062ZM304.355 32.2062C304.355 32.2061 304.355 32.206 304.356 32.2059L304.343 32.1575L304.354 32.2065C304.354 32.2064 304.354 32.2063 304.355 32.2062ZM302.383 26.7519V26.6683V26.7519Z" fill="#323433" stroke="#323433" stroke-width="0.1"/>
<path d="M332.537 31.8951L332.537 31.8952L332.54 31.8972C332.891 32.1285 333.244 32.2453 333.648 32.2453H345.54C347.368 32.2453 348.951 31.7517 350.239 30.7622L350.24 30.7616C351.527 29.7346 352.175 28.5505 352.175 27.1349C352.175 26.1011 351.776 25.1454 350.983 24.2691C350.26 23.4545 349.304 22.8206 348.115 22.4367C350.817 20.7018 352.175 18.5155 352.175 15.8056C352.175 13.4086 351.085 11.3553 348.863 9.68572C346.642 7.97895 344.027 7.14531 340.921 7.14531H333.648C333.197 7.14531 332.841 7.26142 332.537 7.49554C332.233 7.72917 332.075 8.00701 332.075 8.32824V31.0246C332.075 31.3826 332.232 31.6607 332.537 31.8951ZM347.967 29.0212L347.967 29.0212L347.965 29.0223C347.288 29.5802 346.464 29.8417 345.491 29.8417H335.173V24.4659H345.491C346.464 24.4659 347.289 24.7274 347.967 25.2486C348.644 25.7694 348.979 26.3976 348.979 27.1349C348.979 27.8722 348.644 28.5004 347.967 29.0212ZM340.872 22.0245H335.173V9.54893H340.872C343.122 9.54893 345.028 10.1877 346.64 11.3893C348.252 12.6277 349.028 14.0867 349.028 15.8056C349.028 17.524 348.203 18.9832 346.64 20.1844C345.028 21.4231 343.123 22.0245 340.872 22.0245Z" fill="#323433" stroke="#323433" stroke-width="0.1"/>
<path d="M386.113 30.5948L386.114 30.5948L386.112 30.5911C383.177 23.0194 380.976 17.3453 379.509 13.5641C378.775 11.6735 378.225 10.2562 377.858 9.31149L377.446 8.24885L377.342 7.98325L377.317 7.91686L377.31 7.90026L377.309 7.89611L377.308 7.89508L377.308 7.89482L377.261 7.91284L377.308 7.89461L377.306 7.88959C377.224 7.73485 377.142 7.61683 377.018 7.49899C376.771 7.2639 376.482 7.14531 376.151 7.14531C375.782 7.14531 375.492 7.2633 375.244 7.49899C375.12 7.61683 375.038 7.73485 374.957 7.88959L374.956 7.88944L374.954 7.89481L375.001 7.91284L374.954 7.89489L374.954 7.89516L374.954 7.8962L374.952 7.90037L374.946 7.91704L374.92 7.98374L374.817 8.25046L374.404 9.31685C374.037 10.2645 373.487 11.6854 372.753 13.5783C371.286 17.3642 369.085 23.0382 366.15 30.591C366.025 30.9089 366.068 31.2248 366.19 31.5339L366.189 31.5341L366.194 31.5413C366.357 31.8136 366.603 32.049 366.934 32.1669L366.935 32.1674L366.937 32.1679C367.055 32.2056 367.181 32.2453 367.347 32.2453C367.633 32.2453 367.881 32.1772 368.083 32.0435C368.286 31.9097 368.441 31.7123 368.543 31.4588L368.544 31.458L371.24 24.4719L371.24 24.4716L372.827 20.4311L372.827 20.4309L376.151 11.8652L380.15 22.1681L380.15 22.1682L381.696 26.1333L381.696 26.1334L383.758 31.4581L383.759 31.4587C383.861 31.7123 384.016 31.9097 384.219 32.0435C384.422 32.1772 384.669 32.2453 384.955 32.2453C385.093 32.2453 385.204 32.2177 385.326 32.1872C385.351 32.181 385.377 32.1747 385.403 32.1684L385.403 32.1687L385.408 32.1669C385.739 32.0488 385.946 31.8506 386.11 31.5388L386.111 31.5396L386.114 31.5269C386.195 31.1808 386.196 30.8695 386.113 30.5948Z" fill="#323433" stroke="#323433" stroke-width="0.1"/>
<path d="M405.031 29.811L419.96 8.84498C420.125 8.64953 420.196 8.44823 420.17 8.24777C420.144 8.04807 420.023 7.85908 419.826 7.68499C419.433 7.33647 418.91 7.14531 418.199 7.14531H403.403C402.885 7.14531 402.43 7.26002 402.038 7.49111C401.646 7.72281 401.44 8.0381 401.44 8.36248C401.44 8.72555 401.647 9.00286 402.038 9.23385C402.43 9.46494 402.885 9.57965 403.403 9.57965H415.168L400.237 30.5473L400.237 30.5473L400.237 30.5483C400.103 30.7449 400.051 30.946 400.085 31.145C400.12 31.3428 400.239 31.5309 400.436 31.7051C400.76 32.0107 401.328 32.1986 402.014 32.2073V32.2453H402.064H416.86C417.441 32.2453 417.896 32.1309 418.288 31.8995C418.681 31.6678 418.887 31.3525 418.887 31.0281C418.887 30.6651 418.679 30.3878 418.288 30.1568C417.896 29.9254 417.441 29.811 416.86 29.811H405.031Z" fill="#323433" stroke="#323433" stroke-width="0.1"/>
<path d="M445.255 7.91284L445.301 7.89462L445.299 7.88961C445.218 7.73486 445.135 7.61684 445.012 7.499C444.765 7.2639 444.475 7.14531 444.145 7.14531C443.776 7.14531 443.486 7.2633 443.238 7.499C443.115 7.61684 443.032 7.73486 442.951 7.88961L442.951 7.88945L442.949 7.89482L442.995 7.91284L442.949 7.8949L442.949 7.89517L442.948 7.89621L442.947 7.90038L442.94 7.91705L442.914 7.98375L442.811 8.25047L442.399 9.31686C442.032 10.2645 441.482 11.6854 440.749 13.5783C439.283 17.3642 437.083 23.0382 434.15 30.591C434.025 30.9089 434.068 31.2248 434.19 31.5339L434.189 31.5341L434.194 31.5413C434.357 31.8136 434.603 32.049 434.933 32.1669L434.933 32.1669L434.935 32.1674C435.055 32.2056 435.219 32.2453 435.346 32.2453C435.632 32.2453 435.879 32.1772 436.082 32.0435C436.285 31.9097 436.44 31.7123 436.542 31.4587L436.542 31.458L439.237 24.4716L439.237 24.4715L440.783 20.4309L440.783 20.4307L444.105 11.8653L448.101 22.1681L448.101 22.1682L449.647 26.1333L449.647 26.1334L451.708 31.4581L451.708 31.4587C451.81 31.7123 451.965 31.9097 452.168 32.0435C452.371 32.1772 452.618 32.2453 452.904 32.2453C453.042 32.2453 453.153 32.2177 453.275 32.1872C453.3 32.181 453.325 32.1747 453.351 32.1684L453.351 32.1687L453.357 32.1669C453.683 32.0501 453.935 31.8528 454.06 31.5339L454.06 31.5339L454.061 31.5321C454.181 31.189 454.226 30.8718 454.099 30.59C451.167 23.0188 448.967 17.3451 447.501 13.5641C446.768 11.6736 446.218 10.2562 445.851 9.3115L445.439 8.24886L445.336 7.98326L445.31 7.91687L445.303 7.90027L445.302 7.89612L445.301 7.89509L445.301 7.89483L445.255 7.91284Z" fill="#323433" stroke="#323433" stroke-width="0.1"/>
<path d="M479.247 7.91284L479.294 7.89463L479.292 7.88962C479.21 7.73488 479.128 7.61686 479.005 7.49901C478.758 7.26391 478.469 7.14531 478.138 7.14531C477.769 7.14531 477.48 7.26331 477.232 7.49901C477.109 7.61686 477.027 7.73488 476.945 7.88962L476.945 7.88946L476.943 7.89483L476.99 7.91284L476.943 7.89491L476.943 7.89518L476.943 7.89622L476.941 7.90039L476.934 7.91706L476.909 7.98376L476.806 8.25048L476.394 9.31687C476.027 10.2645 475.478 11.6854 474.745 13.5783C473.279 17.3642 471.081 23.0382 468.15 30.591C468.025 30.9089 468.068 31.2247 468.19 31.5339L468.189 31.5341L468.193 31.5413C468.357 31.8136 468.603 32.049 468.932 32.1669L468.932 32.1669L468.934 32.1674C469.054 32.2056 469.219 32.2453 469.345 32.2453C469.631 32.2453 469.878 32.1772 470.081 32.0435C470.284 31.9097 470.438 31.7123 470.54 31.4587L470.541 31.458L473.234 24.4716L473.234 24.4715L474.779 20.4309L474.779 20.4307L478.099 11.8654L482.092 22.1681L482.092 22.1681L483.637 26.1333L483.637 26.1334L485.696 31.4581L485.697 31.4587C485.799 31.7123 485.953 31.9097 486.156 32.0435C486.359 32.1772 486.606 32.2453 486.892 32.2453C487.03 32.2453 487.14 32.2177 487.263 32.1872C487.287 32.181 487.313 32.1747 487.339 32.1684L487.339 32.1687L487.344 32.1669C487.67 32.0503 487.921 31.8534 488.047 31.5353C488.21 31.1851 488.211 30.8686 488.086 30.59C485.156 23.0188 482.958 17.3451 481.492 13.5641C480.759 11.6736 480.21 10.2562 479.844 9.31151L479.431 8.24887L479.328 7.98327L479.303 7.91688L479.296 7.90028L479.294 7.89613L479.294 7.8951L479.294 7.89484L479.247 7.91284Z" fill="#323433" stroke="#323433" stroke-width="0.1"/>
<path d="M513.406 24.3375C515.873 23.9482 517.927 22.9671 519.612 21.3935C521.319 19.799 522.175 17.9357 522.175 15.8056C522.175 13.4095 521.129 11.3564 518.996 9.68647C516.91 7.979 514.352 7.14531 511.37 7.14531H503.587C503.153 7.14531 502.811 7.26171 502.518 7.49616C502.226 7.73012 502.075 8.00786 502.075 8.32824V31.0246C502.075 31.3818 502.225 31.6598 502.518 31.8945C502.812 32.1293 503.201 32.2453 503.587 32.2453C504.018 32.2453 504.362 32.1311 504.564 31.9305C504.857 31.6954 505.005 31.38 505.005 31.0624V24.5036H509.745L516.617 31.7763C516.617 31.7764 516.617 31.7764 516.617 31.7764L516.617 31.7765L513.406 24.3375ZM513.406 24.3375L519.001 30.3107L519.002 30.3116L519.002 30.3116C519.246 30.5854 519.347 30.8641 519.297 31.2203L519.297 31.2212C519.247 31.5403 519.048 31.8165 518.708 32.0115L513.406 24.3375ZM511.37 22.0622H505.1V9.54893H511.37C513.576 9.54893 515.405 10.1874 516.952 11.3884C518.452 12.6265 519.198 14.0857 519.198 15.8056C519.198 17.5255 518.451 18.9848 516.952 20.223C515.405 21.461 513.53 22.0622 511.37 22.0622Z" fill="#323433" stroke="#323433" stroke-width="0.1"/>
<path d="M123.013 60.68H116.653L115.433 64H113.953L119.053 50.2H120.633L125.713 64H124.233L123.013 60.68ZM122.593 59.52L119.833 51.96L117.073 59.52H122.593ZM142.388 54.04C142.388 55.24 141.994 56.2067 141.208 56.94C140.421 57.6733 139.241 58.04 137.668 58.04H134.848V64H133.448V50.02H137.668C139.228 50.02 140.401 50.3867 141.188 51.12C141.988 51.8533 142.388 52.8267 142.388 54.04ZM137.668 56.84C139.854 56.84 140.948 55.9067 140.948 54.04C140.948 53.1067 140.688 52.4 140.168 51.92C139.648 51.44 138.814 51.2 137.668 51.2H134.848V56.84H137.668ZM154.197 53.08V64H152.797V62.08C152.477 62.76 151.983 63.28 151.317 63.64C150.65 64 149.903 64.18 149.077 64.18C147.77 64.18 146.703 63.78 145.877 62.98C145.05 62.1667 144.637 60.9933 144.637 59.46V53.08H146.017V59.3C146.017 60.4867 146.31 61.3933 146.897 62.02C147.497 62.6467 148.31 62.96 149.337 62.96C150.39 62.96 151.23 62.6267 151.857 61.96C152.483 61.2933 152.797 60.3133 152.797 59.02V53.08H154.197ZM158.793 55.02C159.1 54.34 159.566 53.8133 160.193 53.44C160.833 53.0667 161.613 52.88 162.533 52.88V54.34H162.153C161.14 54.34 160.326 54.6133 159.713 55.16C159.1 55.7067 158.793 56.62 158.793 57.9V64H157.393V53.08H158.793V55.02ZM166.019 55.48C166.366 54.7467 166.912 54.14 167.659 53.66C168.419 53.1667 169.319 52.92 170.359 52.92C171.346 52.92 172.232 53.1533 173.019 53.62C173.819 54.0733 174.439 54.7267 174.879 55.58C175.332 56.42 175.559 57.4 175.559 58.52C175.559 59.64 175.332 60.6267 174.879 61.48C174.439 62.3333 173.819 62.9933 173.019 63.46C172.232 63.9267 171.346 64.16 170.359 64.16C169.332 64.16 168.439 63.92 167.679 63.44C166.919 62.9467 166.366 62.3333 166.019 61.6V69.16H164.639V53.08H166.019V55.48ZM174.139 58.52C174.139 57.6133 173.959 56.8333 173.599 56.18C173.252 55.5133 172.772 55.0067 172.159 54.66C171.546 54.3133 170.852 54.14 170.079 54.14C169.332 54.14 168.646 54.32 168.019 54.68C167.406 55.04 166.919 55.5533 166.559 56.22C166.199 56.8867 166.019 57.66 166.019 58.54C166.019 59.42 166.199 60.1933 166.559 60.86C166.919 61.5267 167.406 62.04 168.019 62.4C168.646 62.76 169.332 62.94 170.079 62.94C170.852 62.94 171.546 62.7667 172.159 62.42C172.772 62.06 173.252 61.5467 173.599 60.88C173.959 60.2 174.139 59.4133 174.139 58.52ZM182.915 64.16C181.888 64.16 180.962 63.9333 180.135 63.48C179.322 63.0133 178.675 62.36 178.195 61.52C177.728 60.6667 177.495 59.6733 177.495 58.54C177.495 57.4067 177.735 56.42 178.215 55.58C178.695 54.7267 179.348 54.0733 180.175 53.62C181.002 53.1533 181.928 52.92 182.955 52.92C183.982 52.92 184.908 53.1533 185.735 53.62C186.575 54.0733 187.228 54.7267 187.695 55.58C188.175 56.42 188.415 57.4067 188.415 58.54C188.415 59.66 188.175 60.6467 187.695 61.5C187.215 62.3533 186.555 63.0133 185.715 63.48C184.875 63.9333 183.942 64.16 182.915 64.16ZM182.915 62.94C183.635 62.94 184.302 62.78 184.915 62.46C185.528 62.1267 186.022 61.6333 186.395 60.98C186.782 60.3133 186.975 59.5 186.975 58.54C186.975 57.58 186.788 56.7733 186.415 56.12C186.042 55.4533 185.548 54.96 184.935 54.64C184.322 54.3067 183.655 54.14 182.935 54.14C182.215 54.14 181.548 54.3067 180.935 54.64C180.322 54.96 179.828 55.4533 179.455 56.12C179.095 56.7733 178.915 57.58 178.915 58.54C178.915 59.5 179.095 60.3133 179.455 60.98C179.828 61.6333 180.315 62.1267 180.915 62.46C181.528 62.78 182.195 62.94 182.915 62.94ZM194.727 64.16C193.474 64.16 192.447 63.8733 191.647 63.3C190.861 62.7133 190.421 61.92 190.327 60.92H191.767C191.834 61.5333 192.121 62.0333 192.627 62.42C193.147 62.7933 193.841 62.98 194.707 62.98C195.467 62.98 196.061 62.8 196.487 62.44C196.927 62.08 197.147 61.6333 197.147 61.1C197.147 60.7267 197.027 60.42 196.787 60.18C196.547 59.94 196.241 59.7533 195.867 59.62C195.507 59.4733 195.014 59.32 194.387 59.16C193.574 58.9467 192.914 58.7333 192.407 58.52C191.901 58.3067 191.467 57.9933 191.107 57.58C190.761 57.1533 190.587 56.5867 190.587 55.88C190.587 55.3467 190.747 54.8533 191.067 54.4C191.387 53.9467 191.841 53.5867 192.427 53.32C193.014 53.0533 193.681 52.92 194.427 52.92C195.601 52.92 196.547 53.22 197.267 53.82C197.987 54.4067 198.374 55.22 198.427 56.26H197.027C196.987 55.62 196.734 55.1067 196.267 54.72C195.814 54.32 195.187 54.12 194.387 54.12C193.681 54.12 193.107 54.2867 192.667 54.62C192.227 54.9533 192.007 55.3667 192.007 55.86C192.007 56.2867 192.134 56.64 192.387 56.92C192.654 57.1867 192.981 57.4 193.367 57.56C193.754 57.7067 194.274 57.8733 194.927 58.06C195.714 58.2733 196.341 58.48 196.807 58.68C197.274 58.88 197.674 59.1733 198.007 59.56C198.341 59.9467 198.514 60.46 198.527 61.1C198.527 61.6867 198.367 62.2133 198.047 62.68C197.727 63.1333 197.281 63.4933 196.707 63.76C196.134 64.0267 195.474 64.16 194.727 64.16ZM211.043 57.98C211.043 58.46 211.029 58.8267 211.003 59.08H201.943C201.983 59.9067 202.183 60.6133 202.543 61.2C202.903 61.7867 203.376 62.2333 203.963 62.54C204.549 62.8333 205.189 62.98 205.883 62.98C206.789 62.98 207.549 62.76 208.163 62.32C208.789 61.88 209.203 61.2867 209.403 60.54H210.883C210.616 61.6067 210.043 62.48 209.163 63.16C208.296 63.8267 207.203 64.16 205.883 64.16C204.856 64.16 203.936 63.9333 203.123 63.48C202.309 63.0133 201.669 62.36 201.203 61.52C200.749 60.6667 200.523 59.6733 200.523 58.54C200.523 57.4067 200.749 56.4133 201.203 55.56C201.656 54.7067 202.289 54.0533 203.103 53.6C203.916 53.1467 204.843 52.92 205.883 52.92C206.923 52.92 207.829 53.1467 208.603 53.6C209.389 54.0533 209.989 54.6667 210.403 55.44C210.829 56.2 211.043 57.0467 211.043 57.98ZM209.623 57.94C209.636 57.1267 209.469 56.4333 209.123 55.86C208.789 55.2867 208.329 54.8533 207.743 54.56C207.156 54.2667 206.516 54.12 205.823 54.12C204.783 54.12 203.896 54.4533 203.163 55.12C202.429 55.7867 202.023 56.7267 201.943 57.94H209.623ZM220.384 56V57.18H212.604V56H220.384ZM225.375 62.86H230.395V64H223.975V50.02H225.375V62.86ZM242.273 57.98C242.273 58.46 242.26 58.8267 242.233 59.08H233.173C233.213 59.9067 233.413 60.6133 233.773 61.2C234.133 61.7867 234.606 62.2333 235.193 62.54C235.78 62.8333 236.42 62.98 237.113 62.98C238.02 62.98 238.78 62.76 239.393 62.32C240.02 61.88 240.433 61.2867 240.633 60.54H242.113C241.846 61.6067 241.273 62.48 240.393 63.16C239.526 63.8267 238.433 64.16 237.113 64.16C236.086 64.16 235.166 63.9333 234.353 63.48C233.54 63.0133 232.9 62.36 232.433 61.52C231.98 60.6667 231.753 59.6733 231.753 58.54C231.753 57.4067 231.98 56.4133 232.433 55.56C232.886 54.7067 233.52 54.0533 234.333 53.6C235.146 53.1467 236.073 52.92 237.113 52.92C238.153 52.92 239.06 53.1467 239.833 53.6C240.62 54.0533 241.22 54.6667 241.633 55.44C242.06 56.2 242.273 57.0467 242.273 57.98ZM240.853 57.94C240.866 57.1267 240.7 56.4333 240.353 55.86C240.02 55.2867 239.56 54.8533 238.973 54.56C238.386 54.2667 237.746 54.12 237.053 54.12C236.013 54.12 235.126 54.4533 234.393 55.12C233.66 55.7867 233.253 56.7267 233.173 57.94H240.853ZM244.194 58.52C244.194 57.4 244.421 56.42 244.874 55.58C245.328 54.7267 245.948 54.0733 246.734 53.62C247.534 53.1533 248.434 52.92 249.434 52.92C250.394 52.92 251.261 53.1533 252.034 53.62C252.808 54.0867 253.374 54.6933 253.734 55.44V49.2H255.134V64H253.734V61.56C253.401 62.32 252.854 62.9467 252.094 63.44C251.334 63.92 250.441 64.16 249.414 64.16C248.414 64.16 247.514 63.9267 246.714 63.46C245.928 62.9933 245.308 62.3333 244.854 61.48C244.414 60.6267 244.194 59.64 244.194 58.52ZM253.734 58.54C253.734 57.66 253.554 56.8867 253.194 56.22C252.834 55.5533 252.341 55.04 251.714 54.68C251.101 54.32 250.421 54.14 249.674 54.14C248.901 54.14 248.208 54.3133 247.594 54.66C246.981 55.0067 246.494 55.5133 246.134 56.18C245.788 56.8333 245.614 57.6133 245.614 58.52C245.614 59.4133 245.788 60.2 246.134 60.88C246.494 61.5467 246.981 62.06 247.594 62.42C248.208 62.7667 248.901 62.94 249.674 62.94C250.421 62.94 251.101 62.76 251.714 62.4C252.341 62.04 252.834 61.5267 253.194 60.86C253.554 60.1933 253.734 59.42 253.734 58.54ZM277.479 50.2V64H276.079V52.98L271.159 64H270.139L265.219 53.02V64H263.819V50.2H265.299L270.639 62.16L275.979 50.2H277.479ZM280.015 58.52C280.015 57.4 280.235 56.42 280.675 55.58C281.128 54.7267 281.748 54.0733 282.535 53.62C283.335 53.1533 284.235 52.92 285.235 52.92C286.275 52.92 287.168 53.16 287.915 53.64C288.675 54.12 289.221 54.7333 289.555 55.48V53.08H290.955V64H289.555V61.58C289.208 62.3267 288.655 62.9467 287.895 63.44C287.148 63.92 286.255 64.16 285.215 64.16C284.228 64.16 283.335 63.9267 282.535 63.46C281.748 62.9933 281.128 62.3333 280.675 61.48C280.235 60.6267 280.015 59.64 280.015 58.52ZM289.555 58.54C289.555 57.66 289.375 56.8867 289.015 56.22C288.655 55.5533 288.161 55.04 287.535 54.68C286.921 54.32 286.241 54.14 285.495 54.14C284.721 54.14 284.028 54.3133 283.415 54.66C282.801 55.0067 282.315 55.5133 281.955 56.18C281.608 56.8333 281.435 57.6133 281.435 58.52C281.435 59.4133 281.608 60.2 281.955 60.88C282.315 61.5467 282.801 62.06 283.415 62.42C284.028 62.7667 284.721 62.94 285.495 62.94C286.241 62.94 286.921 62.76 287.535 62.4C288.161 62.04 288.655 61.5267 289.015 60.86C289.375 60.1933 289.555 59.42 289.555 58.54ZM295.551 55.02C295.857 54.34 296.324 53.8133 296.951 53.44C297.591 53.0667 298.371 52.88 299.291 52.88V54.34H298.911C297.897 54.34 297.084 54.6133 296.471 55.16C295.857 55.7067 295.551 56.62 295.551 57.9V64H294.151V53.08H295.551V55.02ZM307.297 64L302.797 59.1V64H301.397V49.2H302.797V57.96L307.197 53.08H309.157L303.977 58.52L309.197 64H307.297ZM320.886 57.98C320.886 58.46 320.873 58.8267 320.846 59.08H311.786C311.826 59.9067 312.026 60.6133 312.386 61.2C312.746 61.7867 313.22 62.2333 313.806 62.54C314.393 62.8333 315.033 62.98 315.726 62.98C316.633 62.98 317.393 62.76 318.006 62.32C318.633 61.88 319.046 61.2867 319.246 60.54H320.726C320.46 61.6067 319.886 62.48 319.006 63.16C318.14 63.8267 317.046 64.16 315.726 64.16C314.7 64.16 313.78 63.9333 312.966 63.48C312.153 63.0133 311.513 62.36 311.046 61.52C310.593 60.6667 310.366 59.6733 310.366 58.54C310.366 57.4067 310.593 56.4133 311.046 55.56C311.5 54.7067 312.133 54.0533 312.946 53.6C313.76 53.1467 314.686 52.92 315.726 52.92C316.766 52.92 317.673 53.1467 318.446 53.6C319.233 54.0533 319.833 54.6667 320.246 55.44C320.673 56.2 320.886 57.0467 320.886 57.98ZM319.466 57.94C319.48 57.1267 319.313 56.4333 318.966 55.86C318.633 55.2867 318.173 54.8533 317.586 54.56C317 54.2667 316.36 54.12 315.666 54.12C314.626 54.12 313.74 54.4533 313.006 55.12C312.273 55.7867 311.866 56.7267 311.786 57.94H319.466ZM325.268 54.26V61.04C325.268 61.7067 325.394 62.1667 325.648 62.42C325.901 62.6733 326.348 62.8 326.988 62.8H328.268V64H326.768C325.781 64 325.048 63.7733 324.568 63.32C324.088 62.8533 323.848 62.0933 323.848 61.04V54.26H322.328V53.08H323.848V50.34H325.268V53.08H328.268V54.26H325.268ZM331.957 55.48C332.303 54.7467 332.85 54.14 333.597 53.66C334.357 53.1667 335.257 52.92 336.297 52.92C337.283 52.92 338.17 53.1533 338.957 53.62C339.757 54.0733 340.377 54.7267 340.817 55.58C341.27 56.42 341.497 57.4 341.497 58.52C341.497 59.64 341.27 60.6267 340.817 61.48C340.377 62.3333 339.757 62.9933 338.957 63.46C338.17 63.9267 337.283 64.16 336.297 64.16C335.27 64.16 334.377 63.92 333.617 63.44C332.857 62.9467 332.303 62.3333 331.957 61.6V69.16H330.577V53.08H331.957V55.48ZM340.077 58.52C340.077 57.6133 339.897 56.8333 339.537 56.18C339.19 55.5133 338.71 55.0067 338.097 54.66C337.483 54.3133 336.79 54.14 336.017 54.14C335.27 54.14 334.583 54.32 333.957 54.68C333.343 55.04 332.857 55.5533 332.497 56.22C332.137 56.8867 331.957 57.66 331.957 58.54C331.957 59.42 332.137 60.1933 332.497 60.86C332.857 61.5267 333.343 62.04 333.957 62.4C334.583 62.76 335.27 62.94 336.017 62.94C336.79 62.94 337.483 62.7667 338.097 62.42C338.71 62.06 339.19 61.5467 339.537 60.88C339.897 60.2 340.077 59.4133 340.077 58.52ZM345.473 49.2V64H344.073V49.2H345.473ZM348.003 58.52C348.003 57.4 348.223 56.42 348.663 55.58C349.116 54.7267 349.736 54.0733 350.523 53.62C351.323 53.1533 352.223 52.92 353.223 52.92C354.263 52.92 355.156 53.16 355.903 53.64C356.663 54.12 357.21 54.7333 357.543 55.48V53.08H358.943V64H357.543V61.58C357.196 62.3267 356.643 62.9467 355.883 63.44C355.136 63.92 354.243 64.16 353.203 64.16C352.216 64.16 351.323 63.9267 350.523 63.46C349.736 62.9933 349.116 62.3333 348.663 61.48C348.223 60.6267 348.003 59.64 348.003 58.52ZM357.543 58.54C357.543 57.66 357.363 56.8867 357.003 56.22C356.643 55.5533 356.15 55.04 355.523 54.68C354.91 54.32 354.23 54.14 353.483 54.14C352.71 54.14 352.016 54.3133 351.403 54.66C350.79 55.0067 350.303 55.5133 349.943 56.18C349.596 56.8333 349.423 57.6133 349.423 58.52C349.423 59.4133 349.596 60.2 349.943 60.88C350.303 61.5467 350.79 62.06 351.403 62.42C352.016 62.7667 352.71 62.94 353.483 62.94C354.23 62.94 354.91 62.76 355.523 62.4C356.15 62.04 356.643 61.5267 357.003 60.86C357.363 60.1933 357.543 59.42 357.543 58.54ZM361.499 58.54C361.499 57.4067 361.726 56.42 362.179 55.58C362.632 54.7267 363.259 54.0733 364.059 53.62C364.859 53.1533 365.772 52.92 366.799 52.92C368.146 52.92 369.252 53.2533 370.119 53.92C370.999 54.5867 371.566 55.4933 371.819 56.64H370.319C370.132 55.8533 369.726 55.24 369.099 54.8C368.486 54.3467 367.719 54.12 366.799 54.12C366.066 54.12 365.406 54.2867 364.819 54.62C364.232 54.9533 363.766 55.4533 363.419 56.12C363.086 56.7733 362.919 57.58 362.919 58.54C362.919 59.5 363.086 60.3133 363.419 60.98C363.766 61.6467 364.232 62.1467 364.819 62.48C365.406 62.8133 366.066 62.98 366.799 62.98C367.719 62.98 368.486 62.76 369.099 62.32C369.726 61.8667 370.132 61.24 370.319 60.44H371.819C371.566 61.56 370.999 62.46 370.119 63.14C369.239 63.82 368.132 64.16 366.799 64.16C365.772 64.16 364.859 63.9333 364.059 63.48C363.259 63.0133 362.632 62.36 362.179 61.52C361.726 60.6667 361.499 59.6733 361.499 58.54ZM384.285 57.98C384.285 58.46 384.271 58.8267 384.245 59.08H375.185C375.225 59.9067 375.425 60.6133 375.785 61.2C376.145 61.7867 376.618 62.2333 377.205 62.54C377.791 62.8333 378.431 62.98 379.125 62.98C380.031 62.98 380.791 62.76 381.405 62.32C382.031 61.88 382.445 61.2867 382.645 60.54H384.125C383.858 61.6067 383.285 62.48 382.405 63.16C381.538 63.8267 380.445 64.16 379.125 64.16C378.098 64.16 377.178 63.9333 376.365 63.48C375.551 63.0133 374.911 62.36 374.445 61.52C373.991 60.6667 373.765 59.6733 373.765 58.54C373.765 57.4067 373.991 56.4133 374.445 55.56C374.898 54.7067 375.531 54.0533 376.345 53.6C377.158 53.1467 378.085 52.92 379.125 52.92C380.165 52.92 381.071 53.1467 381.845 53.6C382.631 54.0533 383.231 54.6667 383.645 55.44C384.071 56.2 384.285 57.0467 384.285 57.98ZM382.865 57.94C382.878 57.1267 382.711 56.4333 382.365 55.86C382.031 55.2867 381.571 54.8533 380.985 54.56C380.398 54.2667 379.758 54.12 379.065 54.12C378.025 54.12 377.138 54.4533 376.405 55.12C375.671 55.7867 375.265 56.7267 375.185 57.94H382.865ZM396.634 54.26H394.094V64H392.694V54.26H391.174V53.08H392.694V52.32C392.694 51.1333 392.994 50.26 393.594 49.7C394.208 49.14 395.194 48.86 396.554 48.86V50.06C395.648 50.06 395.008 50.2333 394.634 50.58C394.274 50.9267 394.094 51.5067 394.094 52.32V53.08H396.634V54.26ZM403.618 64.16C402.592 64.16 401.665 63.9333 400.838 63.48C400.025 63.0133 399.378 62.36 398.898 61.52C398.432 60.6667 398.198 59.6733 398.198 58.54C398.198 57.4067 398.438 56.42 398.918 55.58C399.398 54.7267 400.052 54.0733 400.878 53.62C401.705 53.1533 402.632 52.92 403.658 52.92C404.685 52.92 405.612 53.1533 406.438 53.62C407.278 54.0733 407.932 54.7267 408.398 55.58C408.878 56.42 409.118 57.4067 409.118 58.54C409.118 59.66 408.878 60.6467 408.398 61.5C407.918 62.3533 407.258 63.0133 406.418 63.48C405.578 63.9333 404.645 64.16 403.618 64.16ZM403.618 62.94C404.338 62.94 405.005 62.78 405.618 62.46C406.232 62.1267 406.725 61.6333 407.098 60.98C407.485 60.3133 407.678 59.5 407.678 58.54C407.678 57.58 407.492 56.7733 407.118 56.12C406.745 55.4533 406.252 54.96 405.638 54.64C405.025 54.3067 404.358 54.14 403.638 54.14C402.918 54.14 402.252 54.3067 401.638 54.64C401.025 54.96 400.532 55.4533 400.158 56.12C399.798 56.7733 399.618 57.58 399.618 58.54C399.618 59.5 399.798 60.3133 400.158 60.98C400.532 61.6333 401.018 62.1267 401.618 62.46C402.232 62.78 402.898 62.94 403.618 62.94ZM413.07 55.02C413.377 54.34 413.844 53.8133 414.47 53.44C415.11 53.0667 415.89 52.88 416.81 52.88V54.34H416.43C415.417 54.34 414.604 54.6133 413.99 55.16C413.377 55.7067 413.07 56.62 413.07 57.9V64H411.67V53.08H413.07V55.02ZM433.645 50.02L429.165 58.56V64H427.765V58.56L423.245 50.02H424.825L428.465 57.28L432.085 50.02H433.645ZM435.054 58.52C435.054 57.4 435.274 56.42 435.714 55.58C436.167 54.7267 436.787 54.0733 437.574 53.62C438.374 53.1533 439.274 52.92 440.274 52.92C441.314 52.92 442.207 53.16 442.954 53.64C443.714 54.12 444.26 54.7333 444.594 55.48V53.08H445.994V64H444.594V61.58C444.247 62.3267 443.694 62.9467 442.934 63.44C442.187 63.92 441.294 64.16 440.254 64.16C439.267 64.16 438.374 63.9267 437.574 63.46C436.787 62.9933 436.167 62.3333 435.714 61.48C435.274 60.6267 435.054 59.64 435.054 58.52ZM444.594 58.54C444.594 57.66 444.414 56.8867 444.054 56.22C443.694 55.5533 443.2 55.04 442.574 54.68C441.96 54.32 441.28 54.14 440.534 54.14C439.76 54.14 439.067 54.3133 438.454 54.66C437.84 55.0067 437.354 55.5133 436.994 56.18C436.647 56.8333 436.474 57.6133 436.474 58.52C436.474 59.4133 436.647 60.2 436.994 60.88C437.354 61.5467 437.84 62.06 438.454 62.42C439.067 62.7667 439.76 62.94 440.534 62.94C441.28 62.94 441.96 62.76 442.574 62.4C443.2 62.04 443.694 61.5267 444.054 60.86C444.414 60.1933 444.594 59.42 444.594 58.54ZM450.59 55.02C450.897 54.34 451.363 53.8133 451.99 53.44C452.63 53.0667 453.41 52.88 454.33 52.88V54.34H453.95C452.937 54.34 452.123 54.6133 451.51 55.16C450.897 55.7067 450.59 56.62 450.59 57.9V64H449.19V53.08H450.59V55.02ZM461.556 52.88C462.863 52.88 463.929 53.2867 464.756 54.1C465.583 54.9 465.996 56.0667 465.996 57.6V64H464.616V57.76C464.616 56.5733 464.316 55.6667 463.716 55.04C463.129 54.4133 462.323 54.1 461.296 54.1C460.243 54.1 459.403 54.4333 458.776 55.1C458.149 55.7667 457.836 56.7467 457.836 58.04V64H456.436V53.08H457.836V54.94C458.183 54.2733 458.683 53.7667 459.336 53.42C459.989 53.06 460.729 52.88 461.556 52.88Z" fill="#A33B35"/>
<path fill-rule="evenodd" clip-rule="evenodd" d="M50.4735 47.3685L38.1174 59.219L0.943359 23.6674V0L50.4735 47.3685Z" fill="#ED5C4E"/>
<path fill-rule="evenodd" clip-rule="evenodd" d="M1.5418 0.576748L0.943359 0.0380859V0.273751C1.11937 0.341084 1.36579 0.475749 1.5418 0.576748Z" fill="#A33B35"/>
<path fill-rule="evenodd" clip-rule="evenodd" d="M17.5562 15.9257L16.8169 15.2188C16.4649 15.3871 16.2185 15.5554 15.8664 15.7237C11.2901 17.9794 6.4673 19.427 1.36291 20.1677C1.2221 20.2014 1.04608 20.2014 0.905273 20.2014V21.144C2.45419 20.942 4.07352 20.6727 5.62244 20.336C9.88197 19.3934 13.8247 17.912 17.5562 15.9257Z" fill="#A33B35"/>
<path fill-rule="evenodd" clip-rule="evenodd" d="M10.5557 9.22325L9.85169 8.54992C9.53487 8.71825 9.21804 8.88658 8.90122 9.05492C8.86601 9.02125 8.83081 8.98758 8.79561 8.95392C8.90122 8.54992 8.97162 8.21326 9.07723 7.84293L8.23237 7.03494C8.02115 7.8766 7.80993 8.61725 7.49311 9.42524C7.4227 9.55991 7.4227 9.69457 7.21149 9.76191C6.54264 9.9639 5.94419 10.3342 5.16973 10.4689C5.76818 8.75192 6.085 7.06861 6.33142 5.2843L5.41615 4.40897C5.16973 6.49628 4.7825 8.54992 4.04324 10.5362C3.93764 10.8392 3.79683 11.0076 3.48 11.0749C2.95196 11.2096 2.42392 11.3779 1.71987 11.5462C2.74074 8.51625 3.12797 5.55363 3.33919 2.42266L2.38872 1.51367C2.38872 1.581 2.38872 1.682 2.38872 1.71567C2.2127 4.34164 1.96628 6.79928 1.33263 9.35791C1.22703 9.79557 1.01581 10.2332 0.875 10.6709V12.7582C2.1775 12.4552 3.5152 12.1185 4.7825 11.6809C6.85946 10.9739 8.69 10.1322 10.5557 9.22325Z" fill="#A33B35"/>
<path fill-rule="evenodd" clip-rule="evenodd" d="M0.943359 14.5811V15.4901C2.91471 15.1198 4.95647 14.6148 6.89262 13.9751C8.96958 13.2681 10.9409 12.4601 12.8771 11.4502L12.1378 10.7432C10.7649 11.4502 9.42721 12.0561 7.9839 12.5948C5.73093 13.4365 3.33714 14.0761 0.943359 14.5811Z" fill="#A33B35"/>
<path fill-rule="evenodd" clip-rule="evenodd" d="M0.943359 17.34V18.2826C1.11937 18.249 1.36579 18.249 1.57701 18.2153C5.3437 17.5756 8.96957 16.4983 12.4546 14.9833C13.4051 14.5457 14.2852 14.108 15.2004 13.6367L14.4612 12.9297C12.6307 13.906 10.8001 14.714 8.82876 15.3873C6.25896 16.2626 3.58356 16.9023 0.943359 17.34Z" fill="#A33B35"/>
<path fill-rule="evenodd" clip-rule="evenodd" d="M25.8992 26.9665C22.6253 26.8319 17.697 26.4952 14.4583 26.1922C14.1063 26.1586 13.8951 26.0912 13.8599 25.6872C13.8599 25.2496 13.4022 24.6772 13.7191 24.4079C13.9303 24.2059 14.5991 24.4079 15.0568 24.4752C19.1403 24.8792 21.6749 25.0812 25.7584 25.1822V24.2059C23.7518 24.1386 22.2381 24.0712 20.1964 23.9366C18.0842 23.8019 16.0072 23.5663 13.9303 23.3979C13.5078 23.3643 13.2614 23.1959 13.1558 22.7919C13.0854 22.4889 13.0502 22.1523 12.9094 21.8829C12.663 21.3443 12.9446 21.3443 13.367 21.3779C16.9577 21.7819 20.5484 22.0513 24.1391 22.1859L23.0478 21.1423C20.4428 21.0076 17.8378 20.8393 15.2328 20.5363C16.3593 19.9976 17.521 19.459 18.6474 18.954C18.9995 18.8193 19.3515 18.9203 19.6683 18.954C20.0555 18.9876 20.4428 19.0213 20.8652 19.0213L19.2459 17.4727C16.1128 19.156 12.839 20.469 9.38913 21.4453C6.60811 22.2196 3.7919 22.7583 0.905273 23.0949V23.5999L1.36291 24.0376C1.39811 24.0376 1.43331 24.0039 1.50372 23.9702C1.99656 23.9366 2.4894 23.8692 2.98223 23.7682C3.33426 23.7009 3.36946 23.8356 3.40467 24.1049C3.47507 24.7782 3.54548 25.4516 3.58068 26.1249L4.67196 27.1685C4.56636 26.0912 4.49595 24.9802 4.35514 23.9029C4.31994 23.6336 4.42554 23.4989 4.70717 23.4316C5.2 23.3306 5.69284 23.2633 6.18568 23.1286C6.53771 23.0613 6.60811 23.1959 6.64332 23.4989C6.81933 25.4852 6.99534 27.4715 7.10095 29.4578L8.19223 30.5015C8.19223 30.3668 8.19223 30.2322 8.19223 30.1312C8.12183 27.9092 7.91061 25.6872 7.66419 23.4653C7.62899 23.0613 7.66419 22.8256 8.19223 22.6909C9.42433 22.3879 9.42433 22.3543 9.60034 23.4989C10.0932 26.5625 10.3748 29.6262 10.4804 32.6898L11.4661 33.6661C11.3957 30.7035 11.2197 27.7409 10.7972 24.8119C10.6916 24.1049 10.6212 23.3979 10.4804 22.6909C10.41 22.2869 10.4804 22.0513 10.938 21.9839C11.0789 21.9503 11.2197 21.9166 11.3253 21.8829C11.7125 21.7146 11.8533 21.7819 11.9941 22.2196C12.6982 24.6772 13.1558 27.1685 13.4374 29.6598C13.6487 31.7135 13.7543 33.7671 13.7543 35.8208L15.9016 37.8744C19.4923 38.5141 22.2381 38.9181 25.864 39.1201M16.2537 36.5951C16.2184 36.8981 16.1128 37.0328 15.7608 36.9318C15.5848 36.8981 15.3736 36.8644 15.1976 36.8308C14.8455 36.7971 14.7047 36.6288 14.7399 36.2584C14.8103 33.3295 14.6343 30.4342 14.1767 27.5389C14.1063 27.1685 14.2119 27.0675 14.5639 27.1012C14.916 27.1685 15.3032 27.1685 15.6552 27.2359C15.7608 27.2359 15.8312 27.3032 15.9368 27.3032C15.972 27.4042 15.972 27.5052 16.0072 27.6062C16.6409 30.6025 16.6409 33.5988 16.2537 36.5951ZM19.2811 36.8981C19.2107 37.4368 18.9995 37.5041 18.5066 37.4031C17.1689 37.1674 17.1689 37.1674 17.3097 35.9218C17.6618 33.1611 17.5562 30.4005 17.0281 27.6735C17.0281 27.6062 16.9929 27.5389 16.9929 27.4042C17.5914 27.4379 18.1194 27.5052 18.6474 27.5052C18.9291 27.5052 19.0347 27.6399 19.1051 27.9092C19.7035 30.9392 19.7739 33.9018 19.2811 36.8981ZM22.2733 37.5378C22.2733 37.6388 22.2381 37.7061 22.2381 37.8071C22.1325 37.8071 22.0269 37.8407 21.9565 37.8071C21.7805 37.8071 21.5693 37.7734 21.3932 37.7397C20.2668 37.5714 20.2316 37.5714 20.4076 36.5278C20.83 33.6998 20.7596 30.9055 20.2316 28.1112C20.1612 27.7072 20.2316 27.6399 20.654 27.6735C22.2381 27.7745 22.2381 27.7745 22.4845 29.2558C22.8366 32.0165 22.8014 34.7771 22.2733 37.5378ZM25.4416 37.3358C25.4064 37.5714 25.3007 37.7734 25.2303 37.9417C25.0895 38.1101 24.9839 38.1101 24.8783 38.1101C24.7023 38.1101 24.5263 38.0764 24.3503 38.0427C23.259 37.9081 23.259 37.9081 23.435 36.8981C23.8926 34.0701 23.8574 31.2422 23.3294 28.4142C23.2238 27.8755 23.3998 27.7745 23.8574 27.8755C24.3151 27.9765 24.9487 27.7072 25.2303 28.0775C25.4768 28.3805 25.4416 28.9192 25.512 29.3568C25.9344 32.0165 25.8288 34.6761 25.4416 37.3358Z" fill="#A33B35"/>
<path fill-rule="evenodd" clip-rule="evenodd" d="M37.412 40.6027C37.236 40.8047 36.6024 40.8047 36.3559 40.8384C30.3715 41.3097 24.4222 41.1077 18.5082 40.2661C18.4026 40.2661 18.3322 40.2324 18.2266 40.2324L19.3882 41.3434C24.387 41.9831 29.421 42.2524 34.455 41.9494C34.807 41.9157 35.1943 41.9157 35.5463 41.9157C35.5815 41.9157 35.6167 41.9494 35.8279 42.0504C35.2647 42.6227 34.7014 43.0941 34.2086 43.6327C34.0326 43.801 33.8565 43.7674 33.6805 43.801C29.6322 44.003 25.5839 43.902 21.5708 43.4644L22.6621 44.508C23.859 44.609 25.0559 44.71 26.2528 44.7774C28.2241 44.8784 30.1955 44.8447 32.1668 44.811C32.378 44.811 32.5893 44.7437 32.8709 44.912C32.3076 45.4507 31.8148 45.922 31.2868 46.427C31.1107 46.5953 30.9347 46.5953 30.7235 46.5953C28.7522 46.629 26.7808 46.5617 24.7743 46.4607L25.8303 47.4707C25.9007 47.4707 25.9359 47.4707 26.0064 47.4707C27.2736 47.538 28.717 47.5717 30.1251 47.6053H29.9138C29.8786 47.6053 29.9491 47.6053 29.9138 47.6053" fill="#A33B35"/>
<path d="M50.4779 47.3657L38.1218 59.2162L25.7656 47.3994L38.157 35.5488L50.4779 47.3657Z" fill="#F8D53C"/>
<path d="M25.8008 71.0721L38.157 59.2553L25.7656 47.3711L25.8008 71.0721Z" fill="#F89E24"/>
<path d="M25.8008 47.3656L38.157 35.5488L25.7656 23.6982L25.8008 47.3656Z" fill="#F89E24"/>
<path d="M25.7666 23.7372L38.0876 11.8867L25.7314 0.0361328L25.7666 23.7372Z" fill="#F89E24"/>
<path d="M25.7656 23.7343L38.0866 11.8838L50.4779 23.768L38.157 35.5512L25.7656 23.7343Z" fill="#F8D53C"/>
</svg>
