<svg width="24" height="17" viewBox="0 0 24 17" fill="none" xmlns="http://www.w3.org/2000/svg">
<path d="M21.6405 0.197266H2.39502C1.26113 0.197266 0.342773 1.12132 0.342773 2.24951V14.563C0.342773 15.6979 1.26788 16.6152 2.39502 16.6152H21.6405C22.7649 16.6152 23.6928 15.7017 23.6928 14.563V2.24951C23.6928 1.12333 22.7781 0.197266 21.6405 0.197266ZM21.3531 1.56543C20.9338 1.98249 13.7181 9.16024 13.4689 9.40806C13.0813 9.7957 12.5659 10.0091 12.0178 10.0091C11.4696 10.0091 10.9543 9.79566 10.5653 9.40678C10.3978 9.24009 3.26166 2.14161 2.68242 1.56543H21.3531ZM1.71094 14.2845V2.52885L7.62314 8.4099L1.71094 14.2845ZM2.68329 15.2471L8.59317 9.37476L9.59918 10.3755C10.2452 11.0215 11.1042 11.3773 12.0178 11.3773C12.9314 11.3773 13.7903 11.0215 14.4351 10.3768L15.4424 9.37476L21.3522 15.2471H2.68329ZM22.3246 14.2845L16.4124 8.4099L22.3246 2.52885V14.2845Z" fill="#FD5B2F"/>
</svg>
