<svg width="24" height="23" viewBox="0 0 24 23" fill="none" xmlns="http://www.w3.org/2000/svg">
<path d="M18.5477 14.1956C18.0851 13.7139 17.5271 13.4563 16.9357 13.4563C16.349 13.4563 15.7863 13.7091 15.3046 14.1908L13.7975 15.6932C13.6735 15.6264 13.5494 15.5644 13.4302 15.5024C13.2585 15.4165 13.0964 15.3355 12.958 15.2496C11.5463 14.353 10.2634 13.1845 9.03289 11.6726C8.43672 10.9191 8.03609 10.2847 7.74517 9.64088C8.13625 9.28318 8.49872 8.91117 8.85165 8.55347C8.98519 8.41993 9.11874 8.28162 9.25228 8.14808C10.2538 7.14652 10.2538 5.84926 9.25228 4.8477L7.95025 3.54567C7.8024 3.39782 7.64978 3.2452 7.5067 3.09258C7.22054 2.79688 6.92007 2.49165 6.61006 2.20549C6.14744 1.74763 5.59419 1.50439 5.01233 1.50439C4.43048 1.50439 3.8677 1.74763 3.39076 2.20549C3.38599 2.21026 3.38599 2.21026 3.38122 2.21502L1.75965 3.85091C1.14917 4.46138 0.801013 5.2054 0.724703 6.06865C0.610239 7.4613 1.0204 8.75855 1.33518 9.60749C2.10781 11.6917 3.26199 13.6233 4.98372 15.6932C7.07269 18.1875 9.58613 20.1573 12.4573 21.5451C13.5542 22.065 15.0184 22.6802 16.6543 22.7852C16.7544 22.7899 16.8594 22.7947 16.9547 22.7947C18.0565 22.7947 18.9817 22.3989 19.7067 21.6119C19.7114 21.6024 19.721 21.5976 19.7257 21.5881C19.9737 21.2876 20.2599 21.0157 20.5604 20.7248C20.7654 20.5293 20.9753 20.3242 21.1804 20.1096C21.6525 19.6183 21.9006 19.046 21.9006 18.4594C21.9006 17.868 21.6478 17.3004 21.1661 16.8235L18.5477 14.1956ZM20.2551 19.2177C20.2504 19.2177 20.2504 19.2225 20.2551 19.2177C20.0691 19.418 19.8784 19.5993 19.6733 19.7996C19.3633 20.0953 19.0485 20.4053 18.7528 20.7534C18.2711 21.2685 17.7035 21.5118 16.9595 21.5118C16.888 21.5118 16.8117 21.5118 16.7401 21.507C15.3236 21.4164 14.0073 20.8631 13.0201 20.391C10.3206 19.0842 7.95025 17.2289 5.98051 14.8776C4.35417 12.9174 3.26676 11.1051 2.54659 9.15918C2.10304 7.97161 1.94089 7.04636 2.01243 6.17357C2.06012 5.61556 2.27474 5.15294 2.67059 4.75708L4.29694 3.13074C4.53063 2.91135 4.77864 2.79211 5.02187 2.79211C5.32234 2.79211 5.56558 2.97335 5.7182 3.12597C5.72297 3.13074 5.72774 3.13551 5.73251 3.14028C6.02344 3.41213 6.30006 3.69352 6.59099 3.99399C6.73884 4.14661 6.89145 4.29923 7.04407 4.45661L8.3461 5.75864C8.85165 6.26419 8.85165 6.73159 8.3461 7.23714C8.20779 7.37545 8.07425 7.51376 7.93594 7.6473C7.53531 8.05746 7.15377 8.43901 6.73884 8.81102C6.7293 8.82055 6.71976 8.82532 6.71499 8.83486C6.30483 9.24503 6.38113 9.64565 6.46698 9.9175C6.47175 9.93181 6.47652 9.94612 6.48129 9.96043C6.81991 10.7807 7.29685 11.5534 8.02179 12.4739L8.02656 12.4786C9.34289 14.1002 10.7308 15.3641 12.2617 16.3323C12.4573 16.4563 12.6576 16.5564 12.8484 16.6518C13.0201 16.7377 13.1822 16.8187 13.3205 16.9046C13.3396 16.9141 13.3587 16.9284 13.3778 16.938C13.5399 17.019 13.6925 17.0572 13.8499 17.0572C14.2458 17.0572 14.4938 16.8092 14.5749 16.7281L16.206 15.097C16.3681 14.9348 16.6257 14.7393 16.9261 14.7393C17.2218 14.7393 17.4651 14.9253 17.6129 15.0875C17.6177 15.0922 17.6177 15.0922 17.6225 15.097L20.2504 17.7249C20.7416 18.2114 20.7416 18.7122 20.2551 19.2177Z" fill="#FD5B2F"/>
<path d="M12.9011 5.57267C14.1506 5.78252 15.2857 6.37392 16.1919 7.28009C17.0981 8.18627 17.6847 9.32137 17.8993 10.5709C17.9518 10.8857 18.2236 11.1051 18.5337 11.1051C18.5718 11.1051 18.6052 11.1003 18.6434 11.0956C18.9963 11.0383 19.23 10.7045 19.1728 10.3515C18.9152 8.83967 18.1998 7.46133 17.1076 6.36915C16.0154 5.27697 14.6371 4.56158 13.1252 4.30403C12.7723 4.2468 12.4432 4.48049 12.3812 4.82866C12.3192 5.17682 12.5481 5.51544 12.9011 5.57267Z" fill="#FD5B2F"/>
<path d="M23.2599 10.1655C22.8355 7.67586 21.6622 5.41043 19.8594 3.60762C18.0566 1.80481 15.7912 0.631552 13.3016 0.207082C12.9534 0.14508 12.6243 0.383547 12.5623 0.731708C12.5051 1.08464 12.7388 1.41372 13.0917 1.47572C15.3142 1.8525 17.3412 2.90653 18.9532 4.51379C20.5652 6.12583 21.6145 8.15279 21.9913 10.3753C22.0437 10.6901 22.3156 10.9095 22.6256 10.9095C22.6638 10.9095 22.6972 10.9047 22.7353 10.8999C23.0835 10.8475 23.3219 10.5136 23.2599 10.1655Z" fill="#FD5B2F"/>
</svg>
