<svg width="24" height="22" viewBox="0 0 24 22" fill="none" xmlns="http://www.w3.org/2000/svg">
<path d="M5.91091 21.1261C5.80103 21.1261 5.69041 21.1014 5.58651 21.0521C5.32864 20.9272 5.16345 20.6664 5.16345 20.3786V16.6413H2.92108C1.68479 16.6413 0.678711 15.6352 0.678711 14.3989V2.43964C0.678711 1.20334 1.68479 0.197266 2.92108 0.197266H20.86C22.0963 0.197266 23.1024 1.20334 23.1024 2.43964V14.3989C23.1024 15.6352 22.0963 16.6413 20.86 16.6413H11.7792L6.37807 20.9624C6.24278 21.0707 6.07759 21.1261 5.91091 21.1261ZM2.92108 1.69218C2.50849 1.69218 2.17362 2.02779 2.17362 2.43964V14.3989C2.17362 14.8108 2.50849 15.1464 2.92108 15.1464H5.91091C6.32425 15.1464 6.65837 15.4805 6.65837 15.8939V18.8239L11.0497 15.3101C11.1827 15.204 11.3464 15.1464 11.5168 15.1464H20.86C21.2726 15.1464 21.6075 14.8108 21.6075 14.3989V2.43964C21.6075 2.02779 21.2726 1.69218 20.86 1.69218H2.92108Z" fill="#FD5B2F"/>
<path d="M17.8708 7.67192H5.91152C5.49818 7.67192 5.16406 7.33706 5.16406 6.92446C5.16406 6.51186 5.49818 6.177 5.91152 6.177H17.8708C18.2842 6.177 18.6183 6.51186 18.6183 6.92446C18.6183 7.33706 18.2842 7.67192 17.8708 7.67192Z" fill="#FD5B2F"/>
<path d="M11.8912 10.6617H5.91152C5.49818 10.6617 5.16406 10.3268 5.16406 9.91421C5.16406 9.50161 5.49818 9.16675 5.91152 9.16675H11.8912C12.3045 9.16675 12.6386 9.50161 12.6386 9.91421C12.6386 10.3268 12.3045 10.6617 11.8912 10.6617Z" fill="#FD5B2F"/>
</svg>
