<svg width="23" height="23" viewBox="0 0 23 23" fill="none" xmlns="http://www.w3.org/2000/svg">
<path d="M16.7593 13.2472L16.7511 13.3156C14.7454 12.3159 14.5356 12.1828 14.2766 12.5713C14.0969 12.8404 13.5733 13.4506 13.4155 13.6312C13.2559 13.809 13.0972 13.8227 12.8263 13.6996C12.5527 13.5628 11.6743 13.2755 10.6345 12.3451C9.82456 11.62 9.28095 10.7307 9.12042 10.457C8.85317 9.99552 9.41229 9.92985 9.92125 8.96666C10.0125 8.77512 9.96594 8.62462 9.89844 8.48872C9.83004 8.3519 9.28551 7.0111 9.05748 6.4766C8.83857 5.94393 8.61328 6.01143 8.44454 6.01143C7.91917 5.96582 7.53517 5.97312 7.19678 6.32519C5.72463 7.94328 6.09586 9.61244 7.35548 11.3874C9.83095 14.6272 11.1499 15.2237 13.5615 16.0519C14.2127 16.259 14.8065 16.2298 15.2762 16.1623C15.7998 16.0793 16.8879 15.5047 17.1151 14.8616C17.3476 14.2186 17.3476 13.685 17.2792 13.5619C17.2117 13.4387 17.033 13.3703 16.7593 13.2472Z" fill="#FD5B2F"/>
<path d="M19.5075 3.34352C12.4943 -3.43618 0.8877 1.481 0.883139 11.0454C0.883139 12.9572 1.38389 14.8215 2.33795 16.4679L0.791016 22.0883L6.56923 20.5815C13.7794 24.4762 22.678 19.3045 22.6816 11.0508C22.6816 8.15399 21.5506 5.42769 19.4938 3.3791L19.5075 3.34352ZM20.8592 11.0207C20.8538 17.9829 13.2112 22.3309 7.16666 18.7773L6.8383 18.5821L3.41789 19.4714L4.33456 16.1468L4.11657 15.8048C0.355028 9.81676 4.6766 1.99086 11.802 1.99086C14.2227 1.99086 16.4948 2.9349 18.2059 4.6451C19.9161 6.34071 20.8592 8.61278 20.8592 11.0207Z" fill="#FD5B2F"/>
</svg>
