<svg width="49" height="50" viewBox="0 0 49 50" fill="none" xmlns="http://www.w3.org/2000/svg">
<path d="M24.3475 45.5448C13.1886 45.5448 4.05859 36.4148 4.05859 25.2559C4.05859 14.097 13.1886 4.96704 24.3475 4.96704C35.5064 4.96704 44.6364 14.097 44.6364 25.2559C44.6364 36.4148 35.5064 45.5448 24.3475 45.5448ZM24.3475 6.99593C14.203 6.99593 6.08748 15.1115 6.08748 25.2559C6.08748 35.4004 14.203 43.5159 24.3475 43.5159C34.4919 43.5159 42.6075 35.4004 42.6075 25.2559C42.6075 15.1115 34.4919 6.99593 24.3475 6.99593Z" fill="#FD5B2F"/>
<path d="M24.3465 11.0536C23.7378 11.0536 23.332 10.6479 23.332 10.0392V1.92362C23.332 1.31496 23.7378 0.90918 24.3465 0.90918C24.9551 0.90918 25.3609 1.31496 25.3609 1.92362V10.0392C25.3609 10.6479 24.9551 11.0536 24.3465 11.0536Z" fill="#FD5B2F"/>
<path d="M24.3465 11.0536C23.7378 11.0536 23.332 10.6479 23.332 10.0392V1.92362C23.332 1.31496 23.7378 0.90918 24.3465 0.90918C24.9551 0.90918 25.3609 1.31496 25.3609 1.92362V10.0392C25.3609 10.6479 24.9551 11.0536 24.3465 11.0536Z" fill="#FD5B2F"/>
<path d="M47.6788 26.2703H39.5633C38.9546 26.2703 38.5488 25.8646 38.5488 25.2559C38.5488 24.6472 38.9546 24.2415 39.5633 24.2415H47.6788C48.2875 24.2415 48.6933 24.6472 48.6933 25.2559C48.6933 25.8646 48.2875 26.2703 47.6788 26.2703Z" fill="#FD5B2F"/>
<path d="M24.3465 49.6025C23.7378 49.6025 23.332 49.1967 23.332 48.588V40.4725C23.332 39.8638 23.7378 39.458 24.3465 39.458C24.9551 39.458 25.3609 39.8638 25.3609 40.4725V48.588C25.3609 49.1967 24.9551 49.6025 24.3465 49.6025Z" fill="#FD5B2F"/>
<path d="M9.13001 26.2703H1.01444C0.405778 26.2703 0 25.8646 0 25.2559C0 24.6472 0.405778 24.2415 1.01444 24.2415H9.13001C9.73867 24.2415 10.1445 24.6472 10.1445 25.2559C10.1445 25.8646 9.73867 26.2703 9.13001 26.2703Z" fill="#FD5B2F"/>
<path d="M24.3464 31.3425C20.8973 31.3425 18.2598 28.705 18.2598 25.2559C18.2598 21.8067 20.8973 19.1692 24.3464 19.1692C27.7955 19.1692 30.4331 21.8067 30.4331 25.2559C30.4331 28.705 27.7955 31.3425 24.3464 31.3425ZM24.3464 21.1981C22.1147 21.1981 20.2887 23.0241 20.2887 25.2559C20.2887 27.4876 22.1147 29.3136 24.3464 29.3136C26.5782 29.3136 28.4042 27.4876 28.4042 25.2559C28.4042 23.0241 26.5782 21.1981 24.3464 21.1981Z" fill="#FD5B2F"/>
</svg>
