<svg width="50" height="38" viewBox="0 0 50 38" fill="none" xmlns="http://www.w3.org/2000/svg">
<path d="M21.9159 25.6967H6.86337C6.32112 25.6967 5.88281 25.2574 5.88281 24.7162C5.88281 24.1749 6.32112 23.7356 6.86337 23.7356H21.9159C22.4581 23.7356 22.8965 24.1749 22.8965 24.7162C22.8965 25.2574 22.4572 25.6967 21.9159 25.6967Z" fill="#FD5B2F"/>
<path d="M21.9159 13.9299H6.86337C6.32112 13.9299 5.88281 13.4906 5.88281 12.9493C5.88281 12.408 6.32112 11.9688 6.86337 11.9688H21.9159C22.4581 11.9688 22.8965 12.408 22.8965 12.9493C22.8965 13.4906 22.4572 13.9299 21.9159 13.9299Z" fill="#FD5B2F"/>
<path d="M20.5917 19.8132H0.980557C0.438309 19.8132 0 19.3739 0 18.8326C0 18.2913 0.438309 17.8521 0.980557 17.8521H20.5917C21.1339 17.8521 21.5722 18.2913 21.5722 18.8326C21.5722 19.3739 21.1339 19.8132 20.5917 19.8132Z" fill="#FD5B2F"/>
<path d="M30.3968 22.6589C28.4485 22.6589 26.4746 21.3449 26.4746 18.8327C26.4746 16.3205 28.4485 15.0066 30.3968 15.0066C32.3452 15.0066 34.3191 16.3205 34.3191 18.8327C34.3191 21.3449 32.3452 22.6589 30.3968 22.6589ZM30.3968 16.9677C29.4918 16.9677 28.4357 17.456 28.4357 18.8327C28.4357 20.2094 29.4918 20.6977 30.3968 20.6977C31.3019 20.6977 32.3579 20.2094 32.3579 18.8327C32.3579 17.456 31.3019 16.9677 30.3968 16.9677Z" fill="#FD5B2F"/>
<path d="M32.4769 17.7335C32.2259 17.7335 31.9749 17.6374 31.7836 17.4462C31.4002 17.0628 31.4002 16.4431 31.7836 16.0597L37.3307 10.5126C37.7141 10.1292 38.3338 10.1292 38.7172 10.5126C39.1006 10.896 39.1006 11.5158 38.7172 11.8992L33.1701 17.4462C32.9789 17.6374 32.7279 17.7335 32.4769 17.7335Z" fill="#FD5B2F"/>
<path d="M26.93 23.2805C26.679 23.2805 26.428 23.1844 26.2368 22.9932C25.8534 22.6108 25.8534 21.9901 26.2368 21.6067L27.6233 20.2192C28.0067 19.8358 28.6264 19.8358 29.0098 20.2192C29.3932 20.6016 29.3932 21.2223 29.0098 21.6057L27.6233 22.9932C27.4321 23.1844 27.181 23.2805 26.93 23.2805Z" fill="#FD5B2F"/>
<path d="M30.3966 37.4633C29.8543 37.4633 29.416 37.024 29.416 36.4828V33.5411C29.416 32.9998 29.8543 32.5605 30.3966 32.5605C30.9388 32.5605 31.3771 32.9998 31.3771 33.5411V36.4828C31.3771 37.024 30.9388 37.4633 30.3966 37.4633Z" fill="#FD5B2F"/>
<path d="M42.877 32.2938C42.6259 32.2938 42.3749 32.1977 42.1837 32.0065L40.104 29.9258C39.7206 29.5424 39.7206 28.9217 40.104 28.5393C40.4874 28.1559 41.1071 28.1559 41.4905 28.5393L43.5702 30.62C43.9536 31.0034 43.9536 31.6241 43.5702 32.0065C43.378 32.1977 43.127 32.2938 42.877 32.2938Z" fill="#FD5B2F"/>
<path d="M40.7972 9.41344C40.5462 9.41344 40.2952 9.31735 40.104 9.12614C39.7206 8.74372 39.7206 8.12302 40.104 7.73963L42.1837 5.65889C42.5671 5.27549 43.1868 5.27549 43.5702 5.65889C43.9536 6.0413 43.9536 6.662 43.5702 7.04539L41.4905 9.12614C41.2993 9.31735 41.0482 9.41344 40.7972 9.41344Z" fill="#FD5B2F"/>
<path d="M30.3966 5.10493C29.8543 5.10493 29.416 4.66564 29.416 4.12437V1.1827C29.416 0.641438 29.8543 0.202148 30.3966 0.202148C30.9388 0.202148 31.3771 0.641438 31.3771 1.1827V4.12437C31.3771 4.66564 30.9388 5.10493 30.3966 5.10493Z" fill="#FD5B2F"/>
<path d="M48.0472 19.8132H45.1056C44.5633 19.8132 44.125 19.3739 44.125 18.8326C44.125 18.2913 44.5633 17.8521 45.1056 17.8521H48.0472C48.5895 17.8521 49.0278 18.2913 49.0278 18.8326C49.0278 19.3739 48.5895 19.8132 48.0472 19.8132Z" fill="#FD5B2F"/>
<path d="M23.3254 8.04656H12.7462C12.2039 8.04656 11.7656 7.60728 11.7656 7.06601C11.7656 6.52474 12.2039 6.08545 12.7462 6.08545H23.3254C23.8677 6.08545 24.306 6.52474 24.306 7.06601C24.306 7.60728 23.8677 8.04656 23.3254 8.04656Z" fill="#FD5B2F"/>
<path d="M23.3254 31.58H12.7462C12.2039 31.58 11.7656 31.1407 11.7656 30.5995C11.7656 30.0582 12.2039 29.6189 12.7462 29.6189H23.3254C23.8677 29.6189 24.306 30.0582 24.306 30.5995C24.306 31.1407 23.8677 31.58 23.3254 31.58Z" fill="#FD5B2F"/>
<path d="M30.336 37.4448C27.462 37.4448 24.5585 36.7829 21.862 35.3935C21.3805 35.1454 21.1913 34.5541 21.4394 34.0727C21.6875 33.5912 22.2797 33.402 22.7602 33.65C30.4517 37.6134 40.0327 34.9581 44.5727 27.6049C49.1254 20.2301 47.2202 10.4648 40.2357 5.37274C35.177 1.68585 28.317 1.15242 22.7602 4.01467C22.2797 4.26275 21.6875 4.07448 21.4394 3.59205C21.1913 3.1106 21.3796 2.51932 21.862 2.27124C28.0719 -0.929297 35.7359 -0.3341 41.3908 3.78718C49.198 9.47833 51.3287 20.3929 46.2406 28.6345C42.7586 34.2766 36.6213 37.4448 30.336 37.4448Z" fill="#FD5B2F"/>
</svg>
