<svg width="44" height="46" viewBox="0 0 44 46" fill="none" xmlns="http://www.w3.org/2000/svg">
<path d="M9.26172 25.3027V28.1327C9.26172 28.5234 9.57848 28.8402 9.96922 28.8402C10.36 28.8402 10.6767 28.5234 10.6767 28.1327V25.3027C10.6767 24.912 10.36 24.5952 9.96922 24.5952C9.57848 24.5952 9.26172 24.912 9.26172 25.3027Z" fill="#FD5B2F"/>
<path d="M14.2153 24.5952C13.8246 24.5952 13.5078 24.912 13.5078 25.3027V28.1327C13.5078 28.5234 13.8246 28.8402 14.2153 28.8402C14.6061 28.8402 14.9228 28.5234 14.9228 28.1327V25.3027C14.9228 24.912 14.6061 24.5952 14.2153 24.5952Z" fill="#FD5B2F"/>
<path d="M43.7226 26.2175C43.4463 25.9414 42.9985 25.9414 42.7222 26.2175L40.2219 28.7178L26.8636 23.3741C26.9199 23.0769 26.9488 22.7752 26.9499 22.4728H40.3924C40.6073 22.4728 40.8106 22.3752 40.9449 22.2075L43.7749 18.67C44.0191 18.3648 43.9697 17.9194 43.6646 17.6752C43.3594 17.431 42.914 17.4804 42.6698 17.7856L40.0528 21.0578H26.7412C26.5535 20.429 26.2426 19.8438 25.8264 19.3364L41.332 13.9432C41.5197 13.8777 41.6712 13.7362 41.7494 13.5533L43.8719 8.60087C43.9787 8.36726 43.9505 8.09409 43.7983 7.88721C43.646 7.68033 43.3935 7.57223 43.1387 7.60481C42.8839 7.63739 42.6668 7.80553 42.5715 8.04407L40.5728 12.7093L24.5982 18.266C23.4283 17.5374 22.0069 17.3315 20.6784 17.6981C19.3498 18.0648 18.2352 18.9706 17.6046 20.196L15.8422 15.7954L38.5296 6.85901C38.6396 6.81537 38.7369 6.74482 38.8125 6.65384L42.35 2.40885C42.5158 2.21015 42.5599 1.93676 42.465 1.69601C42.37 1.45525 42.1512 1.28555 41.8944 1.25351L36.2344 0.546013C35.8522 0.507391 35.5089 0.780922 35.4613 1.16217C35.4136 1.54342 35.679 1.89302 36.059 1.94969L40.4348 2.49658L37.8454 5.60816L15.318 14.478L13.361 9.58924L23.636 6.16354L23.6452 6.15859H23.6537L31.4362 3.3286C31.8034 3.19507 31.9927 2.78907 31.859 2.4219C31.7254 2.05473 31.3194 1.86543 30.9522 1.99909L25.5392 3.96676L26.7943 2.39753C26.951 2.20159 26.9923 1.93727 26.9027 1.70289C26.813 1.4685 26.606 1.29913 26.3585 1.25776L22.1135 0.550259C21.9612 0.525227 21.8048 0.550041 21.6678 0.621008L11.2676 6.08713C10.1668 5.47022 8.78964 5.66356 7.90129 6.55974L4.83287 9.62957C4.25284 10.2096 3.95304 11.0128 4.01114 11.8311C4.06923 12.6493 4.47951 13.4021 5.13568 13.8944L6.24504 14.7264L3.02663 19.2317C2.87437 19.4449 2.85232 19.7247 2.96933 19.959L4.17207 22.3688L0.232726 26.9675C0.0666602 27.1613 0.0178781 27.4296 0.105072 27.6695C0.192265 27.9094 0.401914 28.0837 0.653687 28.1257L4.14306 28.7072L2.91626 33.6215C2.90229 33.6775 2.89517 33.735 2.89504 33.7927L2.89504 35.2077C2.89504 36.7707 4.16207 38.0377 5.72503 38.0377H11.385V45.1127C11.385 45.5034 11.7018 45.8202 12.0925 45.8202C12.4832 45.8202 12.8 45.5034 12.8 45.1127V37.3302C12.8 36.9395 12.4832 36.6227 12.0925 36.6227H5.72503C4.94355 36.6227 4.31003 35.9892 4.31003 35.2077V33.8797L5.7038 28.304C5.7517 28.1124 5.71735 27.9095 5.60905 27.7444C5.50075 27.5792 5.32836 27.4669 5.13356 27.4344L2.12599 26.93L5.55452 22.9326C5.74034 22.7162 5.778 22.4093 5.65003 22.1544L4.42606 19.7072L7.37774 15.5754L17.0634 22.8407C17.2528 25.348 19.2911 27.3154 21.8036 27.416L37.9409 35.8353C38.0425 35.8881 38.1554 35.9156 38.2699 35.9152C38.3356 35.9152 38.4011 35.9062 38.4644 35.8884L43.4169 34.4733C43.6343 34.4113 43.8089 34.2491 43.8868 34.0369C43.9647 33.8247 43.9366 33.588 43.811 33.4001L41.3029 29.6376L43.7226 27.218C43.9988 26.9417 43.9988 26.4938 43.7226 26.2175ZM22.1156 1.98506L24.9364 2.45484L22.988 4.88792L12.8347 8.2733L12.5297 7.51132C12.475 7.37758 12.4102 7.24821 12.3359 7.12432L22.1156 1.98506ZM5.98468 12.7624C5.65636 12.5162 5.45105 12.1397 5.422 11.7304C5.39295 11.3211 5.54301 10.9193 5.83327 10.6293L8.90169 7.56156C9.16294 7.29609 9.51973 7.14649 9.89219 7.14626C9.99104 7.14629 10.0896 7.15624 10.1865 7.17597C10.655 7.26856 11.0434 7.59454 11.2159 8.03982L16.1585 20.3963L5.98468 12.7624ZM18.46 22.4728C18.46 20.5191 20.0438 18.9353 21.9975 18.9353C23.9512 18.9353 25.5349 20.5191 25.5349 22.4728C25.5349 24.4265 23.9512 26.0103 21.9975 26.0103C20.0447 26.0079 18.4623 24.4255 18.46 22.4728ZM38.347 34.45L24.0336 26.9824C25.0576 26.5174 25.894 25.7194 26.4066 24.7184L39.9254 30.1229L42.096 33.3774L38.347 34.45Z" fill="#FD5B2F"/>
<path d="M40.3568 39.229C40.2331 38.8578 39.832 38.6572 39.4608 38.7808C39.0896 38.9045 38.8889 39.3057 39.0126 39.6769L40.1191 42.9901H36.387L24.8279 34.1506V30.9627C24.8279 30.7752 24.7534 30.5952 24.6208 30.4626L22.4982 28.34C22.2219 28.0638 21.774 28.0638 21.4978 28.34L19.3753 30.4624C19.2426 30.5951 19.168 30.775 19.168 30.9627V39.4526C19.1679 39.5624 19.1933 39.6706 19.2423 39.7689L21.3647 44.0138C21.4846 44.2536 21.7296 44.4051 21.9976 44.4051C22.2656 44.4051 22.5106 44.2536 22.6305 44.0138L24.7529 39.7689C24.8022 39.6707 24.8278 39.5624 24.8279 39.4526V35.9314L35.7184 44.2594C35.8417 44.3537 35.9926 44.405 36.1479 44.4051H41.1004C41.328 44.4051 41.5415 44.2958 41.6745 44.1113C41.8074 43.927 41.8437 43.6898 41.7718 43.474L40.3568 39.229ZM23.413 39.2857L21.998 42.1156L20.583 39.2857V31.2556L21.998 29.8406L23.413 31.2556V39.2857Z" fill="#FD5B2F"/>
</svg>
