<svg width="46" height="56" viewBox="0 0 46 56" fill="none" xmlns="http://www.w3.org/2000/svg">
<path d="M22.1502 7.9897C13.9087 7.9897 7.2042 14.6942 7.2042 22.9357C7.2042 26.2669 8.27418 29.4621 10.2165 31.9325C10.5802 32.3953 10.9402 32.8418 11.2917 33.2766C13.5519 36.077 15.3366 38.2881 15.3366 41.408V43.7645C14.5923 43.9206 14.031 44.5815 14.031 45.3716V47.9085H13.7464C13.3094 47.9085 12.9558 48.2627 12.9558 48.6991C12.9558 49.1355 13.3094 49.4897 13.7464 49.4897H14.031V49.6763C14.031 52.9158 16.6664 55.5512 19.9059 55.5512H24.3945C27.634 55.5512 30.2694 52.9158 30.2694 49.6763V49.4898H30.612C31.0485 49.4898 31.4027 49.1356 31.4027 48.6991C31.4027 48.2627 31.0485 47.9085 30.612 47.9085H30.2694V45.3722C30.2694 44.5815 29.7086 43.9206 28.9639 43.7651V41.4085C28.9639 38.2881 30.7491 36.0765 33.0092 33.2761C33.3603 32.8412 33.7208 32.3953 34.084 31.9331C36.0263 29.4621 37.0957 26.2669 37.0957 22.9363C37.0957 14.6948 30.3912 7.9897 22.1502 7.9897ZM24.394 53.9694H19.9054C17.5377 53.9694 15.6117 52.0435 15.6117 49.6758V49.4465C15.9269 49.3422 16.1557 49.0491 16.1557 48.6991C16.1557 48.3491 15.9264 48.0555 15.6117 47.9517V45.3722C15.6117 45.3384 15.6391 45.311 15.6723 45.311H28.627C28.6603 45.311 28.6877 45.3384 28.6877 45.3722V47.9702C28.4025 48.0898 28.2022 48.3713 28.2022 48.6996C28.2022 49.028 28.4025 49.3095 28.6877 49.4291V49.6769C28.6882 52.0435 26.7622 53.9694 24.394 53.9694ZM32.8411 30.9559C32.4816 31.4123 32.1264 31.853 31.779 32.2831C29.4198 35.2057 27.3826 37.7294 27.3826 41.4085V43.7298H16.9173V41.4085C16.9173 37.7299 14.8807 35.2063 12.522 32.2841C12.1746 31.854 11.8188 31.4128 11.4593 30.9559C9.73526 28.7621 8.78545 25.9143 8.78545 22.9357C8.78545 15.5665 14.781 9.57095 22.1502 9.57095C29.5194 9.57095 35.5145 15.5665 35.5145 22.9357C35.5145 25.9143 34.5647 28.7621 32.8411 30.9559ZM5.46851 24.0853H0.790627C0.353674 24.0853 0 23.7311 0 23.2947C0 22.8582 0.353674 22.504 0.790627 22.504H5.46851C5.90546 22.504 6.25913 22.8582 6.25913 23.2947C6.25913 23.7311 5.90546 24.0853 5.46851 24.0853ZM45.0278 23.2947C45.0278 23.7311 44.6736 24.0853 44.2372 24.0853H39.5593C39.1229 24.0853 38.7687 23.7311 38.7687 23.2947C38.7687 22.8582 39.1229 22.504 39.5593 22.504H44.2372C44.6736 22.504 45.0278 22.8582 45.0278 23.2947ZM7.4962 29.5148C7.66329 29.9186 7.47195 30.3808 7.06821 30.5479L2.74664 32.3379C2.64755 32.379 2.54529 32.398 2.44409 32.398C2.13417 32.398 1.83953 32.214 1.71355 31.9099C1.54647 31.5061 1.7378 31.0439 2.14155 30.8768L6.46312 29.0868C6.86633 28.9181 7.32912 29.1111 7.4962 29.5148ZM37.9591 16.0409L42.2812 14.2509C42.686 14.0839 43.1477 14.2757 43.3143 14.6789C43.4814 15.0827 43.29 15.5449 42.8863 15.712L38.5642 17.502C38.4651 17.5431 38.3623 17.5626 38.2622 17.5626C37.9517 17.5626 37.6576 17.3787 37.5311 17.0745C37.364 16.6708 37.5553 16.208 37.9591 16.0409ZM34.008 11.8005C33.6992 11.4922 33.6992 10.9915 34.008 10.6826L37.3155 7.37459C37.6244 7.06572 38.1246 7.06572 38.4335 7.37459C38.7423 7.68294 38.7423 8.18367 38.4335 8.49254L35.126 11.8005C34.9716 11.955 34.7692 12.0319 34.5668 12.0319C34.3644 12.0319 34.1625 11.955 34.008 11.8005ZM28.3066 7.2444L30.0966 2.92231C30.2631 2.51962 30.7233 2.32723 31.1296 2.49432C31.5329 2.6614 31.7247 3.12366 31.5576 3.52687L29.7676 7.84897C29.6417 8.15362 29.347 8.33758 29.0366 8.33758C28.9364 8.33758 28.8337 8.31808 28.7346 8.27696C28.3313 8.10988 28.1395 7.64762 28.3066 7.2444ZM21.7233 6.24927V1.57139C21.7233 1.13444 22.0775 0.780762 22.5139 0.780762C22.9503 0.780762 23.3045 1.13444 23.3045 1.57139V6.24927C23.3045 6.68622 22.9503 7.0399 22.5139 7.0399C22.0775 7.0399 21.7233 6.68569 21.7233 6.24927ZM13.4702 3.5274C13.3031 3.12418 13.4944 2.6614 13.8982 2.49484C14.3009 2.32775 14.7642 2.51856 14.9313 2.92284L16.7212 7.24493C16.8883 7.64815 16.6965 8.11093 16.2933 8.27749C16.1942 8.3186 16.0914 8.3381 15.9912 8.3381C15.6808 8.3381 15.3867 8.15415 15.2602 7.8495L13.4702 3.5274ZM6.59436 8.49307C6.28548 8.1842 6.28548 7.68347 6.59436 7.37512C6.90323 7.06625 7.40343 7.06625 7.7123 7.37512L11.0198 10.6831C11.3286 10.992 11.3286 11.4927 11.0198 11.8011C10.8653 11.9555 10.6629 12.0324 10.4605 12.0324C10.2581 12.0324 10.0557 11.9555 9.90129 11.8011L6.59436 8.49307ZM43.3143 31.9104C43.1883 32.2145 42.8937 32.3985 42.5832 32.3985C42.4825 32.3985 42.3797 32.3795 42.2812 32.3384L37.9591 30.5484C37.5553 30.3813 37.364 29.9191 37.5311 29.5153C37.6977 29.1126 38.1599 28.9197 38.5642 29.0873L42.8863 30.8773C43.29 31.0444 43.4814 31.5067 43.3143 31.9104ZM1.71408 14.6784C1.88116 14.2747 2.34341 14.0844 2.74716 14.2504L7.06873 16.0404C7.47195 16.2075 7.66328 16.6697 7.49672 17.0735C7.37075 17.3781 7.07611 17.5616 6.76619 17.5616C6.66551 17.5616 6.56273 17.5421 6.46364 17.5009L2.14207 15.711C1.73832 15.5444 1.54699 15.0822 1.71408 14.6784ZM22.5139 12.744C21.3048 12.744 18.4917 13.3976 18.4917 19.4506C18.4917 23.6784 21.4877 29.6777 21.7902 30.2733C20.5579 30.5832 19.6392 31.6917 19.6392 33.0189C19.6392 34.5848 20.9131 35.8588 22.4791 35.8588C24.0456 35.8588 25.3196 34.5848 25.3196 33.0189C25.3196 31.7138 24.4299 30.6233 23.2281 30.2923C23.4553 29.8474 26.5361 23.7395 26.5361 19.4512C26.5361 13.3976 23.723 12.744 22.5139 12.744ZM22.5139 14.3253C24.0651 14.3253 24.9548 16.1933 24.9548 19.4506C24.9548 22.2226 23.4405 26.0313 22.5139 28.1022C21.5868 26.0324 20.073 22.2263 20.073 19.4506C20.073 16.1933 20.9627 14.3253 22.5139 14.3253ZM23.7378 33.0183C23.7378 33.712 23.1733 34.277 22.4786 34.277C21.7849 34.277 21.2199 33.7125 21.2199 33.0183C21.2199 32.3242 21.7844 31.7597 22.4786 31.7597C23.1733 31.7602 23.7378 32.3247 23.7378 33.0183Z" fill="#FD5B2F"/>
</svg>
