<svg width="1103" height="60" viewBox="0 0 1103 60" fill="none" xmlns="http://www.w3.org/2000/svg">
<path d="M1102 37L1097.94 36.1389C1090.44 34.5473 1084.67 28.521 1083.42 20.9537L1083.2 19.6208C1082.74 16.8734 1081.49 14.3213 1079.59 12.2838V12.2838C1071.1 3.1655 1055.81 8.67939 1055.1 21.1216L1054.88 24.8506C1054.65 28.8875 1052.04 32.4009 1048.25 33.7929V33.7929C1043.3 35.6066 1037.79 33.3322 1035.56 28.5579L1032.5 22L1030.39 16.8088C1028.2 11.4476 1024.17 7.04605 1019.02 4.40158V4.40158C1012.38 0.992804 1004.54 0.834255 997.771 3.97182L997.15 4.25962C991.27 6.98479 986.64 11.8374 984.195 17.8397L982.5 22L979.909 27.5526C977.097 33.577 971.905 38.1589 965.577 40.1986V40.1986C963.207 40.9627 960.732 41.3518 958.241 41.3518H922M1.00208 26.5268L9.48409 35.5686C15.9263 42.436 27.4347 39.1686 29.3073 29.9406V29.9406C29.7591 27.7139 30.8551 25.6689 32.4592 24.0597L33.8934 22.621C41.8368 14.6521 55.0142 15.6379 61.6836 24.7L70 36L79.4349 48.6883C82.7128 53.0965 87.3993 56.2517 92.7168 57.6303V57.6303C96.1948 58.532 99.8306 58.6441 103.358 57.9583L103.623 57.9066C111.416 56.3912 118.045 51.3023 121.522 44.1649L124.451 38.1532C125.149 36.7205 125.971 35.3516 126.908 34.0624L131.147 28.2278C134.725 23.3044 140.808 20.8676 146.795 21.9595V21.9595C150.479 22.6313 153.805 24.5872 156.183 27.4797L158.615 30.4371C163.607 36.5094 171.055 40.0281 178.916 40.0281H193.624C199.147 40.0281 204.242 37.0565 206.961 32.2499L209.246 28.2116C212.373 22.6845 210.174 15.6652 204.452 12.9105V12.9105C203.203 12.3089 201.851 11.9495 200.467 11.8511L200.2 11.8321C193.706 11.3703 188.041 16.1994 187.469 22.6843V22.6843C187.171 26.0667 188.327 29.4159 190.65 31.893L191.358 32.6487C193.401 34.8277 196.077 36.3095 199.008 36.8847L210.269 39.095C213.431 39.7156 216.646 40.0281 219.868 40.0281H226.754C229.239 40.0281 231.712 39.6794 234.1 38.9923V38.9923C240.767 37.0739 246.42 32.6238 249.849 26.5929L253.5 20.1732L255.834 16.2964C267.045 -2.3223 294.189 -1.87763 304.783 17.0983L305.628 18.6119C306.207 19.6488 306.655 20.7534 306.962 21.9006L308.387 27.2217C311.55 39.0395 328.136 39.518 332.463 28.0749V28.0749C336.001 18.7201 348.715 17.0726 354.263 25.3942L358.358 31.5374C362.052 37.0782 358.08 44.5 351.421 44.5V44.5C344.898 44.5 340.901 37.3477 344.32 31.7925L349.857 22.7941C355.033 14.3832 366.99 13.6652 373.135 21.3963L380.071 30.1213C386.688 38.4464 398.314 40.844 407.685 35.8163V35.8163C417.547 30.5253 429.81 33.4837 436.174 42.6893L437.187 44.155C438.718 46.3692 440.611 48.31 442.786 49.8959L445.483 51.8623C456.046 59.5651 470.516 59.0108 480.459 50.5224L482.178 49.055C483.385 48.0253 484.414 46.805 485.226 45.4426L485.978 44.1812C490.961 35.8209 502.867 35.2749 508.594 43.144L511.454 47.0747C516.84 54.4743 528.359 52.5669 531.071 43.8263V43.8263C532.516 39.1721 536.821 36 541.694 36H563.5H563.912C570.336 36 575.844 31.4131 577.007 25.095L577.35 23.2343C578.206 18.5838 575.925 13.9196 571.728 11.74V11.74C567 9.28389 561.186 10.6593 558.059 14.9738L556.874 16.6083C551.864 23.5212 554.7 33.3026 562.63 36.4641L570.174 39.4712C571.057 39.8233 571.964 40.11 572.89 40.3291L587.905 43.8853C589.629 44.2937 591.395 44.5 593.167 44.5H601.039C609.302 44.5 616 37.8018 616 29.5391V29.5391C616 27.5508 616.396 25.5825 617.166 23.7492L619.602 17.9435C622.408 11.2594 627.893 6.0237 634.69 3.50517V3.50517C641.553 0.962265 649.206 1.41387 655.709 4.77241V4.77241C661.069 7.54081 665.301 12.0856 667.681 17.6295L670.67 24.5935C671.222 25.8787 671.635 27.2191 671.902 28.5919L672.93 33.8697C674.132 40.0435 679.54 44.5 685.83 44.5V44.5C689.739 44.5 693.445 42.7602 695.941 39.7529L708.233 24.9485C709.403 23.5392 710.795 22.3296 712.353 21.367L713.076 20.9206C718.474 17.5862 725.352 17.846 730.483 21.5781L735.096 24.9333C738 27.0453 739.155 30.8243 737.928 34.1986V34.1986C736.77 37.3814 733.746 39.5 730.359 39.5H728.561C724.723 39.5 721.396 36.8443 720.546 33.1019V33.1019C719.898 30.2521 720.812 27.2727 722.947 25.2766L725.452 22.9339C730.188 18.5055 737.322 17.8489 742.786 21.3386L754 28.5L764.684 36.8217C768.453 39.7576 773.094 41.3518 777.872 41.3518V41.3518C787.187 41.3518 795.438 35.3434 798.298 26.4785L800.044 21.0639C804.065 8.59962 816.468 0.833502 829.437 2.66008V2.66008C837.678 3.82083 844.92 8.72598 849.055 15.9484L858.676 32.7505C861.911 38.3997 866.472 43.1766 871.966 46.6687L873.595 47.7041C880.017 51.7861 887.61 53.6264 895.188 52.9374L900.402 52.4634C903.727 52.1612 906.89 50.888 909.497 48.8023V48.8023C910.165 48.2682 910.872 47.7851 911.612 47.3572L922 41.3518M922 41.3518L916.316 38.6034C914.166 37.5638 912.421 35.8416 911.353 33.7056V33.7056C908.317 27.6332 911.564 20.2979 918.1 18.4631L920.122 17.8955C927.212 15.9053 934.306 21.0432 934.626 28.4005V28.4005C934.847 33.492 931.67 38.1146 926.838 39.7324L922 41.3518Z" stroke="#E5C95B" stroke-width="2"/>
</svg>
