<?xml version="1.0" encoding="utf-8"?>
<!-- Generator: Adobe Illustrator 27.5.0, SVG Export Plug-In . SVG Version: 6.00 Build 0)  -->
<svg version="1.1" id="Layer_1" xmlns="http://www.w3.org/2000/svg" xmlns:xlink="http://www.w3.org/1999/xlink" x="0px" y="0px"
	 viewBox="0 0 400 350" style="enable-background:new 0 0 400 350;" xml:space="preserve">
<g>
	<g>
		<polygon style="opacity:0.5;fill:#FCB788;" points="169.268,311.559 56.625,246.638 192.432,168.908 305.075,233.829 		"/>
		<path style="opacity:0.5;fill:#FCB788;" d="M330.628,274.469c0,4.425-6.374,8.014-14.238,8.014
			c-7.863,0-14.238-3.588-14.238-8.014c0-4.426,6.374-8.013,14.238-8.013C324.254,266.455,330.628,270.043,330.628,274.469z"/>
		<polygon style="opacity:0.5;fill:#FCB788;" points="270.036,274.238 254.915,265.522 289.82,245.364 304.942,254.079 		"/>
	</g>
	<g>
		<g>
			<g>
				<polygon style="fill:#DD3636;" points="127.921,199.215 134.256,202.814 123.749,208.878 117.413,205.253 				"/>
				<polygon style="fill:#B71A1A;" points="72.832,250.509 134.256,215.043 134.256,202.812 72.832,238.278 				"/>
				<polygon style="fill:#DD3636;" points="108.082,210.658 114.417,214.256 72.832,238.278 66.496,234.654 				"/>
				<polygon style="fill:#D62929;" points="66.496,234.654 72.832,238.278 72.832,250.509 66.496,246.826 				"/>
			</g>
			<g>
				<polygon style="fill:#B71A1A;" points="123.745,214.989 114.417,220.375 114.417,86.327 123.745,80.941 				"/>
				<polygon style="fill:#D62929;" points="108.082,90.864 114.417,86.327 114.417,214.256 108.082,210.658 				"/>
			</g>
			<g>
				<path style="fill:#D62929;" d="M86.632,169.229c0.22-0.209,0.465-0.448,0.7-0.676v1.076l2.499,1.428l-1.856,14.572l-3.141-1.815
					l0.002-0.015c-1.002-0.265-1.303-1.776-1.409-3.703C83.203,176.019,83.616,172.099,86.632,169.229z"/>
				<path style="fill:#B71A1A;" d="M114.395,146.062c0,0-18.977,18.663-24.564,24.995c-2.755,3.122-3.429,6.79-3.205,10.867
					c0.182,3.306,0.907,5.441,4.826,2.05c5.731-4.96,22.943-18.793,22.943-18.793V146.062z"/>
				<polygon style="fill:#DD3636;" points="111.197,144.234 114.395,146.062 89.831,171.057 86.632,169.229 				"/>
			</g>
		</g>
		<polygon style="fill:#B71A1A;" points="114.204,74.65 123.432,69.313 126.799,72.253 117.309,76.813 		"/>
		<g>
			<path style="fill:#773939;" d="M109.965,189.301l-1.939-1.086l-29.218,16.869c-1.649,0.952-2.999,3.53-2.999,5.729
				c0,1.221,0.425,2.06,1.077,2.418l-0.004,0.015l2.038,1.13l1.239-2.077l27.865-16.088L109.965,189.301z"/>
			<path style="fill:#4C2522;" d="M80.747,206.17l29.218-16.869v7.996l-29.218,16.869c-1.649,0.952-2.999-0.068-2.999-2.267
				C77.749,209.7,79.098,207.122,80.747,206.17z"/>
		</g>
		<path style="fill:#773939;" d="M78.957,238.39c-0.368-0.18-0.843-0.149-1.351,0.144c-1.189,0.687-2.154,2.529-2.154,4.116
			c0,0.854,0.28,1.459,0.724,1.729l90.455,51.947l2.242-6.365L78.957,238.39z"/>
		<path style="fill:#F2E8BA;" d="M201.633,172.456c-0.368-0.18-0.843-0.149-1.351,0.144c-1.189,0.687-2.154,2.529-2.154,4.116
			c0,0.854,0.28,1.459,0.724,1.729l90.455,51.947l2.242-6.365L201.633,172.456z"/>
		<g>
			<polygon style="fill:#773939;" points="183.837,231.613 90.879,178.037 190.648,120.436 283.606,174.012 			"/>
			<polygon style="fill:#421F1D;" points="190.918,270.764 183.837,231.613 283.606,174.012 283.606,216.485 			"/>
			<polygon style="fill:#4F2826;" points="90.979,177.901 97.96,217.188 190.918,270.764 183.837,231.613 			"/>
		</g>
		<path style="fill:#B71A1A;" d="M164.254,107.987l31.849-18.543c0,0,14.708,4.15,21.849,9.271
			c7.141,5.121,49.888,28.647,50.129,29.196c0.241,0.549-10.338,12.666-10.338,12.666l-21.721,7.583
			c0,0-43.429-22.434-49.797-27.725C179.858,115.145,164.254,107.987,164.254,107.987z"/>
		<path style="fill:#D62929;" d="M215.426,132.057l-40.656-23.472c-3.724-2.151-7.458-2.365-10.515-0.598
			c-3.492,2.015-5.495,6.363-5.495,11.926v19.108c1.442,0.833,3.384,2.27,5.822,3.361l-0.029-22.469c0-3.386,0.972-5.97,2.599-6.91
			c1.524-0.879,3.408-0.158,4.721,0.6l43.554,25.145V132.057z"/>
		<path style="fill:#B71A1A;" d="M206.619,90.042c-3.724-2.151-7.458-2.365-10.516-0.599c-3.492,2.015-5.495,6.363-5.495,11.926
			v17.18h5.815l-0.022-17.18c0-3.386,0.972-5.97,2.599-6.91c1.524-0.879,3.408-0.158,4.721,0.6l51.193,29.531v-6.825L206.619,90.042
			z"/>
		<g>
			
				<rect x="196.042" y="175.877" transform="matrix(0.8646 -0.5025 0.5025 0.8646 -58.1339 136.9207)" style="fill:#FCAA47;" width="57.833" height="0.875"/>
		</g>
		<g>
			
				<rect x="190.691" y="173.141" transform="matrix(0.8645 -0.5026 0.5026 0.8645 -57.4878 133.891)" style="fill:#FCAA47;" width="57.833" height="0.875"/>
		</g>
		<g>
			
				<rect x="188.746" y="169.032" transform="matrix(0.8646 -0.5025 0.5025 0.8646 -55.6802 132.3117)" style="fill:#FCAA47;" width="57.833" height="0.875"/>
		</g>
		<g>
			
				<rect x="184.733" y="165.688" transform="matrix(0.8646 -0.5025 0.5025 0.8646 -54.5458 129.8601)" style="fill:#FCAA47;" width="57.833" height="0.875"/>
		</g>
		<g>
			
				<rect x="181.875" y="161.858" transform="matrix(0.8645 -0.5026 0.5026 0.8645 -53.0133 127.9466)" style="fill:#FCAA47;" width="57.833" height="0.875"/>
		</g>
		<g>
			
				<rect x="177.158" y="159.173" transform="matrix(0.8646 -0.5025 0.5025 0.8646 -52.2974 125.1711)" style="fill:#FCAA47;" width="57.833" height="0.875"/>
		</g>
		<g>
			
				<rect x="170.812" y="157.303" transform="matrix(0.8645 -0.5026 0.5026 0.8645 -52.221 121.7537)" style="fill:#FCAA47;" width="57.833" height="0.875"/>
		</g>
		<g>
			
				<rect x="166.115" y="154.43" transform="matrix(0.8645 -0.5026 0.5026 0.8645 -51.4132 119.0022)" style="fill:#FCAA47;" width="57.833" height="0.875"/>
		</g>
		<g>
			
				<rect x="161.692" y="151.649" transform="matrix(0.8645 -0.5026 0.5026 0.8645 -50.6167 116.4178)" style="fill:#FCAA47;" width="57.833" height="0.875"/>
		</g>
		<g>
			
				<rect x="157.04" y="148.588" transform="matrix(0.8645 -0.5026 0.5026 0.8645 -49.7065 113.6516)" style="fill:#FCAA47;" width="57.833" height="0.875"/>
		</g>
		<g>
			
				<rect x="153.073" y="145.396" transform="matrix(0.8645 -0.5026 0.5026 0.8645 -48.6397 111.2252)" style="fill:#FCAA47;" width="57.833" height="0.875"/>
		</g>
		<g>
			<polygon style="fill:#FCAA47;" points="154.053,157.305 153.613,156.548 199.834,129.727 200.691,130.241 			"/>
		</g>
		<g>
			<polygon style="fill:#FCAA47;" points="148.9,154.372 148.46,153.616 194.701,126.782 195.574,127.287 			"/>
		</g>
		<g>
			<polygon style="fill:#FCAA47;" points="144.021,151.727 143.581,150.971 189.97,124.051 190.906,124.591 			"/>
		</g>
		<g>
			<polygon style="fill:#FCAA47;" points="139.05,149.265 138.61,148.508 185.351,121.385 186.225,121.889 			"/>
		</g>
		<g>
			<polygon style="fill:#FCAA47;" points="133.968,146.483 133.528,145.727 180.423,118.514 181.275,119.031 			"/>
		</g>
		<g>
			<polygon style="fill:#FCAA47;" points="129.408,143.656 128.968,142.9 175.673,115.797 176.547,116.302 			"/>
		</g>
		<g>
			<polygon style="fill:#FCAA47;" points="125.943,140.281 125.503,139.525 170.966,113.143 171.872,113.603 			"/>
		</g>
		<g>
			<polygon style="fill:#DD3636;" points="288.453,217.921 294.789,221.519 220.712,264.779 214.379,260.56 			"/>
			<polygon style="fill:#B71A1A;" points="169.799,305.816 294.789,233.749 294.789,221.519 216.048,266.919 211.384,269.563 
				169.799,293.585 			"/>
			<polygon style="fill:#DD3636;" points="205.048,265.964 211.384,269.563 169.799,293.585 163.463,289.96 			"/>
			<polygon style="fill:#D62929;" points="163.463,289.96 169.799,293.585 169.799,305.816 163.463,302.133 			"/>
		</g>
		<path style="fill:#B71A1A;" d="M270.28,126.638l-17.724-10.233c0,0,0.192,2.018,0.217,2.779c0.031,0.944,0.009,4.042,0.009,4.042
			l14.602,8.43c5.537,3.198,10.427,12.256,10.427,19.78v19.23c1.796,1.391,3.783,2.237,5.795,3.346v-22.576
			C283.606,141.938,277.511,130.813,270.28,126.638z"/>
		<polygon style="fill:#CC2323;" points="270.28,126.638 238.21,145.212 174.769,108.585 206.619,90.042 		"/>
		<g>
			<path style="fill:#632F2D;" d="M64.299,219.191c0-11.274,6.854-24.371,15.31-29.252c3.687-2.129,7.068-2.342,9.71-0.973
				l0.014,0.006c0.02,0.01,0.038,0.023,0.058,0.034l2.73,1.592l-0.241,0.501c1.9,2.303,3.038,5.848,3.038,10.414
				c0,11.274-6.854,24.371-15.31,29.253c-2.787,1.609-5.393,2.105-7.644,1.669l-0.191,0.397l-1.881-1.096
				c-0.032-0.016-0.061-0.037-0.093-0.054l-0.563-0.328l0.011-0.022C66.213,229.354,64.299,225.13,64.299,219.191z"/>
			<path style="fill:#3F1D1B;" d="M96.986,202.709c0,11.274-6.855,24.371-15.31,29.252c-8.455,4.882-15.31-0.3-15.31-11.574
				c0-11.274,6.855-24.371,15.31-29.252C90.131,186.253,96.986,191.435,96.986,202.709z"/>
		</g>
		<g>
			<path style="fill:#FFC255;" d="M91.152,194.661l50.422,29.06L91.152,194.661c-2.138-1.044-4.891-0.867-7.841,0.836
				c-6.902,3.985-12.498,14.676-12.498,23.879c0,4.957,1.625,8.467,4.201,10.032l91.691,52.714l16.09-34.747
				C182.796,247.376,91.373,194.771,91.152,194.661z"/>
			<path style="fill:#FCAA47;" d="M187.263,257.563c0,9.203-5.595,19.894-12.498,23.879c-6.902,3.985-12.498-0.245-12.498-9.448
				s5.595-19.894,12.498-23.879C181.668,244.13,187.263,248.36,187.263,257.563z"/>
			
				<ellipse transform="matrix(0.3916 -0.9202 0.9202 0.3916 -137.0934 323.0497)" style="fill:#EF9533;" cx="175.728" cy="265.188" rx="14.097" ry="7.975"/>
			<path style="fill:#E88725;" d="M182.181,262.009c0,4.453-2.707,9.626-6.047,11.554c-3.339,1.928-6.047-0.119-6.047-4.571
				c0-4.453,2.707-9.626,6.047-11.554C179.474,255.51,182.181,257.556,182.181,262.009z"/>
		</g>
		<g>
			<path style="fill:#4C2522;" d="M75.699,166.058c-0.208-0.1-0.468-0.086-0.755,0.079c-0.675,0.39-1.223,1.436-1.223,2.337
				c0,0.489,0.165,0.827,0.42,0.978l5.381,3.037l1.479-3.448L75.699,166.058z"/>
			<g>
				<path style="fill:#F2E8BA;" d="M81.61,166.156c-0.53-0.259-1.214-0.215-1.946,0.208c-1.713,0.989-3.102,3.643-3.102,5.927
					c0,1.23,0.403,2.102,1.043,2.49l100.737,57.935l3.994-8.624L81.61,166.156z"/>
				<path style="fill:#D8CB95;" d="M183.445,226.62c0,2.284-1.389,4.938-3.102,5.927c-1.713,0.989-3.102-0.061-3.102-2.345
					c0-2.284,1.389-4.938,3.102-5.927C182.056,223.286,183.445,224.336,183.445,226.62z"/>
			</g>
			<path style="fill:#4C2522;" d="M181.381,227.104c-0.209-0.1-0.468-0.086-0.755,0.079c-0.675,0.39-1.223,1.436-1.223,2.337
				c0,0.489,0.165,0.827,0.42,0.979l5.381,3.037l1.479-3.448L181.381,227.104z"/>
		</g>
		<g>
			<path style="fill:#FCAA47;" d="M149.239,213.733c0-2.856,1.491-5.017,2.896-5.834l50.912-29.394l-0.45-0.781l-50.973,29.43
				l0.002,0.004c-1.726,1.039-3.287,3.547-3.287,6.575c0,0,0,37.925,0,50.567c0,1.861,0.175,9.229,4.148,9.647
				c-2.772-2.669-3.247-7.758-3.247-9.61C149.239,251.686,149.239,213.733,149.239,213.733z"/>
			<path style="fill:#FCAA47;" d="M153.889,216.308c0-2.856,1.491-5.017,2.896-5.834l50.912-29.394l-0.45-0.781l-50.973,29.429
				l0.002,0.004c-1.726,1.04-3.287,3.547-3.287,6.576c0,0,0,37.925,0,50.567c0,1.861,0.175,9.229,4.148,9.647
				c-2.772-2.669-3.247-7.758-3.247-9.61C153.889,254.262,153.889,216.308,153.889,216.308z"/>
			<path style="fill:#FCAA47;" d="M158.695,219.325c0-2.856,1.491-5.017,2.896-5.834l50.912-29.394l-0.45-0.781l-50.973,29.429
				l0.002,0.004c-1.726,1.04-3.287,3.547-3.287,6.576c0,0,0,37.925,0,50.567c0,1.861,0.175,9.229,4.148,9.647
				c-2.772-2.669-3.247-7.758-3.247-9.61C158.695,257.279,158.695,219.325,158.695,219.325z"/>
			<path style="fill:#FCAA47;" d="M134.881,205.479c0-2.856,1.491-5.017,2.896-5.834l50.912-29.394l-0.45-0.781l-50.973,29.43
				l0.002,0.004c-1.726,1.04-3.287,3.547-3.287,6.575c0,0,0,37.925,0,50.567c0,1.861,0.175,9.229,4.148,9.647
				c-2.772-2.669-3.247-7.758-3.247-9.61C134.881,243.432,134.881,205.479,134.881,205.479z"/>
			<path style="fill:#FCAA47;" d="M139.531,208.167c0-2.856,1.491-5.017,2.896-5.834l50.912-29.394l-0.45-0.781l-50.973,29.43
				l0.002,0.004c-1.726,1.039-3.287,3.547-3.287,6.575c0,0,0,37.925,0,50.567c0,1.861,0.175,9.229,4.148,9.647
				c-2.772-2.669-3.247-7.758-3.247-9.61C139.531,246.12,139.531,208.167,139.531,208.167z"/>
			<path style="fill:#FCAA47;" d="M144.338,210.921c0-2.856,1.491-5.017,2.896-5.834l50.912-29.394l-0.45-0.781l-50.973,29.43
				l0.002,0.004c-1.726,1.04-3.287,3.547-3.287,6.575c0,0,0,37.925,0,50.567c0,1.861,0.175,9.229,4.148,9.647
				c-2.772-2.669-3.247-7.758-3.247-9.61C144.338,248.875,144.338,210.921,144.338,210.921z"/>
		</g>
		<g>
			<path style="fill:#FCAA47;" d="M91.82,180.692c0-2.856,1.491-5.017,2.896-5.834l50.912-29.394l-0.45-0.781l-50.973,29.43
				l0.002,0.004c-1.727,1.04-3.287,3.547-3.287,6.575c0,0,0,37.925,0,50.567c0,1.861,0.175,9.229,4.148,9.647
				c-2.772-2.669-3.247-7.758-3.247-9.61C91.82,218.645,91.82,180.692,91.82,180.692z"/>
			<path style="fill:#FCAA47;" d="M96.47,183.367c0-2.856,1.491-5.017,2.896-5.834l50.912-29.394l-0.45-0.781l-50.973,29.429
				l0.002,0.004c-1.726,1.04-3.287,3.547-3.287,6.576c0,0,0,37.925,0,50.567c0,1.861,0.175,9.229,4.148,9.647
				c-2.772-2.669-3.247-7.758-3.247-9.61C96.47,221.32,96.47,183.367,96.47,183.367z"/>
			<path style="fill:#FCAA47;" d="M101.277,186.059c0-2.856,1.491-5.017,2.896-5.834l50.912-29.394l-0.45-0.781l-50.973,29.43
				l0.002,0.004c-1.727,1.039-3.287,3.547-3.287,6.575c0,0,0,37.925,0,50.567c0,1.861,0.175,9.23,4.148,9.648
				c-2.772-2.669-3.247-7.758-3.247-9.61C101.277,224.012,101.277,186.059,101.277,186.059z"/>
			<path style="fill:#FCAA47;" d="M77.463,172.501c0-2.856,1.491-5.017,2.896-5.834l50.912-29.395l-0.45-0.781l-50.973,29.43
				l0.002,0.004c-1.726,1.04-3.287,3.547-3.287,6.575c0,0,0,37.925,0,50.567c0,1.861,0.175,9.23,4.148,9.647
				c-2.772-2.669-3.247-7.758-3.247-9.61C77.463,210.455,77.463,172.501,77.463,172.501z"/>
			<path style="fill:#FCAA47;" d="M82.113,175.126c0-2.856,1.491-5.017,2.895-5.834l50.912-29.394l-0.45-0.781l-50.973,29.43
				l0.002,0.004c-1.727,1.04-3.287,3.547-3.287,6.575c0,0,0,37.925,0,50.567c0,1.861,0.175,9.23,4.148,9.647
				c-2.772-2.669-3.247-7.758-3.247-9.61C82.113,213.079,82.113,175.126,82.113,175.126z"/>
			<path style="fill:#FCAA47;" d="M86.919,177.853c0-2.856,1.491-5.017,2.896-5.834l50.912-29.394l-0.45-0.781l-50.973,29.43
				l0.002,0.004c-1.726,1.04-3.287,3.547-3.287,6.575c0,0,0,37.925,0,50.567c0,1.861,0.175,9.23,4.148,9.647
				c-2.772-2.669-3.247-7.758-3.247-9.61C86.919,215.807,86.919,177.853,86.919,177.853z"/>
		</g>
		<g>
			<path style="fill:#FCAA47;" d="M120.573,197.276c0-2.856,1.491-5.017,2.896-5.834l50.912-29.394l-0.45-0.781l-50.973,29.43
				l0.002,0.004c-1.726,1.04-3.287,3.547-3.287,6.575c0,0,0,37.925,0,50.567c0,1.861,0.175,9.23,4.147,9.648
				c-2.772-2.669-3.247-7.758-3.247-9.61C120.573,235.229,120.573,197.276,120.573,197.276z"/>
			<path style="fill:#FCAA47;" d="M125.223,199.926c0-2.856,1.491-5.017,2.896-5.834l50.912-29.394l-0.45-0.781l-50.973,29.43
				l0.002,0.004c-1.726,1.04-3.287,3.547-3.287,6.575c0,0,0,37.925,0,50.567c0,1.861,0.175,9.229,4.148,9.647
				c-2.772-2.669-3.247-7.758-3.247-9.61C125.223,237.88,125.223,199.926,125.223,199.926z"/>
			<path style="fill:#FCAA47;" d="M130.029,202.718c0-2.856,1.491-5.017,2.896-5.834l50.912-29.395l-0.45-0.781l-50.973,29.43
				l0.002,0.004c-1.726,1.039-3.287,3.547-3.287,6.575c0,0,0,37.925,0,50.567c0,1.861,0.175,9.23,4.148,9.647
				c-2.772-2.669-3.247-7.758-3.247-9.61C130.029,240.672,130.029,202.718,130.029,202.718z"/>
			<path style="fill:#FCAA47;" d="M106.215,189.097c0-2.856,1.491-5.017,2.896-5.834l50.912-29.394l-0.45-0.781l-50.973,29.43
				l0.002,0.004c-1.726,1.04-3.287,3.547-3.287,6.576c0,0,0,37.925,0,50.567c0,1.861,0.175,9.23,4.148,9.647
				c-2.772-2.669-3.247-7.758-3.247-9.61C106.215,227.05,106.215,189.097,106.215,189.097z"/>
			<path style="fill:#FCAA47;" d="M110.865,191.672c0-2.856,1.491-5.017,2.896-5.834l50.912-29.394l-0.45-0.781l-50.973,29.43
				l0.002,0.004c-1.726,1.04-3.287,3.547-3.287,6.576c0,0,0,37.925,0,50.567c0,1.861,0.175,9.229,4.148,9.647
				c-2.772-2.669-3.247-7.758-3.247-9.61C110.865,229.626,110.865,191.672,110.865,191.672z"/>
			<path style="fill:#FCAA47;" d="M115.672,194.314c0-2.856,1.491-5.017,2.896-5.834l50.912-29.394l-0.45-0.781l-50.973,29.43
				l0.002,0.004c-1.726,1.04-3.287,3.547-3.287,6.575c0,0,0,37.925,0,50.567c0,1.861,0.175,9.23,4.148,9.647
				c-2.772-2.669-3.247-7.758-3.247-9.61C115.672,232.268,115.672,194.314,115.672,194.314z"/>
		</g>
		<g>
			<path style="fill:#632F2D;" d="M160.045,274.518c0-11.274,6.855-24.371,15.31-29.253c3.687-2.128,7.068-2.342,9.71-0.973
				l0.014,0.006c0.02,0.01,0.039,0.023,0.058,0.034l2.73,1.592l-0.241,0.501c1.9,2.303,3.038,5.848,3.038,10.414
				c0,11.274-6.855,24.371-15.31,29.253c-2.787,1.609-5.393,2.104-7.644,1.669l-0.191,0.397l-1.881-1.096
				c-0.032-0.016-0.062-0.037-0.093-0.054l-0.562-0.328l0.011-0.023C161.958,284.681,160.045,280.457,160.045,274.518z"/>
			<path style="fill:#3F1D1B;" d="M192.731,258.036c0,11.274-6.855,24.371-15.31,29.253c-8.455,4.882-15.31-0.3-15.31-11.574
				c0-11.274,6.855-24.371,15.31-29.253C185.877,241.581,192.731,246.762,192.731,258.036z"/>
		</g>
		<g>
			<path style="fill:#D8CB95;" d="M167.946,271.242c0-6.415,3.9-13.867,8.711-16.645c2.098-1.211,4.022-1.332,5.525-0.554
				l0.008,0.004c0.011,0.006,0.022,0.013,0.033,0.019l1.554,0.906l-0.137,0.285c1.081,1.311,1.729,3.327,1.729,5.925
				c0,6.415-3.9,13.867-8.711,16.645c-1.586,0.916-3.068,1.198-4.349,0.95l-0.109,0.226l-1.07-0.623
				c-0.018-0.009-0.035-0.021-0.053-0.031l-0.32-0.187l0.006-0.013C169.035,277.025,167.946,274.621,167.946,271.242z"/>
			<path style="fill:#F2E8BA;" d="M186.545,261.864c0,6.415-3.9,13.867-8.712,16.645c-4.811,2.778-8.711-0.171-8.711-6.586
				c0-6.415,3.9-13.867,8.711-16.645C182.645,252.501,186.545,255.449,186.545,261.864z"/>
		</g>
		<path style="fill:#B71A1A;" d="M123.764,82.6c0-3.773,1.083-6.651,2.896-7.699c1.698-0.979,3.797-0.176,5.26,0.668l70.68,40.805
			c6.169,3.563,11.657,13.655,11.657,22.037v25.08c2.001,1.55,4.215,2.815,6.456,4.05v-29.13c0-10.582-6.83-22.975-14.886-27.627
			l-70.679-40.805c-4.149-2.396-8.308-2.635-11.715-0.667c-3.89,2.245-6.122,7.089-6.122,13.287v26.312
			c2.128-0.68,4.276-1.281,6.454-1.765V82.6z"/>
		<g>
			<polygon style="fill:#B71A1A;" points="220.712,270.296 211.384,275.681 211.384,141.634 220.712,140.447 			"/>
			<polygon style="fill:#D62929;" points="205.048,138.022 211.384,141.634 211.384,269.563 205.048,265.964 			"/>
		</g>
		<g>
			<path style="fill:#D62929;" d="M183.599,224.536c0.22-0.209,0.464-0.448,0.7-0.676v1.076l2.499,1.428l-1.856,14.572l-3.141-1.815
				l0.002-0.015c-1.002-0.265-1.303-1.776-1.409-3.703C180.17,231.326,180.582,227.406,183.599,224.536z"/>
			<path style="fill:#B71A1A;" d="M211.362,201.368c0,0-18.977,18.663-24.564,24.995c-2.755,3.122-3.429,6.79-3.205,10.867
				c0.182,3.307,0.907,5.442,4.826,2.051c5.732-4.96,22.943-18.793,22.943-18.793V201.368z"/>
			<polygon style="fill:#DD3636;" points="208.163,199.541 211.362,201.368 186.798,226.364 183.599,224.536 			"/>
		</g>
		<g>
			<path style="fill:#773939;" d="M211.387,247.828l-1.939-1.086l-29.217,16.869c-1.649,0.952-2.999,3.53-2.999,5.729
				c0,1.221,0.425,2.06,1.077,2.418l-0.004,0.015l2.038,1.13l1.24-2.077l27.865-16.088L211.387,247.828z"/>
			<path style="fill:#4C2522;" d="M182.169,264.697l29.217-16.869v7.996l-29.217,16.869c-1.649,0.952-2.999-0.068-2.999-2.267
				C179.171,268.228,180.52,265.65,182.169,264.697z"/>
		</g>
		<path style="fill:#B71A1A;" d="M120.78,76.321c0,0-6.749-0.547-8.39,5.837c-1.642,6.384,0.983,21.523,0.983,21.523l7.407-4.378
			V76.321z"/>
		<path style="fill:#B71A1A;" d="M200.124,110.005l-6.87,5.107c0,0,14.045,16.781,15.747,22.739
			c1.702,5.958,1.094,16.585,1.094,16.585l8.39-5.641c0,0-1.216-21.645-6.323-27.725
			C207.055,114.99,200.124,110.005,200.124,110.005z"/>
		<g>
			<polygon style="fill:#FFC255;" points="208.879,136.371 118.793,84.225 116.035,85.813 208.879,139.48 			"/>
			<polygon style="fill:#FCAA47;" points="208.879,139.397 116.035,85.793 116.035,97.63 208.879,151.234 			"/>
		</g>
		<g>
			<polygon style="fill:#FFC255;" points="205.048,167.658 118.793,117.73 116.035,119.318 205.048,170.69 			"/>
			<polygon style="fill:#FCAA47;" points="205.048,170.69 116.035,119.298 116.035,131.135 205.048,182.527 			"/>
		</g>
		<path style="fill:#D62929;" d="M114.536,87.938c0-3.773,1.082-6.651,2.896-7.699c1.698-0.979,3.797-0.176,5.259,0.668
			l70.68,40.805c6.169,3.563,11.617,13.655,11.617,22.037v25.08c2.001,1.55,4.215,2.815,6.456,4.049V143.75
			c0-10.582-6.79-22.975-14.846-27.627l-70.679-40.805c-4.149-2.396-8.309-2.635-11.715-0.667c-3.89,2.244-6.122,7.088-6.122,13.287
			v26.312c2.128-0.68,4.276-1.281,6.454-1.765V87.938z"/>
		<polygon style="fill:#B71A1A;" points="135.147,69.979 125.919,75.317 196.598,116.123 205.826,110.785 		"/>
		<path style="fill:#B71A1A;" d="M251.536,192.586l32.07-18.574c0,0-2.425-28.813-5.617-34.036
			c-3.192-5.223-7.709-13.338-7.709-13.338l-32.07,18.574c0,0,7.677,14.41,9.683,24.548
			C249.899,179.897,251.536,192.586,251.536,192.586z"/>
		<path style="fill:#D62929;" d="M238.21,145.212l-17.724-10.233c0,0,0.192,2.018,0.217,2.779c0.031,0.944,0.009,4.042,0.009,4.042
			l14.602,8.43c5.537,3.198,10.427,12.256,10.427,19.78v19.231l5.795,3.346V170.01C251.536,160.512,245.441,149.387,238.21,145.212z
			"/>
	</g>
	<g>
		<polygon style="fill:#FFC255;" points="270.157,188.579 270.157,270.932 299.691,254.165 299.691,171.736 		"/>
		<polygon style="fill:#FFFFFF;" points="298.307,174.8 271.234,190.24 271.234,197.724 298.307,182.353 		"/>
		<polygon style="fill:#FCAA47;" points="259.794,182.669 270.157,188.579 270.157,271.001 259.794,265.094 		"/>
		<polygon style="fill:#ED9637;" points="262.18,186.622 267.771,189.811 267.771,265.327 262.18,262.14 		"/>
		<g>
			<path style="fill:#ED9637;" d="M271.137,255.521l27.573-15.7v-25.376l-27.573,15.709V255.521z M298.161,239.503l-26.475,15.074
				v-24.107l26.475-15.082V239.503z"/>
		</g>
		<g>
			<polygon style="fill:#6389D3;" points="298.173,191.846 277.182,203.803 277.182,224.355 298.173,212.403 			"/>
			<polygon style="fill:#6389D3;" points="275.703,197.636 271.059,200.282 271.059,228.403 275.703,225.758 			"/>
			<polygon style="fill:#FFFFFF;" points="284.539,200.65 277.831,204.472 277.831,209.781 284.539,205.962 			"/>
			<polygon style="fill:#4C2522;" points="284.539,206.98 277.831,210.801 277.831,222.995 284.539,219.176 			"/>
			<path style="fill:#4C2522;" d="M297.018,194.266v17.365l-11.152,6.099v-17.363L297.018,194.266L297.018,194.266z
				 M297.381,193.653l-11.878,6.498v18.192l11.878-6.497V193.653L297.381,193.653z"/>
			<g>
				<path style="fill:#4C2522;" d="M278.473,196.22c-0.919,0.531-1.665,1.956-1.665,3.182c0,1.226,0.745,1.79,1.665,1.259
					c0.92-0.531,1.665-1.955,1.665-3.182C280.139,196.252,279.393,195.689,278.473,196.22z"/>
				<g>
					<path style="fill:#6389D3;" d="M279.375,196.759l-0.003,0.006c-0.207-0.092-0.463-0.074-0.744,0.088
						c-0.68,0.392-1.231,1.445-1.231,2.352c0,0.467,0.148,0.801,0.383,0.964l-0.002,0.004l1.258,0.711l1.605-3.415L279.375,196.759z
						"/>
					<path style="fill:#91A9E5;" d="M279.859,197.546c-0.68,0.393-1.231,1.446-1.231,2.352c0,0.906,0.551,1.323,1.231,0.93
						s1.231-1.445,1.231-2.352C281.09,197.57,280.539,197.154,279.859,197.546z"/>
				</g>
			</g>
			<g>
				<path style="fill:#4C2522;" d="M284.335,193.126c-0.919,0.531-1.665,1.956-1.665,3.182c0,1.226,0.746,1.79,1.665,1.259
					c0.92-0.531,1.665-1.955,1.665-3.182C286.001,193.159,285.255,192.595,284.335,193.126z"/>
				<g>
					<path style="fill:#6389D3;" d="M285.237,193.666l-0.003,0.006c-0.207-0.092-0.463-0.074-0.744,0.088
						c-0.68,0.393-1.231,1.445-1.231,2.352c0,0.467,0.148,0.801,0.383,0.964l-0.001,0.003l1.258,0.711l1.605-3.415L285.237,193.666z
						"/>
					<path style="fill:#91A9E5;" d="M285.721,194.453c-0.68,0.393-1.231,1.446-1.231,2.352c0,0.906,0.551,1.323,1.231,0.931
						c0.68-0.393,1.231-1.446,1.231-2.352C286.952,194.477,286.401,194.061,285.721,194.453z"/>
				</g>
			</g>
			<g>
				<path style="fill:#4C2522;" d="M290.321,189.548c-0.92,0.531-1.665,1.956-1.665,3.182c0,1.226,0.746,1.79,1.665,1.259
					c0.92-0.531,1.665-1.956,1.665-3.182C291.986,189.581,291.24,189.017,290.321,189.548z"/>
				<g>
					<path style="fill:#6389D3;" d="M291.222,190.088l-0.003,0.006c-0.207-0.091-0.463-0.074-0.744,0.088
						c-0.68,0.393-1.231,1.445-1.231,2.352c0,0.468,0.148,0.801,0.383,0.964l-0.002,0.004l1.258,0.711l1.605-3.415L291.222,190.088z
						"/>
					<path style="fill:#91A9E5;" d="M291.706,190.875c-0.68,0.393-1.231,1.446-1.231,2.352c0,0.907,0.551,1.323,1.231,0.931
						c0.68-0.392,1.231-1.446,1.231-2.352C292.937,190.899,292.386,190.482,291.706,190.875z"/>
				</g>
			</g>
			<g>
				<path style="fill:#4C2522;" d="M296.205,186.449c-0.92,0.531-1.665,1.955-1.665,3.182c0,1.226,0.745,1.79,1.665,1.259
					c0.92-0.531,1.665-1.956,1.665-3.182C297.87,186.482,297.124,185.918,296.205,186.449z"/>
				<g>
					<path style="fill:#6389D3;" d="M297.106,186.989l-0.003,0.006c-0.207-0.092-0.463-0.074-0.744,0.088
						c-0.68,0.393-1.231,1.445-1.231,2.352c0,0.467,0.148,0.801,0.383,0.964l-0.002,0.003l1.258,0.711l1.605-3.415L297.106,186.989z
						"/>
					<path style="fill:#91A9E5;" d="M297.59,187.775c-0.68,0.393-1.231,1.446-1.231,2.352c0,0.907,0.551,1.323,1.231,0.931
						c0.68-0.393,1.231-1.445,1.231-2.352C298.822,187.799,298.27,187.383,297.59,187.775z"/>
				</g>
			</g>
			<g>
				<polygon style="fill:#FFFFFF;" points="286.368,200.924 288.987,199.387 288.987,200.377 286.368,201.914 				"/>
				<polygon style="fill:#FFFFFF;" points="286.368,203.45 288.987,201.914 288.987,202.903 286.368,204.44 				"/>
				<polygon style="fill:#FFFFFF;" points="286.368,206.08 288.987,204.543 288.987,205.533 286.368,207.07 				"/>
				<polygon style="fill:#FFFFFF;" points="293.819,197.083 296.438,195.546 296.438,196.536 293.819,198.073 				"/>
				<polygon style="fill:#FFFFFF;" points="293.819,199.609 296.438,198.073 296.438,199.062 293.819,200.599 				"/>
				<polygon style="fill:#FFFFFF;" points="293.819,202.238 296.438,200.702 296.438,201.692 293.819,203.228 				"/>
			</g>
			<g>
				<polygon style="fill:#FFFFFF;" points="286.368,210.663 288.987,209.127 288.987,210.117 286.368,211.653 				"/>
				<polygon style="fill:#FFFFFF;" points="286.368,213.293 288.987,211.756 288.987,212.746 286.368,214.283 				"/>
				<polygon style="fill:#FFFFFF;" points="286.368,215.819 288.987,214.283 288.987,215.273 286.368,216.809 				"/>
				<polygon style="fill:#FFFFFF;" points="293.819,206.822 296.438,205.285 296.438,206.275 293.819,207.811 				"/>
				<polygon style="fill:#FFFFFF;" points="293.819,209.452 296.438,207.915 296.438,208.905 293.819,210.441 				"/>
				<polygon style="fill:#FFFFFF;" points="293.819,211.978 296.438,210.441 296.438,211.431 293.819,212.968 				"/>
			</g>
			<g>
				<polygon style="fill:#4C2522;" points="272.224,205.04 274.843,203.504 274.843,204.494 272.224,206.03 				"/>
				<g>
					<path style="fill:#4C2522;" d="M273.688,199.431c-0.845,0.488-1.53,1.796-1.53,2.923c0,1.126,0.685,1.644,1.53,1.156
						c0.845-0.488,1.529-1.796,1.529-2.923C275.218,199.461,274.533,198.943,273.688,199.431z"/>
					<path style="fill:#FFFFFF;" d="M273.867,200.052c-0.588,0.339-1.064,1.249-1.064,2.033c0,0.783,0.476,1.143,1.064,0.804
						c0.588-0.339,1.064-1.249,1.064-2.033S274.455,199.713,273.867,200.052z"/>
				</g>
				<polygon style="fill:#4C2522;" points="272.224,212.118 274.843,210.582 274.843,211.572 272.224,213.108 				"/>
				<g>
					<path style="fill:#4C2522;" d="M273.688,206.509c-0.845,0.488-1.53,1.796-1.53,2.923c0,1.126,0.685,1.644,1.53,1.156
						c0.845-0.488,1.529-1.796,1.529-2.923S274.533,206.021,273.688,206.509z"/>
					<path style="fill:#FFFFFF;" d="M273.867,207.131c-0.588,0.339-1.064,1.249-1.064,2.033c0,0.783,0.476,1.143,1.064,0.804
						c0.588-0.339,1.064-1.249,1.064-2.033C274.931,207.151,274.455,206.791,273.867,207.131z"/>
				</g>
			</g>
			<g>
				<polygon style="fill:#4C2522;" points="272.224,219.012 274.843,217.476 274.843,218.466 272.224,220.002 				"/>
				<g>
					<path style="fill:#4C2522;" d="M273.688,213.403c-0.845,0.487-1.53,1.796-1.53,2.923c0,1.126,0.685,1.644,1.53,1.156
						c0.845-0.488,1.529-1.796,1.529-2.923C275.218,213.433,274.533,212.915,273.688,213.403z"/>
					<path style="fill:#FFFFFF;" d="M273.867,214.024c-0.588,0.339-1.064,1.249-1.064,2.033c0,0.784,0.476,1.144,1.064,0.805
						c0.588-0.339,1.064-1.249,1.064-2.033C274.931,214.045,274.455,213.685,273.867,214.024z"/>
				</g>
				<polygon style="fill:#4C2522;" points="272.224,226.091 274.843,224.555 274.843,225.545 272.224,227.081 				"/>
				<g>
					<path style="fill:#4C2522;" d="M273.688,220.482c-0.845,0.488-1.53,1.796-1.53,2.923c0,1.126,0.685,1.644,1.53,1.156
						c0.845-0.488,1.529-1.796,1.529-2.923C275.218,220.512,274.533,219.994,273.688,220.482z"/>
					<path style="fill:#FFFFFF;" d="M273.867,221.103c-0.588,0.339-1.064,1.249-1.064,2.033c0,0.783,0.476,1.143,1.064,0.804
						c0.588-0.339,1.064-1.249,1.064-2.033C274.931,221.124,274.455,220.764,273.867,221.103z"/>
				</g>
			</g>
		</g>
		<polygon style="fill:#FFC871;" points="259.794,182.669 270.157,188.579 299.691,171.736 289.244,166.301 		"/>
	</g>
	<g>
		<polygon style="fill:#262626;" points="311.418,205.93 301.835,211.361 296.439,194.443 306.022,189.011 		"/>
		<polygon style="fill:#494949;" points="311.775,205.751 302.192,211.182 296.796,194.264 306.379,188.832 		"/>
		<polygon style="fill:#FFFFFF;" points="310.662,204.15 302.503,208.776 297.908,194.37 306.068,189.745 		"/>
		<path style="fill:#FFC4B2;" d="M309.036,197.225c0.14,0.44,0.598,1.874,0.598,1.874s-0.983,0.537-1.371,0.866
			c-0.389,0.329-0.06,0.658,0.419,0.658c0.479,0,1.376,0.12,1.764,0c0.389-0.12,0.831-0.26,0.831-0.26l1.148-1.98
			C312.425,198.383,310.557,196.938,309.036,197.225z"/>
		<path style="fill:#FFC4B2;" d="M299.935,205.054c0,0,0.837-0.389,1.794-0.468c0.551-0.046,0.64,0.203,0.5,0.471
			c-0.103,0.198-0.331,0.407-0.59,0.516c-0.216,0.09-0.666,0.725-1.18,1.346c-0.56,0.676-0.644,1.436-0.644,1.436
			s0.542,2.363-0.598,1.309c-1.376-1.272-2.363-3.929-1.705-5.197c0.658-1.268,1.501-1.949,1.501-1.949L299.935,205.054z"/>
		<path style="fill:#B7C7E5;" d="M324.28,190.683c0,0,3.064-0.967,4.717,1.984c1.653,2.951,0.397,7.499-0.68,9.038
			c-1.077,1.539-5.437-3.116-5.437-3.116L324.28,190.683z"/>
		<g>
			<path style="fill:#FFC4B2;" d="M320.657,271.967c-1.647-0.823-3.211-1.83-2.711-2.77c0.226-0.424,0.75-0.612,1.257-0.697
				c1.519,0.5,2.523,0.414,2.523,0.414s-0.97-15.517-1.056-19.953c-0.024-1.223,5.496-2.098,5.496-2.098
				c0.072,0.295,0.839,3.083,0.817,5.87c-0.04,5.156-0.922,12.844-1.174,15.772c-0.13,1.512,0.357,2.382,0.468,3.114
				c-0.392,0.17-1.201,0.523-1.804,0.797C323.651,272.791,322.304,272.791,320.657,271.967z"/>
			<path style="fill:#4C2522;" d="M326.346,274.018c-0.55,1.31-1.82,1.188-4.385,0.265c-2.277-0.819-4.155-1.746-5.773-2.944
				c-1.619-1.198-1.635-1.357-1.849-2.167c-0.299-1.134,1.356-1.77,4.109-0.915c0.272,0.085,0.522,0.165,0.757,0.242
				c-0.507,0.085-1.031,0.272-1.257,0.697c-0.5,0.939,1.064,1.946,2.711,2.77c1.647,0.824,2.994,0.824,3.818,0.449
				c0.603-0.274,1.412-0.626,1.804-0.797C326.445,272.721,326.677,273.231,326.346,274.018z"/>
		</g>
		<g>
			<path style="fill:#FFC4B2;" d="M312.648,276.615c-1.647-0.823-3.211-1.83-2.71-2.77c0.226-0.425,0.75-0.612,1.257-0.697
				c1.519,0.5,2.299,0.566,2.299,0.566s0.54-6.325,0.322-12.763c-0.183-5.43-1.119-11.567-1.416-13.239
				c-0.214-1.204,5.704-1.257,5.704-1.257c0.063,0.258,1.962,4.876,1.991,7.554c0.064,6.059-1.974,16.013-2.242,19.141
				c-0.13,1.512,0.307,2.386,0.418,3.117c-0.392,0.17-1.201,0.522-1.804,0.796C315.642,277.439,314.294,277.439,312.648,276.615z"/>
			<path style="fill:#4C2522;" d="M318.337,278.667c-0.55,1.311-1.82,1.188-4.385,0.265c-2.277-0.819-4.155-1.746-5.774-2.944
				c-1.619-1.198-1.635-1.357-1.849-2.167c-0.299-1.134,1.356-1.77,4.109-0.915c0.272,0.085,0.522,0.165,0.757,0.242
				c-0.507,0.085-1.031,0.272-1.257,0.697c-0.501,0.939,1.064,1.946,2.71,2.77c1.647,0.823,2.994,0.823,3.818,0.449
				c0.603-0.274,1.412-0.626,1.804-0.796C318.436,277.369,318.667,277.879,318.337,278.667z"/>
		</g>
		<path style="fill:#FFC4B2;" d="M318.672,176.3c-0.681,0.472-3.22,1.056-3.93,6.651c-0.629,4.957,0.463,6.248,1.47,6.668
			c0.556,0.232,2.536,0.225,2.536,0.225l-0.076,4.187c0,0,2.455,0.971,4.809,0c2.355-0.971,2.355-0.971,2.355-0.971
			s-0.92-1.585-0.766-4.33c0.191-3.404,1.397-8.252,0.543-10.055C324.072,175.418,320.52,175.017,318.672,176.3z"/>
		<path style="fill:#E1E9F9;" d="M329.183,199.832c-1.036-8.189-3.268-8.592-3.268-8.592s-6.278,1.621-7.99,2.2
			c-1.617,0.547-3.062,1.375-4.75,4.764c-1.688,3.39,0.46,8.317,0.46,8.317s0.372,4.206-0.301,9.3
			c-0.493,3.732-0.897,4.059-2.376,9.941c-0.78,3.101-3.635,14.535-3.999,23.471c0,0,2.246,3.413,9.763,3.917
			c5.153,0.346,13.907-4.974,13.907-4.974s1.176-22.277-1.956-30.067C326.514,212.741,329.696,203.88,329.183,199.832z"/>
		<path style="fill:#703434;" d="M318.421,184.456c1.388,1.451,2.746,1.909,3.16,3.217c4.872,0.059,6.973-2.632,8.041-7.492
			c-1.788-2.942-4.185-5.14-6.663-5.664c-5.992-1.266-8.306,1.442-7.937,5.385C315.202,181.824,317.016,182.987,318.421,184.456z"/>
		<path style="fill:#FFC4B2;" d="M315.621,196.067c-2.656,0.253-7.76,12.008-7.76,12.008s-0.223,0.051-0.608,0.122
			c-0.274,1.617-0.318,3.241-0.106,4.849c1.045-0.02,1.952-0.168,2.573-0.535c0,0,8.404-6.874,8.585-10.905
			C318.446,198.455,317.007,195.935,315.621,196.067z"/>
		<path style="fill:#FFC4B2;" d="M316.212,183.779c0,0,1.47-2.519,2.102,0c0.587,2.34-1.453,3.127-1.453,3.127L316.212,183.779z"/>
		<g>
			<path style="fill:#D1DDF2;" d="M314.557,181.824c0,0-1.173-1.955-0.914-5.011c0.259-3.057,3.47-5.659,8.504-4.477
				c5.033,1.181,6.984,4.431,7.983,7.89c0.999,3.46,0.613,6.786-2.223,7.645c-2.836,0.859-7.437,1.328-9.049-1.064
				C316.743,183.668,314.557,181.824,314.557,181.824z"/>
			<path style="fill:#9DB8E0;" d="M315.072,178.013c0,0,0.125,1.964,0.232,2.925c0.153,1.371,0.598,2.188,0.598,2.188
				s0.688-1.475,0.241-2.552C315.696,179.498,315.072,178.013,315.072,178.013z"/>
			<path style="fill:#9DB8E0;" d="M317.926,180.306c0,0-0.467,1.869-0.609,2.82c-0.142,0.952-0.137,1.442-0.137,1.442
				s0.975-0.106,1.241-1.212C318.687,182.249,317.926,180.306,317.926,180.306z"/>
			<path style="fill:#9DB8E0;" d="M322.88,186.131c0,0-1.312,0.061-2.209-0.357c-0.897-0.419-2.546-0.373-2.546-0.373
				s1.429,1.489,2.99,1.309C322.676,186.529,322.88,186.131,322.88,186.131z"/>
			<path style="fill:#9DB8E0;" d="M314.162,180.938l0.395,1.371c0,0,0.967,0.541,1.655,1.471c0.689,0.93,1.912,1.994,1.912,1.994
				s-1.471-2.903-2.548-3.811C314.5,181.053,314.162,180.938,314.162,180.938z"/>
			<path style="opacity:0.8;fill:#FFFFFF;" d="M318.315,173.025c-2,0.008-2.794,0.997-2.632,1.881
				c0.163,0.884,1.221,1.225,2.442,1.907c1.221,0.682,2.911,3.031,3.457,5.624c0.545,2.594,2.75,4.461,4.653,4.469
				c1.904,0.008,3.01-0.307,3.399-2.123c0.389-1.816,0.229-3.103-0.877-2.465c-2.337,1.35-4.835,1.615-5.463-1.38
				c-0.628-2.995-2.35-3.757-3.689-5.091C318.263,174.514,320.602,173.015,318.315,173.025z"/>
		</g>
		<path style="fill:#B7C7E5;" d="M316.294,194.212c0,0,1.795-2.702,4.845-3.384c3.05-0.683,3.949-1.042,3.949-1.042l0.827,1.455
			C325.916,191.241,321.318,192.985,316.294,194.212z"/>
		<path style="fill:#B7C7E5;" d="M316.294,195.738c-1.254-0.492-2.31,0.558-3.488,2.014c-1.177,1.455-4.766,8.673-5.305,8.922
			c-0.538,0.249-0.718-0.518-1.705,0c-0.987,0.518-1.376,0.327-2.094,0.103c-0.718-0.224-2.961-0.449-2.961-0.449
			s-2.841,0.987-1.465,4.037c1.316,0.493,3.96,1.727,6.849,2.68c1.824,0.602,3.275,0.91,4.889,0c1.615-0.91,7.263-6.453,7.886-9.204
			C319.524,201.091,319.344,196.934,316.294,195.738z"/>
	</g>
</g>
<g>
	<g>
		<path style="fill:#FFC255;" d="M231.185,46.607l-0.406,8.82c-0.364-0.056-0.949-0.126-1.753-0.21
			c-0.495-0.028-1.3-0.056-2.412-0.084c-0.056,0.552-0.153,1.884-0.294,3.996c-0.104,2.047-0.271,5.053-0.505,9.016h-6.786
			c-0.075-1.888-0.216-4.856-0.421-8.904c-0.094-1.402-0.191-2.771-0.295-4.108l-2.215,0.084l-2.006,0.21l-0.351-8.82H231.185z"/>
		<path style="fill:#FFC255;" d="M246.75,46.607l-0.603,8.876c-0.346-0.056-1.094-0.154-2.243-0.294
			c-0.785-0.075-1.646-0.122-2.58-0.14l-0.211,2.678c1.028,0.028,2.706,0.005,5.034-0.07c-0.103,0.346-0.267,0.991-0.491,1.935
			c-0.131,0.57-0.247,1.229-0.351,1.977c-0.271-0.065-0.948-0.149-2.033-0.252c-0.504-0.028-1.252-0.037-2.243-0.028l-0.14,3.127
			c0.7-0.009,1.99-0.07,3.869-0.182c0.355-0.028,0.939-0.14,1.753-0.336c-0.074,0.289-0.247,0.986-0.518,2.089
			c-0.131,0.57-0.29,1.29-0.477,2.159h-12.55l-0.406-10.993c-0.075-2.515-0.258-6.029-0.547-10.545H246.75z"/>
		<path style="fill:#FFC255;" d="M268.315,46.607c-0.374,0.711-1.323,2.426-2.847,5.146c-0.869,1.505-2.169,3.655-3.897,6.45
			l5.104,9.941h-6.52l-2.665-4.389c-1.159,1.776-2.08,3.239-2.762,4.389h-5.735c0.495-0.747,1.585-2.51,3.268-5.286
			c0.654-1.122,1.393-2.402,2.215-3.842c-0.616-1.009-1.612-2.706-2.986-5.09c-1.496-2.683-2.818-5.123-3.968-7.319h9.647
			c0.121,0.393,0.384,1.159,0.785,2.3c0.243,0.654,0.547,1.36,0.912,2.117c0.233-0.402,0.607-1.089,1.121-2.062
			c0.299-0.607,0.646-1.393,1.038-2.355H268.315z"/>
		<path style="fill:#FFC255;" d="M286.151,46.607l-0.406,8.82c-0.364-0.056-0.949-0.126-1.753-0.21
			c-0.495-0.028-1.3-0.056-2.412-0.084c-0.056,0.552-0.153,1.884-0.294,3.996c-0.104,2.047-0.272,5.053-0.505,9.016h-6.786
			c-0.075-1.888-0.216-4.856-0.421-8.904c-0.094-1.402-0.191-2.771-0.295-4.108l-2.215,0.084l-2.006,0.21l-0.351-8.82H286.151z"/>
		<path style="fill:#FFC255;" d="M296.71,46.607l-0.547,11.456c-0.103,2.468-0.224,5.828-0.364,10.081h-7.866l-0.953-21.538H296.71z
			"/>
		<path style="fill:#FFC255;" d="M312.415,63.896c-0.094,0.374-0.267,1.08-0.52,2.117c-0.131,0.608-0.243,1.318-0.336,2.131h-12.691
			c-0.047-2.197-0.163-5.814-0.35-10.853c-0.122-2.58-0.342-6.142-0.659-10.685h9.73l-0.799,17.864c0.906,0,2.267-0.098,4.08-0.294
			C311.246,64.14,311.761,64.046,312.415,63.896z"/>
		<path style="fill:#FFC255;" d="M327.81,46.607l-0.602,8.876c-0.346-0.056-1.094-0.154-2.243-0.294
			c-0.785-0.075-1.646-0.122-2.58-0.14l-0.211,2.678c1.028,0.028,2.706,0.005,5.034-0.07c-0.103,0.346-0.267,0.991-0.491,1.935
			c-0.131,0.57-0.247,1.229-0.351,1.977c-0.27-0.065-0.948-0.149-2.033-0.252c-0.504-0.028-1.252-0.037-2.243-0.028l-0.14,3.127
			c0.7-0.009,1.99-0.07,3.869-0.182c0.355-0.028,0.94-0.14,1.753-0.336c-0.074,0.289-0.247,0.986-0.519,2.089
			c-0.131,0.57-0.29,1.29-0.477,2.159h-12.55l-0.406-10.993c-0.075-2.515-0.258-6.029-0.547-10.545H327.81z"/>
	</g>
	<g>
		<path style="fill:#421F1D;" d="M271.366,80.282c0.079,0.108,0.015,0.168-0.191,0.177c-0.207,0.01-0.463-0.015-0.768-0.074
			c-0.305-0.059-0.607-0.147-0.907-0.266c-0.3-0.118-0.499-0.256-0.598-0.413c-0.246-0.423-0.415-0.964-0.509-1.622
			c-0.094-0.659-0.13-1.367-0.11-2.124c0.02-0.757,0.086-1.535,0.199-2.331c0.112-0.797,0.248-1.549,0.405-2.257
			c0.02-0.079-0.002-0.116-0.066-0.111c-0.064,0.005-0.105,0.022-0.125,0.052c-0.177,0.236-0.376,0.553-0.598,0.952
			c-0.222,0.398-0.455,0.829-0.701,1.291c-0.245,0.462-0.489,0.927-0.729,1.394c-0.241,0.467-0.47,0.89-0.687,1.269
			c-0.217,0.379-0.411,0.689-0.583,0.93c-0.172,0.241-0.307,0.361-0.405,0.361c-0.187,0-0.366-0.032-0.538-0.096
			c-0.173-0.064-0.325-0.145-0.458-0.244c-0.133-0.098-0.238-0.209-0.317-0.332c-0.078-0.122-0.112-0.243-0.103-0.361
			c-0.01-0.118,0.002-0.339,0.036-0.664c0.035-0.324,0.079-0.701,0.133-1.128c0.055-0.428,0.118-0.88,0.192-1.357
			c0.073-0.477,0.147-0.929,0.221-1.357c0.074-0.428,0.143-0.804,0.207-1.129c0.064-0.324,0.115-0.546,0.155-0.663
			c0.02-0.099,0-0.138-0.06-0.118c-0.059,0.02-0.099,0.054-0.118,0.103c-0.374,0.64-0.723,1.301-1.047,1.984
			c-0.325,0.684-0.622,1.35-0.893,1.999c-0.271,0.649-0.515,1.264-0.73,1.844c-0.217,0.58-0.408,1.087-0.575,1.52
			c-0.168,0.433-0.311,0.777-0.428,1.033c-0.118,0.256-0.217,0.384-0.296,0.384c-0.383,0-0.715-0.044-0.995-0.133
			s-0.51-0.199-0.686-0.332c-0.177-0.133-0.31-0.275-0.398-0.428c-0.088-0.152-0.133-0.297-0.133-0.436
			c0-0.354,0.037-0.754,0.111-1.202c0.073-0.447,0.167-0.919,0.28-1.417c0.112-0.497,0.233-1.005,0.361-1.527
			c0.128-0.521,0.248-1.033,0.361-1.534c0.113-0.502,0.209-0.976,0.288-1.424c0.078-0.447,0.122-0.848,0.132-1.202
			c0.138-0.069,0.285-0.091,0.443-0.066c0.157,0.024,0.315,0.083,0.472,0.177c0.157,0.094,0.308,0.214,0.45,0.362
			c0.143,0.147,0.273,0.31,0.391,0.487c-0.01,0.502-0.061,1.023-0.154,1.563c-0.094,0.541-0.199,1.087-0.317,1.638
			c-0.118,0.551-0.236,1.097-0.354,1.638c-0.118,0.541-0.211,1.067-0.28,1.579c-0.01,0.108,0.008,0.167,0.052,0.177
			c0.044,0.01,0.086-0.034,0.125-0.132c-0.059,0.128-0.046,0.093,0.037-0.104c0.084-0.197,0.212-0.501,0.384-0.915
			c0.172-0.413,0.381-0.902,0.627-1.468c0.246-0.565,0.509-1.155,0.789-1.77c0.28-0.615,0.565-1.222,0.856-1.822
			c0.289-0.6,0.565-1.136,0.826-1.608c0.26-0.472,0.499-0.856,0.715-1.151c0.217-0.295,0.384-0.442,0.502-0.442
			c0.147,0,0.317,0.024,0.509,0.074c0.191,0.049,0.371,0.113,0.538,0.192c0.168,0.079,0.303,0.167,0.406,0.265
			c0.104,0.099,0.14,0.197,0.11,0.295c-0.206,0.679-0.389,1.379-0.546,2.102c-0.157,0.723-0.297,1.409-0.42,2.058
			c-0.123,0.649-0.227,1.229-0.31,1.741c-0.083,0.512-0.145,0.9-0.184,1.165c-0.03,0.128-0.018,0.206,0.036,0.236
			c0.055,0.029,0.111-0.024,0.17-0.163c0.177-0.344,0.391-0.745,0.642-1.202c0.251-0.457,0.517-0.927,0.797-1.409
			c0.28-0.482,0.565-0.956,0.855-1.424c0.29-0.467,0.561-0.888,0.811-1.261c0.251-0.374,0.47-0.674,0.656-0.9
			c0.188-0.226,0.315-0.344,0.384-0.354c0.05,0,0.136,0.027,0.259,0.081c0.122,0.054,0.248,0.123,0.376,0.206
			c0.128,0.084,0.241,0.18,0.339,0.288c0.099,0.108,0.147,0.221,0.147,0.339c0,0.207-0.044,0.536-0.133,0.988
			c-0.088,0.453-0.184,0.976-0.287,1.571c-0.104,0.595-0.189,1.242-0.259,1.94c-0.068,0.698-0.083,1.404-0.044,2.117
			c0.039,0.713,0.152,1.406,0.34,2.08C270.639,79.133,270.943,79.741,271.366,80.282z"/>
		<path style="fill:#421F1D;" d="M275.438,72.61c0.029-0.069,0.054-0.147,0.073-0.236c0.021-0.089,0.047-0.175,0.082-0.258
			c0.034-0.084,0.078-0.152,0.133-0.207c0.054-0.054,0.125-0.081,0.214-0.081c0.117-0.02,0.245-0.005,0.383,0.044
			c0.138,0.049,0.266,0.113,0.384,0.192c0.118,0.079,0.219,0.17,0.303,0.273c0.083,0.104,0.125,0.204,0.125,0.302
			c0.01-0.059-0.015,0.037-0.073,0.288c-0.059,0.251-0.136,0.583-0.228,0.996c-0.094,0.413-0.192,0.873-0.296,1.379
			c-0.102,0.507-0.189,0.984-0.258,1.431c-0.069,0.448-0.11,0.826-0.125,1.136c-0.015,0.31,0.021,0.475,0.11,0.495
			c0.078,0.009,0.185-0.111,0.317-0.362c0.133-0.25,0.282-0.568,0.45-0.952c0.167-0.383,0.336-0.804,0.509-1.261
			c0.172-0.457,0.337-0.887,0.494-1.291c0.157-0.403,0.292-0.749,0.405-1.04c0.113-0.29,0.194-0.46,0.244-0.509
			c0.02-0.02,0.06-0.01,0.125,0.029c0.063,0.04,0.091,0.074,0.081,0.104c-0.128,0.374-0.258,0.784-0.391,1.232
			c-0.133,0.448-0.271,0.897-0.413,1.35c-0.143,0.453-0.288,0.896-0.435,1.328c-0.148,0.433-0.295,0.821-0.442,1.165
			c-0.148,0.344-0.295,0.629-0.442,0.855c-0.148,0.226-0.291,0.359-0.429,0.398c-0.098,0.029-0.25,0.015-0.457-0.044
			c-0.206-0.059-0.415-0.162-0.627-0.31c-0.212-0.147-0.395-0.339-0.553-0.576c-0.158-0.236-0.236-0.511-0.236-0.826
			c0-0.246,0.023-0.514,0.066-0.804c0.044-0.29,0.096-0.576,0.154-0.856c0.06-0.28,0.116-0.546,0.17-0.796
			c0.054-0.251,0.096-0.455,0.126-0.612c0.01-0.049-0.008-0.086-0.052-0.111c-0.045-0.024-0.081-0.012-0.111,0.037
			c-0.196,0.197-0.403,0.47-0.619,0.819c-0.217,0.349-0.435,0.696-0.656,1.04c-0.222,0.344-0.443,0.644-0.664,0.9
			c-0.222,0.256-0.435,0.389-0.642,0.398c-0.197,0.01-0.377-0.022-0.539-0.096c-0.162-0.074-0.302-0.174-0.42-0.302
			c-0.118-0.128-0.209-0.271-0.273-0.428c-0.064-0.157-0.096-0.319-0.096-0.487c-0.01-0.285,0.018-0.646,0.081-1.084
			c0.064-0.438,0.185-0.888,0.361-1.35c0.178-0.462,0.426-0.91,0.745-1.342c0.319-0.433,0.73-0.782,1.232-1.048
			c0.088-0.049,0.25-0.046,0.486,0.007c0.236,0.054,0.473,0.136,0.708,0.244c0.236,0.108,0.441,0.236,0.612,0.384
			c0.172,0.147,0.244,0.285,0.214,0.413c0,0.029,0.013,0.046,0.037,0.051C275.411,72.638,275.429,72.63,275.438,72.61z
			 M274.598,72.551c-0.05-0.059-0.133-0.088-0.251-0.088c-0.118,0-0.202,0-0.251,0c-0.108,0-0.231,0.079-0.368,0.236
			c-0.139,0.158-0.276,0.359-0.413,0.605c-0.139,0.246-0.269,0.521-0.392,0.826c-0.123,0.305-0.227,0.607-0.31,0.907
			c-0.084,0.3-0.141,0.581-0.17,0.841c-0.029,0.261-0.015,0.465,0.045,0.612c0.039,0.089,0.122,0.079,0.25-0.029
			c0.128-0.108,0.275-0.268,0.443-0.479c0.167-0.211,0.341-0.457,0.523-0.738c0.182-0.28,0.349-0.553,0.501-0.819
			c0.153-0.266,0.281-0.506,0.384-0.723c0.104-0.216,0.16-0.364,0.17-0.443c0.02-0.128,0.015-0.251-0.015-0.369
			C274.716,72.772,274.666,72.66,274.598,72.551z"/>
		<path style="fill:#421F1D;" d="M285.338,73.23c0.068-0.128,0.13-0.197,0.185-0.207c0.054-0.01,0.094,0.015,0.118,0.074
			c0.024,0.059,0.031,0.14,0.021,0.244c-0.01,0.103-0.039,0.199-0.088,0.288c-0.069,0.088-0.168,0.266-0.295,0.531
			c-0.128,0.266-0.278,0.571-0.45,0.915c-0.172,0.344-0.359,0.703-0.561,1.077c-0.202,0.374-0.403,0.718-0.605,1.033
			c-0.201,0.315-0.397,0.573-0.59,0.775c-0.191,0.201-0.361,0.302-0.509,0.302c-0.157,0-0.319-0.047-0.487-0.14
			c-0.167-0.094-0.316-0.206-0.449-0.339c-0.133-0.133-0.244-0.275-0.332-0.428c-0.089-0.152-0.133-0.288-0.133-0.406
			c-0.029-0.285-0.018-0.603,0.037-0.952c0.054-0.349,0.13-0.703,0.228-1.062c0.098-0.359,0.211-0.716,0.339-1.07
			c0.128-0.354,0.248-0.679,0.361-0.974c0.113-0.295,0.207-0.553,0.28-0.774c0.074-0.221,0.111-0.381,0.111-0.479
			c0-0.059-0.025-0.104-0.074-0.133c-0.049-0.03-0.089-0.044-0.118-0.044c-0.099,0-0.248,0.128-0.45,0.384
			c-0.201,0.256-0.425,0.582-0.671,0.981c-0.246,0.398-0.494,0.843-0.745,1.335c-0.251,0.492-0.47,0.974-0.656,1.446
			c-0.188,0.472-0.324,0.905-0.413,1.298c-0.089,0.394-0.094,0.693-0.015,0.9c-0.029,0.079-0.123,0.118-0.28,0.118
			c-0.157,0-0.327-0.039-0.509-0.118c-0.183-0.079-0.347-0.196-0.495-0.354c-0.147-0.157-0.221-0.354-0.221-0.59
			c0-0.226,0.013-0.509,0.037-0.849c0.024-0.339,0.059-0.703,0.103-1.091c0.045-0.389,0.094-0.785,0.147-1.188
			c0.055-0.403,0.111-0.779,0.17-1.128c0.06-0.349,0.118-0.654,0.177-0.914c0.06-0.261,0.118-0.445,0.178-0.553
			c0.088,0,0.204,0.02,0.347,0.059c0.143,0.04,0.285,0.091,0.428,0.155c0.143,0.064,0.263,0.138,0.361,0.221
			c0.099,0.084,0.148,0.175,0.148,0.273c0,0.138-0.032,0.334-0.096,0.59c-0.065,0.256-0.138,0.531-0.222,0.826
			c-0.083,0.295-0.157,0.583-0.221,0.863c-0.064,0.28-0.097,0.514-0.097,0.701c0,0.069,0.02,0.133,0.06,0.192
			c0.02,0.029,0.039,0.049,0.059,0.059c0.039-0.168,0.133-0.411,0.28-0.731c0.147-0.319,0.325-0.666,0.531-1.04
			c0.207-0.374,0.433-0.757,0.679-1.151c0.246-0.393,0.487-0.75,0.723-1.069c0.236-0.32,0.458-0.58,0.664-0.782
			c0.207-0.201,0.374-0.302,0.502-0.302c0.108,0,0.23,0.029,0.369,0.088c0.137,0.059,0.265,0.14,0.383,0.244
			c0.118,0.103,0.219,0.221,0.303,0.354c0.083,0.133,0.125,0.273,0.125,0.42c-0.01,0.433-0.096,0.91-0.258,1.431
			c-0.162,0.521-0.334,1.053-0.517,1.593c-0.182,0.541-0.339,1.075-0.472,1.601c-0.133,0.526-0.175,1.001-0.126,1.424
			c0.01,0.02,0.035,0.04,0.074,0.059c0.039,0.02,0.068,0.02,0.089,0c0.255-0.207,0.496-0.479,0.723-0.819
			c0.226-0.339,0.442-0.701,0.65-1.084c0.206-0.383,0.405-0.76,0.597-1.128C284.962,73.813,285.151,73.496,285.338,73.23z"/>
		<path style="fill:#421F1D;" d="M292.139,73.274c-0.551,1.446-1.025,2.54-1.424,3.282c-0.398,0.743-0.794,1.114-1.188,1.114
			c-0.295,0.01-0.528-0.074-0.7-0.251c-0.173-0.177-0.303-0.411-0.392-0.701c-0.088-0.29-0.145-0.622-0.17-0.996
			c-0.024-0.373-0.031-0.762-0.022-1.165c0.01-0.079-0.01-0.127-0.059-0.147c-0.049-0.02-0.088,0.015-0.117,0.104
			c-0.04,0.138-0.103,0.322-0.192,0.553c-0.089,0.231-0.185,0.479-0.287,0.745c-0.104,0.266-0.217,0.531-0.34,0.797
			c-0.123,0.266-0.246,0.509-0.369,0.73c-0.123,0.221-0.238,0.401-0.347,0.538c-0.108,0.138-0.201,0.207-0.28,0.207
			c-0.118,0-0.253-0.013-0.405-0.037c-0.152-0.025-0.298-0.066-0.436-0.125c-0.138-0.059-0.261-0.138-0.368-0.236
			c-0.108-0.098-0.183-0.222-0.222-0.369c-0.128-0.481-0.185-1.013-0.17-1.593c0.015-0.58,0.076-1.148,0.184-1.704
			c0.108-0.555,0.253-1.072,0.436-1.549c0.182-0.477,0.376-0.853,0.582-1.128c0.04,0,0.107,0.012,0.199,0.037
			c0.094,0.025,0.188,0.057,0.28,0.096c0.094,0.04,0.175,0.084,0.244,0.133c0.068,0.049,0.103,0.099,0.103,0.148
			c-0.068,0.157-0.149,0.398-0.243,0.723c-0.094,0.325-0.177,0.686-0.251,1.084c-0.073,0.398-0.138,0.809-0.191,1.232
			c-0.055,0.423-0.084,0.809-0.089,1.158c-0.005,0.349,0.024,0.634,0.089,0.855c0.064,0.221,0.17,0.332,0.317,0.332
			c0.068,0,0.177-0.152,0.324-0.458c0.148-0.305,0.31-0.686,0.487-1.143c0.177-0.458,0.361-0.947,0.553-1.468
			c0.192-0.521,0.366-1.001,0.523-1.438c0.157-0.438,0.288-0.792,0.392-1.062s0.159-0.381,0.17-0.332
			c0.039-0.02,0.12-0.027,0.243-0.022c0.123,0.005,0.248,0.024,0.376,0.059c0.128,0.034,0.241,0.081,0.34,0.14
			c0.098,0.059,0.147,0.133,0.147,0.221c0,0.01-0.021,0.14-0.06,0.391c-0.039,0.25-0.086,0.565-0.14,0.944
			c-0.055,0.379-0.104,0.787-0.148,1.225c-0.045,0.438-0.069,0.841-0.074,1.21c-0.005,0.369,0.017,0.678,0.066,0.929
			c0.049,0.251,0.143,0.376,0.28,0.376c0.068,0,0.157-0.071,0.266-0.214c0.108-0.142,0.227-0.324,0.354-0.545
			c0.127-0.222,0.26-0.47,0.397-0.745c0.138-0.275,0.269-0.546,0.392-0.812c0.123-0.266,0.23-0.514,0.324-0.745
			c0.094-0.231,0.16-0.411,0.199-0.539c0.06,0,0.15,0.015,0.273,0.044C292.121,73.186,292.168,73.225,292.139,73.274z"/>
		<path style="fill:#421F1D;" d="M293.112,74.897c0.06,0.02,0.103,0.03,0.133,0.03c0.049,0.079,0.19,0.103,0.421,0.074
			c0.23-0.03,0.509-0.096,0.833-0.199c0.325-0.104,0.666-0.236,1.025-0.398c0.359-0.162,0.689-0.332,0.988-0.509
			c0.301-0.177,0.549-0.354,0.745-0.531c0.197-0.177,0.29-0.335,0.28-0.472c0.069-0.079,0.138-0.113,0.207-0.103
			c0.068,0.01,0.104,0.079,0.104,0.207c0.039,0.138-0.006,0.288-0.133,0.45c-0.128,0.162-0.308,0.332-0.539,0.509
			c-0.232,0.177-0.491,0.354-0.781,0.531c-0.291,0.177-0.581,0.339-0.871,0.487c-0.29,0.147-0.563,0.273-0.818,0.376
			c-0.256,0.103-0.458,0.18-0.605,0.229c-0.128,0.039-0.169,0.086-0.125,0.14c0.044,0.054,0.105,0.106,0.185,0.155
			c0.128,0.079,0.285,0.229,0.472,0.45c0.187,0.221,0.364,0.465,0.531,0.73c0.167,0.266,0.308,0.534,0.421,0.804
			c0.112,0.271,0.164,0.499,0.154,0.686c-0.01,0.256-0.044,0.511-0.103,0.767c-0.059,0.256-0.15,0.487-0.273,0.693
			c-0.123,0.206-0.283,0.374-0.48,0.502c-0.197,0.127-0.433,0.191-0.708,0.191c-0.442-0.088-0.836-0.295-1.181-0.62
			c-0.344-0.324-0.639-0.73-0.885-1.217c-0.246-0.487-0.433-1.042-0.561-1.667c-0.128-0.624-0.192-1.281-0.192-1.97
			c0-0.797,0.062-1.613,0.185-2.449c0.123-0.836,0.298-1.649,0.524-2.441c0.226-0.792,0.496-1.539,0.812-2.243
			c0.314-0.703,0.668-1.318,1.061-1.844c0.394-0.526,0.816-0.941,1.269-1.247c0.453-0.305,0.925-0.457,1.417-0.457
			c0.266,0,0.501,0.081,0.708,0.243c0.206,0.163,0.384,0.357,0.531,0.583c0.147,0.226,0.258,0.47,0.332,0.73
			c0.073,0.261,0.11,0.485,0.11,0.671c0,0.462-0.094,0.942-0.28,1.438c-0.188,0.497-0.433,0.994-0.737,1.49
			c-0.306,0.497-0.647,0.988-1.025,1.475c-0.379,0.487-0.76,0.952-1.144,1.394c-0.384,0.443-0.75,0.856-1.1,1.239
			c-0.349,0.384-0.642,0.718-0.878,1.003c-0.01,0.02-0.015,0.035-0.015,0.044C293.127,74.863,293.122,74.877,293.112,74.897z
			 M292.892,76.786c0.039,0.265,0.105,0.561,0.199,0.885c0.093,0.325,0.206,0.629,0.339,0.915c0.133,0.285,0.277,0.526,0.436,0.723
			c0.157,0.197,0.314,0.3,0.472,0.31c0.128,0,0.243-0.035,0.347-0.104c0.103-0.069,0.192-0.157,0.266-0.266
			c0.074-0.108,0.128-0.226,0.162-0.354c0.034-0.128,0.052-0.256,0.052-0.383c0-0.177-0.037-0.376-0.11-0.598
			c-0.074-0.221-0.17-0.44-0.288-0.657c-0.118-0.216-0.253-0.42-0.405-0.612c-0.152-0.192-0.306-0.347-0.458-0.465
			c-0.152-0.118-0.305-0.189-0.457-0.214c-0.152-0.024-0.283,0.022-0.391,0.14c-0.128,0.147-0.188,0.305-0.177,0.472L292.892,76.786
			z M293.378,73.79c0.068-0.069,0.231-0.246,0.487-0.531c0.255-0.285,0.548-0.629,0.878-1.033c0.329-0.403,0.676-0.851,1.04-1.342
			c0.363-0.492,0.695-0.988,0.995-1.49c0.3-0.501,0.539-0.983,0.716-1.446c0.177-0.462,0.251-0.865,0.222-1.209
			c0.01-0.059,0-0.152-0.03-0.28c-0.029-0.128-0.083-0.258-0.162-0.391c-0.078-0.133-0.18-0.249-0.302-0.347
			c-0.123-0.098-0.269-0.148-0.436-0.148c-0.177,0-0.397,0.15-0.656,0.45c-0.261,0.3-0.531,0.684-0.811,1.151
			c-0.28,0.467-0.564,0.991-0.849,1.571c-0.285,0.581-0.538,1.153-0.76,1.719c-0.222,0.565-0.403,1.092-0.546,1.579
			c-0.143,0.487-0.214,0.868-0.214,1.143c0,0.266,0.052,0.45,0.155,0.553C293.208,73.842,293.299,73.859,293.378,73.79z
			 M293.142,74.735c-0.02,0.02-0.029,0.039-0.029,0.059c0.029,0,0.045-0.01,0.045-0.03
			C293.157,74.745,293.151,74.735,293.142,74.735z"/>
		<path style="fill:#421F1D;" d="M300.99,72.61c0.029-0.069,0.054-0.147,0.073-0.236c0.021-0.089,0.047-0.175,0.082-0.258
			c0.034-0.084,0.078-0.152,0.133-0.207c0.054-0.054,0.125-0.081,0.214-0.081c0.117-0.02,0.245-0.005,0.383,0.044
			c0.138,0.049,0.266,0.113,0.384,0.192c0.118,0.079,0.219,0.17,0.303,0.273c0.083,0.104,0.125,0.204,0.125,0.302
			c0.01-0.059-0.015,0.037-0.073,0.288c-0.06,0.251-0.136,0.583-0.228,0.996c-0.094,0.413-0.192,0.873-0.296,1.379
			c-0.103,0.507-0.19,0.984-0.258,1.431c-0.069,0.448-0.11,0.826-0.125,1.136c-0.015,0.31,0.021,0.475,0.11,0.495
			c0.078,0.009,0.185-0.111,0.317-0.362c0.133-0.25,0.282-0.568,0.45-0.952c0.167-0.383,0.336-0.804,0.509-1.261
			c0.172-0.457,0.337-0.887,0.494-1.291c0.157-0.403,0.292-0.749,0.405-1.04c0.113-0.29,0.194-0.46,0.244-0.509
			c0.02-0.02,0.061-0.01,0.125,0.029c0.064,0.04,0.091,0.074,0.081,0.104c-0.128,0.374-0.258,0.784-0.391,1.232
			c-0.133,0.448-0.271,0.897-0.413,1.35c-0.143,0.453-0.288,0.896-0.436,1.328c-0.147,0.433-0.295,0.821-0.442,1.165
			c-0.147,0.344-0.295,0.629-0.442,0.855c-0.147,0.226-0.291,0.359-0.429,0.398c-0.098,0.029-0.25,0.015-0.457-0.044
			c-0.206-0.059-0.415-0.162-0.627-0.31c-0.212-0.147-0.396-0.339-0.553-0.576c-0.158-0.236-0.236-0.511-0.236-0.826
			c0-0.246,0.022-0.514,0.066-0.804c0.044-0.29,0.096-0.576,0.154-0.856c0.06-0.28,0.116-0.546,0.17-0.796
			c0.054-0.251,0.096-0.455,0.126-0.612c0.01-0.049-0.008-0.086-0.052-0.111c-0.045-0.024-0.081-0.012-0.111,0.037
			c-0.196,0.197-0.403,0.47-0.619,0.819c-0.217,0.349-0.436,0.696-0.656,1.04c-0.222,0.344-0.443,0.644-0.664,0.9
			c-0.222,0.256-0.436,0.389-0.642,0.398c-0.197,0.01-0.377-0.022-0.539-0.096c-0.162-0.074-0.302-0.174-0.42-0.302
			c-0.118-0.128-0.209-0.271-0.273-0.428c-0.063-0.157-0.096-0.319-0.096-0.487c-0.01-0.285,0.018-0.646,0.081-1.084
			c0.064-0.438,0.185-0.888,0.361-1.35c0.178-0.462,0.426-0.91,0.745-1.342c0.319-0.433,0.73-0.782,1.233-1.048
			c0.088-0.049,0.25-0.046,0.486,0.007c0.236,0.054,0.473,0.136,0.708,0.244c0.236,0.108,0.44,0.236,0.612,0.384
			c0.172,0.147,0.244,0.285,0.214,0.413c0,0.029,0.013,0.046,0.037,0.051C300.963,72.638,300.98,72.63,300.99,72.61z
			 M300.149,72.551c-0.05-0.059-0.133-0.088-0.251-0.088c-0.118,0-0.202,0-0.251,0c-0.108,0-0.232,0.079-0.368,0.236
			c-0.139,0.158-0.276,0.359-0.413,0.605c-0.139,0.246-0.268,0.521-0.392,0.826c-0.123,0.305-0.227,0.607-0.31,0.907
			c-0.084,0.3-0.141,0.581-0.17,0.841c-0.029,0.261-0.015,0.465,0.045,0.612c0.039,0.089,0.122,0.079,0.25-0.029
			c0.128-0.108,0.275-0.268,0.443-0.479c0.167-0.211,0.341-0.457,0.523-0.738c0.182-0.28,0.349-0.553,0.501-0.819
			c0.153-0.266,0.281-0.506,0.384-0.723c0.103-0.216,0.16-0.364,0.17-0.443c0.02-0.128,0.015-0.251-0.015-0.369
			C300.268,72.772,300.218,72.66,300.149,72.551z"/>
		<path style="fill:#421F1D;" d="M310.713,73.186c0.039,0.177,0.029,0.359-0.029,0.546c-0.011,0.02-0.021,0.04-0.03,0.059
			c-0.01,0.02-0.02,0.04-0.029,0.059c-0.167,0.413-0.42,0.88-0.76,1.401c-0.339,0.521-0.728,1.016-1.165,1.483
			c-0.439,0.467-0.896,0.863-1.372,1.188c-0.478,0.325-0.938,0.497-1.38,0.517c-0.049,0-0.147-0.018-0.295-0.052
			c-0.147-0.035-0.314-0.091-0.502-0.17c-0.186-0.079-0.383-0.182-0.59-0.31c-0.206-0.128-0.395-0.288-0.568-0.479
			c-0.172-0.192-0.316-0.413-0.435-0.664c-0.118-0.25-0.182-0.539-0.192-0.863c-0.029-0.895,0.079-1.679,0.325-2.353
			c0.245-0.674,0.548-1.234,0.907-1.682c0.358-0.447,0.737-0.782,1.136-1.003c0.398-0.222,0.745-0.332,1.04-0.332
			c0.275,0,0.541,0.074,0.797,0.221c0.256,0.147,0.47,0.337,0.642,0.568c0.172,0.231,0.295,0.482,0.369,0.753
			c0.073,0.271,0.076,0.524,0.007,0.76c-0.078-0.01-0.177-0.056-0.295-0.14c-0.118-0.083-0.182-0.164-0.191-0.243
			c-0.02-0.099-0.079-0.211-0.177-0.339c-0.099-0.128-0.212-0.246-0.34-0.354c-0.128-0.108-0.261-0.192-0.398-0.251
			c-0.138-0.059-0.256-0.064-0.353-0.015c-0.315,0.177-0.596,0.45-0.841,0.819c-0.246,0.369-0.455,0.772-0.628,1.21
			c-0.172,0.438-0.302,0.875-0.391,1.313c-0.089,0.438-0.128,0.814-0.118,1.129c0,0.147,0.037,0.307,0.111,0.479
			c0.073,0.172,0.169,0.334,0.287,0.487c0.118,0.152,0.248,0.278,0.391,0.376c0.143,0.099,0.288,0.147,0.436,0.147
			c0.314,0,0.64-0.093,0.974-0.28c0.334-0.187,0.666-0.425,0.996-0.715c0.329-0.29,0.644-0.61,0.944-0.959
			c0.3-0.349,0.566-0.691,0.797-1.025c0.23-0.334,0.423-0.639,0.575-0.914c0.152-0.275,0.248-0.477,0.287-0.605L310.713,73.186z"/>
		<path style="fill:#421F1D;" d="M315.64,67.653c0.079,0.069,0.118,0.143,0.118,0.221c-0.275,0.059-0.565,0.111-0.87,0.155
			c-0.306,0.044-0.596,0.084-0.871,0.118c-0.275,0.035-0.519,0.064-0.73,0.088c-0.211,0.025-0.366,0.047-0.464,0.066
			c-0.05,0.01-0.107,0.025-0.17,0.045c-0.064,0.02-0.116,0.083-0.155,0.192c-0.02,0.069-0.059,0.238-0.118,0.509
			c-0.059,0.271-0.125,0.603-0.199,0.996c-0.073,0.393-0.147,0.831-0.221,1.313c-0.074,0.482-0.143,0.969-0.207,1.461
			c-0.064,0.492-0.115,0.971-0.154,1.438c-0.04,0.467-0.06,0.883-0.06,1.247c0,0.147,0,0.342,0,0.583
			c0,0.241,0.005,0.497,0.015,0.768c0.01,0.271,0.022,0.543,0.037,0.818c0.015,0.276,0.032,0.524,0.052,0.745
			c0.02,0.222,0.047,0.403,0.081,0.546c0.034,0.143,0.076,0.214,0.126,0.214c0.059,0,0.147-0.101,0.265-0.302
			c0.118-0.202,0.259-0.467,0.421-0.797c0.162-0.329,0.334-0.698,0.517-1.106c0.182-0.408,0.361-0.821,0.538-1.239
			c0.177-0.418,0.345-0.816,0.502-1.195c0.157-0.378,0.295-0.703,0.413-0.974c0.118-0.271,0.206-0.462,0.266-0.576
			c0.059-0.113,0.073-0.11,0.044,0.008c0.02-0.01,0.052-0.017,0.096-0.022c0.045-0.005,0.086-0.002,0.126,0.007
			c0.039,0.01,0.073,0.025,0.103,0.044c0.03,0.02,0.045,0.049,0.045,0.088c-0.168,0.364-0.347,0.79-0.539,1.276
			c-0.191,0.487-0.389,0.991-0.59,1.512s-0.405,1.038-0.612,1.549c-0.206,0.512-0.413,0.969-0.619,1.372
			c-0.207,0.403-0.411,0.731-0.612,0.981c-0.202,0.251-0.397,0.377-0.583,0.377c-0.403,0-0.718-0.162-0.944-0.487
			c-0.227-0.325-0.393-0.726-0.502-1.203c-0.108-0.477-0.174-0.991-0.199-1.542c-0.024-0.551-0.036-1.047-0.036-1.49
			c0-0.826,0.059-1.63,0.177-2.412c0.118-0.782,0.248-1.485,0.391-2.109c0.143-0.624,0.278-1.146,0.406-1.564
			c0.128-0.418,0.201-0.676,0.221-0.774c0.01-0.03,0.003-0.054-0.021-0.074c-0.025-0.02-0.047-0.03-0.066-0.03
			c-0.285,0.02-0.605,0.054-0.959,0.104c-0.355,0.049-0.738,0.103-1.151,0.162c-0.009-0.029-0.007-0.076,0.008-0.14
			c0.015-0.064,0.039-0.128,0.074-0.192c0.034-0.064,0.073-0.125,0.117-0.184c0.045-0.059,0.092-0.099,0.141-0.118
			c0.068-0.03,0.191-0.054,0.369-0.074c0.177-0.02,0.368-0.04,0.575-0.059c0.206-0.02,0.405-0.039,0.598-0.059
			c0.191-0.02,0.341-0.039,0.449-0.059c0.02,0,0.055-0.015,0.104-0.044c0.049-0.03,0.084-0.069,0.103-0.118
			c0.029-0.128,0.096-0.327,0.199-0.598c0.104-0.271,0.221-0.553,0.354-0.848s0.269-0.563,0.406-0.804
			c0.138-0.241,0.256-0.396,0.354-0.465c0.04-0.02,0.091-0.017,0.155,0.007c0.063,0.025,0.13,0.059,0.199,0.104
			c0.068,0.044,0.133,0.094,0.191,0.147c0.06,0.054,0.103,0.096,0.133,0.125c0.06,0.079,0.055,0.234-0.015,0.465
			c-0.068,0.231-0.157,0.472-0.266,0.723c-0.108,0.251-0.209,0.475-0.302,0.671c-0.094,0.197-0.136,0.3-0.126,0.31
			c-0.02,0.03-0.018,0.069,0.008,0.118c0.024,0.049,0.046,0.069,0.066,0.059c0.068,0,0.214-0.01,0.435-0.029
			c0.222-0.02,0.47-0.042,0.745-0.066c0.275-0.024,0.549-0.047,0.819-0.066c0.271-0.02,0.489-0.03,0.656-0.03v-0.015
			C315.512,67.54,315.56,67.585,315.64,67.653z"/>
		<path style="fill:#421F1D;" d="M321.526,73.274c-0.551,1.446-1.025,2.54-1.424,3.282c-0.398,0.743-0.794,1.114-1.187,1.114
			c-0.295,0.01-0.528-0.074-0.7-0.251c-0.173-0.177-0.303-0.411-0.392-0.701c-0.088-0.29-0.145-0.622-0.17-0.996
			c-0.024-0.373-0.031-0.762-0.022-1.165c0.01-0.079-0.01-0.127-0.059-0.147c-0.049-0.02-0.088,0.015-0.117,0.104
			c-0.04,0.138-0.103,0.322-0.192,0.553c-0.089,0.231-0.185,0.479-0.287,0.745c-0.103,0.266-0.217,0.531-0.34,0.797
			c-0.123,0.266-0.246,0.509-0.369,0.73c-0.123,0.221-0.238,0.401-0.347,0.538c-0.108,0.138-0.201,0.207-0.28,0.207
			c-0.118,0-0.253-0.013-0.405-0.037c-0.152-0.025-0.298-0.066-0.436-0.125c-0.138-0.059-0.261-0.138-0.368-0.236
			c-0.108-0.098-0.183-0.222-0.222-0.369c-0.128-0.481-0.185-1.013-0.17-1.593c0.015-0.58,0.076-1.148,0.185-1.704
			c0.108-0.555,0.253-1.072,0.436-1.549c0.182-0.477,0.376-0.853,0.582-1.128c0.04,0,0.107,0.012,0.199,0.037
			c0.094,0.025,0.188,0.057,0.28,0.096c0.094,0.04,0.175,0.084,0.244,0.133c0.068,0.049,0.103,0.099,0.103,0.148
			c-0.068,0.157-0.149,0.398-0.243,0.723c-0.094,0.325-0.177,0.686-0.251,1.084c-0.073,0.398-0.138,0.809-0.191,1.232
			c-0.055,0.423-0.084,0.809-0.089,1.158c-0.005,0.349,0.024,0.634,0.089,0.855c0.064,0.221,0.17,0.332,0.317,0.332
			c0.068,0,0.177-0.152,0.324-0.458c0.148-0.305,0.31-0.686,0.487-1.143c0.177-0.458,0.361-0.947,0.553-1.468
			c0.192-0.521,0.366-1.001,0.523-1.438c0.157-0.438,0.288-0.792,0.392-1.062c0.104-0.271,0.159-0.381,0.17-0.332
			c0.039-0.02,0.12-0.027,0.243-0.022c0.123,0.005,0.248,0.024,0.376,0.059c0.128,0.034,0.241,0.081,0.34,0.14
			c0.098,0.059,0.147,0.133,0.147,0.221c0,0.01-0.021,0.14-0.06,0.391c-0.039,0.25-0.086,0.565-0.14,0.944
			c-0.055,0.379-0.104,0.787-0.147,1.225c-0.045,0.438-0.069,0.841-0.074,1.21c-0.005,0.369,0.017,0.678,0.066,0.929
			c0.049,0.251,0.143,0.376,0.28,0.376c0.068,0,0.157-0.071,0.266-0.214c0.108-0.142,0.227-0.324,0.354-0.545
			c0.127-0.222,0.26-0.47,0.397-0.745s0.269-0.546,0.392-0.812c0.123-0.266,0.23-0.514,0.324-0.745
			c0.094-0.231,0.16-0.411,0.199-0.539c0.06,0,0.15,0.015,0.273,0.044C321.509,73.186,321.556,73.225,321.526,73.274z"/>
		<path style="fill:#421F1D;" d="M323.179,69.601c0.029,0.049,0.018,0.187-0.037,0.413c-0.054,0.226-0.125,0.479-0.214,0.76
			c-0.088,0.28-0.184,0.556-0.287,0.826c-0.104,0.271-0.194,0.475-0.273,0.612c-0.02,0.03-0.021,0.044-0.007,0.044
			c0.015,0,0.021,0.01,0.021,0.029c0.108,0.128,0.234,0.231,0.377,0.31c0.143,0.079,0.28,0.162,0.413,0.25
			c0.133,0.089,0.255,0.192,0.368,0.31c0.113,0.118,0.199,0.275,0.259,0.472c0.059,0.197,0.059,0.462,0,0.796
			c-0.06,0.335-0.141,0.701-0.244,1.099c-0.103,0.398-0.216,0.802-0.339,1.21c-0.123,0.408-0.224,0.78-0.303,1.114
			c-0.078,0.334-0.118,0.607-0.118,0.819c0,0.211,0.069,0.317,0.207,0.317c0.099,0,0.23-0.108,0.398-0.325
			c0.167-0.216,0.349-0.497,0.546-0.841c0.196-0.344,0.4-0.73,0.612-1.158c0.211-0.428,0.405-0.853,0.583-1.276
			c0.177-0.423,0.331-0.821,0.464-1.195c0.133-0.374,0.224-0.679,0.273-0.915c0-0.03,0.029-0.052,0.089-0.066
			c0.059-0.015,0.12-0.015,0.184,0c0.064,0.015,0.118,0.046,0.163,0.096c0.044,0.049,0.051,0.118,0.021,0.207
			c-0.059,0.216-0.157,0.526-0.295,0.93c-0.138,0.403-0.3,0.843-0.486,1.32c-0.188,0.477-0.392,0.964-0.612,1.46
			c-0.222,0.497-0.445,0.946-0.672,1.35c-0.227,0.403-0.452,0.732-0.679,0.988c-0.227,0.255-0.433,0.384-0.619,0.384
			c-0.138,0-0.293-0.022-0.465-0.066c-0.172-0.045-0.332-0.113-0.479-0.207c-0.147-0.094-0.273-0.219-0.376-0.376
			c-0.103-0.157-0.155-0.354-0.155-0.59c0-0.345,0.049-0.726,0.147-1.144c0.099-0.418,0.209-0.819,0.332-1.203
			c0.123-0.383,0.243-0.725,0.361-1.025c0.118-0.3,0.192-0.509,0.222-0.627c0.049-0.137,0.063-0.265,0.044-0.383
			c-0.019-0.118-0.108-0.211-0.266-0.28c-0.039-0.03-0.165-0.103-0.376-0.221c-0.212-0.118-0.435-0.268-0.671-0.45
			c-0.236-0.182-0.45-0.381-0.643-0.598c-0.191-0.216-0.287-0.438-0.287-0.664c0.01-0.168,0.071-0.425,0.185-0.775
			c0.113-0.349,0.263-0.706,0.449-1.069c0.188-0.364,0.401-0.693,0.643-0.988c0.24-0.295,0.488-0.467,0.744-0.517
			c0.099,0,0.194,0.027,0.288,0.081c0.094,0.054,0.177,0.121,0.251,0.199c0.073,0.079,0.133,0.167,0.177,0.266
			C323.142,69.404,323.169,69.502,323.179,69.601z M321.63,71.637c0,0.019,0.017,0.052,0.052,0.096
			c0.034,0.045,0.073,0.081,0.118,0.111c0.044,0.029,0.091,0.044,0.14,0.044c0.05,0,0.094-0.034,0.133-0.103
			c0.059-0.108,0.099-0.209,0.118-0.302c0.02-0.094,0.044-0.209,0.074-0.347c0.068-0.344,0.061-0.548-0.022-0.612
			c-0.084-0.064-0.165-0.017-0.243,0.14c-0.069,0.138-0.131,0.273-0.185,0.406C321.76,71.201,321.698,71.391,321.63,71.637z"/>
		<path style="fill:#421F1D;" d="M329.611,72.964c0.02,0.02,0.024,0.054,0.015,0.104c-0.01,0.049-0.02,0.083-0.029,0.103
			c-0.079,0.207-0.17,0.453-0.273,0.738c-0.102,0.285-0.214,0.583-0.331,0.893c-0.118,0.31-0.249,0.62-0.392,0.929
			c-0.143,0.31-0.29,0.585-0.442,0.826c-0.152,0.241-0.314,0.438-0.487,0.59c-0.172,0.152-0.352,0.229-0.538,0.229
			c-0.275,0-0.517-0.068-0.723-0.207c-0.207-0.138-0.379-0.312-0.517-0.523s-0.241-0.445-0.31-0.701
			c-0.069-0.255-0.108-0.501-0.118-0.737c0-0.01,0.005-0.101,0.015-0.273c0.01-0.172,0.027-0.389,0.052-0.649
			c0.024-0.26,0.057-0.541,0.096-0.841c0.039-0.3,0.084-0.585,0.133-0.855c0.049-0.271,0.108-0.502,0.177-0.693
			c0.069-0.192,0.143-0.308,0.222-0.347c0.068-0.099,0.17-0.138,0.303-0.118c0.133,0.02,0.266,0.076,0.398,0.169
			c0.133,0.094,0.248,0.207,0.347,0.339c0.098,0.133,0.147,0.258,0.147,0.376c0.01,0.039,0.007,0.14-0.008,0.302
			c-0.015,0.162-0.037,0.361-0.066,0.598c-0.029,0.236-0.062,0.489-0.096,0.76c-0.034,0.271-0.066,0.529-0.096,0.774
			c-0.029,0.246-0.055,0.465-0.074,0.657c-0.02,0.192-0.024,0.322-0.015,0.391c0,0.059,0.008,0.14,0.022,0.244
			c0.015,0.103,0.044,0.199,0.088,0.288c0.045,0.088,0.104,0.157,0.178,0.207c0.073,0.049,0.169,0.049,0.287,0
			c0.06-0.01,0.141-0.101,0.244-0.273c0.103-0.172,0.216-0.386,0.339-0.642c0.123-0.256,0.248-0.531,0.376-0.826
			c0.128-0.295,0.248-0.57,0.361-0.826c0.113-0.256,0.212-0.477,0.295-0.664c0.084-0.187,0.141-0.3,0.17-0.339
			c0.02-0.039,0.057-0.054,0.111-0.045C329.525,72.93,329.572,72.945,329.611,72.964z M326.454,69.674
			c-0.059-0.049-0.094-0.16-0.104-0.332c-0.01-0.172,0-0.354,0.03-0.545c0.029-0.192,0.073-0.372,0.133-0.539
			c0.059-0.168,0.122-0.275,0.191-0.325c0.147-0.049,0.308-0.064,0.48-0.044c0.172,0.02,0.327,0.066,0.465,0.14
			s0.243,0.172,0.317,0.295c0.073,0.123,0.091,0.263,0.051,0.42c-0.01,0.049-0.034,0.133-0.073,0.25
			c-0.039,0.118-0.081,0.236-0.125,0.354c-0.045,0.118-0.089,0.229-0.133,0.332c-0.045,0.104-0.082,0.165-0.111,0.185
			c-0.029,0.03-0.096,0.047-0.199,0.052c-0.103,0.005-0.216-0.003-0.339-0.022c-0.123-0.02-0.238-0.049-0.347-0.089
			C326.582,69.768,326.503,69.724,326.454,69.674z"/>
		<path style="fill:#421F1D;" d="M336.161,73.23c0.068-0.128,0.13-0.197,0.185-0.207c0.054-0.01,0.094,0.015,0.118,0.074
			c0.024,0.059,0.031,0.14,0.021,0.244c-0.01,0.103-0.039,0.199-0.088,0.288c-0.069,0.088-0.168,0.266-0.295,0.531
			c-0.128,0.266-0.278,0.571-0.45,0.915c-0.172,0.344-0.359,0.703-0.56,1.077c-0.202,0.374-0.403,0.718-0.605,1.033
			c-0.201,0.315-0.397,0.573-0.59,0.775c-0.191,0.201-0.361,0.302-0.509,0.302c-0.157,0-0.319-0.047-0.487-0.14
			c-0.167-0.094-0.316-0.206-0.449-0.339c-0.133-0.133-0.244-0.275-0.332-0.428c-0.089-0.152-0.133-0.288-0.133-0.406
			c-0.029-0.285-0.018-0.603,0.037-0.952c0.054-0.349,0.13-0.703,0.229-1.062c0.098-0.359,0.211-0.716,0.339-1.07
			c0.128-0.354,0.248-0.679,0.361-0.974c0.113-0.295,0.207-0.553,0.28-0.774c0.074-0.221,0.111-0.381,0.111-0.479
			c0-0.059-0.025-0.104-0.074-0.133c-0.049-0.03-0.089-0.044-0.118-0.044c-0.099,0-0.248,0.128-0.45,0.384
			c-0.201,0.256-0.425,0.582-0.671,0.981c-0.246,0.398-0.494,0.843-0.745,1.335c-0.251,0.492-0.47,0.974-0.656,1.446
			c-0.188,0.472-0.324,0.905-0.413,1.298c-0.089,0.394-0.094,0.693-0.015,0.9c-0.029,0.079-0.123,0.118-0.28,0.118
			s-0.327-0.039-0.509-0.118c-0.183-0.079-0.347-0.196-0.495-0.354c-0.147-0.157-0.221-0.354-0.221-0.59
			c0-0.226,0.013-0.509,0.037-0.849c0.024-0.339,0.059-0.703,0.102-1.091c0.045-0.389,0.094-0.785,0.148-1.188
			c0.055-0.403,0.111-0.779,0.17-1.128c0.06-0.349,0.118-0.654,0.177-0.914c0.06-0.261,0.118-0.445,0.178-0.553
			c0.088,0,0.204,0.02,0.347,0.059c0.143,0.04,0.285,0.091,0.428,0.155c0.143,0.064,0.263,0.138,0.361,0.221
			c0.099,0.084,0.147,0.175,0.147,0.273c0,0.138-0.032,0.334-0.096,0.59c-0.064,0.256-0.138,0.531-0.222,0.826
			c-0.083,0.295-0.157,0.583-0.221,0.863c-0.064,0.28-0.097,0.514-0.097,0.701c0,0.069,0.021,0.133,0.06,0.192
			c0.02,0.029,0.039,0.049,0.059,0.059c0.039-0.168,0.133-0.411,0.28-0.731c0.147-0.319,0.325-0.666,0.531-1.04
			c0.207-0.374,0.433-0.757,0.679-1.151c0.246-0.393,0.487-0.75,0.723-1.069c0.236-0.32,0.458-0.58,0.664-0.782
			c0.207-0.201,0.374-0.302,0.502-0.302c0.108,0,0.23,0.029,0.369,0.088c0.137,0.059,0.265,0.14,0.383,0.244
			c0.118,0.103,0.219,0.221,0.303,0.354c0.083,0.133,0.125,0.273,0.125,0.42c-0.01,0.433-0.096,0.91-0.258,1.431
			c-0.162,0.521-0.334,1.053-0.517,1.593c-0.182,0.541-0.339,1.075-0.472,1.601c-0.133,0.526-0.175,1.001-0.126,1.424
			c0.01,0.02,0.035,0.04,0.074,0.059c0.039,0.02,0.068,0.02,0.089,0c0.255-0.207,0.496-0.479,0.723-0.819
			c0.226-0.339,0.442-0.701,0.649-1.084c0.206-0.383,0.405-0.76,0.597-1.128C335.785,73.813,335.975,73.496,336.161,73.23z"/>
		<path style="fill:#421F1D;" d="M343.346,73.274c0.049-0.059,0.115-0.071,0.199-0.037c0.083,0.035,0.125,0.071,0.125,0.111
			c-0.02,0.295-0.135,0.563-0.347,0.804c-0.211,0.241-0.44,0.47-0.685,0.686c-0.246,0.217-0.465,0.426-0.657,0.627
			c-0.191,0.202-0.272,0.406-0.243,0.612c0,0.158-0.034,0.428-0.103,0.812c-0.068,0.384-0.169,0.814-0.302,1.291
			c-0.133,0.477-0.295,0.974-0.487,1.49c-0.191,0.516-0.408,0.986-0.649,1.409c-0.24,0.423-0.504,0.772-0.789,1.047
			c-0.285,0.275-0.59,0.413-0.914,0.413c-0.266,0-0.507-0.057-0.724-0.17c-0.216-0.113-0.403-0.256-0.561-0.428
			c-0.157-0.172-0.28-0.364-0.368-0.576c-0.089-0.211-0.133-0.416-0.133-0.612c0-0.433,0.098-0.875,0.295-1.328
			c0.196-0.453,0.459-0.895,0.789-1.328c0.329-0.433,0.706-0.851,1.129-1.254c0.423-0.403,0.865-0.772,1.327-1.106
			c0.039-0.029,0.076-0.123,0.111-0.28c0.034-0.157,0.059-0.341,0.073-0.553c0.015-0.211,0.023-0.43,0.023-0.656
			c0-0.226-0.01-0.423-0.029-0.59c-0.02-0.167-0.047-0.288-0.081-0.361c-0.035-0.074-0.077-0.062-0.126,0.037
			c-0.01,0.04-0.073,0.141-0.191,0.303c-0.118,0.162-0.271,0.354-0.458,0.575c-0.187,0.221-0.393,0.458-0.619,0.709
			c-0.227,0.25-0.452,0.482-0.679,0.693c-0.227,0.211-0.437,0.386-0.635,0.523c-0.196,0.138-0.353,0.207-0.472,0.207
			c-0.02,0-0.116-0.017-0.288-0.052c-0.172-0.034-0.358-0.098-0.561-0.191c-0.201-0.094-0.386-0.224-0.553-0.391
			c-0.167-0.167-0.251-0.384-0.251-0.649c0-0.688,0.099-1.34,0.295-1.955c0.196-0.614,0.47-1.153,0.819-1.615
			c0.349-0.462,0.757-0.829,1.224-1.099c0.468-0.271,0.972-0.406,1.513-0.406c0.227,0,0.44,0.049,0.642,0.147
			c0.201,0.099,0.381,0.221,0.539,0.369c0.156,0.147,0.28,0.3,0.368,0.457c0.089,0.157,0.138,0.295,0.147,0.413
			c0.069-0.02,0.136-0.017,0.199,0.007c0.065,0.025,0.12,0.062,0.17,0.111c0.118,0.128,0.206,0.288,0.266,0.479
			c0.059,0.192,0.093,0.398,0.103,0.62c0.01,0.221,0.01,0.445,0,0.671c-0.011,0.227-0.022,0.433-0.037,0.62
			c-0.015,0.187-0.023,0.342-0.023,0.465c0,0.123,0.024,0.19,0.074,0.199c0.098,0.029,0.226-0.01,0.384-0.118
			c0.157-0.108,0.315-0.238,0.472-0.391c0.157-0.152,0.3-0.305,0.428-0.458C343.223,73.424,343.307,73.324,343.346,73.274z
			 M340.232,72.168c0-0.138-0.039-0.285-0.118-0.443c-0.078-0.157-0.177-0.241-0.295-0.251c-0.423-0.039-0.797,0.03-1.121,0.207
			c-0.324,0.177-0.602,0.409-0.833,0.694c-0.231,0.285-0.413,0.6-0.546,0.944c-0.133,0.345-0.222,0.667-0.266,0.966
			c-0.045,0.3-0.045,0.551,0,0.752c0.044,0.202,0.13,0.303,0.258,0.303c0.196-0.059,0.426-0.199,0.686-0.42
			c0.26-0.222,0.509-0.46,0.744-0.716c0.236-0.255,0.44-0.489,0.612-0.701c0.172-0.211,0.268-0.332,0.288-0.361
			c0.167-0.226,0.31-0.42,0.428-0.583C340.188,72.396,340.242,72.266,340.232,72.168z M338.433,81.344
			c0.049-0.02,0.128-0.116,0.236-0.288c0.108-0.172,0.229-0.389,0.361-0.649c0.133-0.261,0.273-0.548,0.421-0.863
			c0.147-0.315,0.28-0.63,0.397-0.944c0.118-0.315,0.215-0.615,0.288-0.9c0.074-0.285,0.11-0.526,0.11-0.723
			c0-0.029-0.022-0.059-0.066-0.088c-0.044-0.029-0.066-0.059-0.066-0.088c-0.098,0-0.23,0.062-0.397,0.185
			c-0.168,0.123-0.35,0.285-0.546,0.487c-0.197,0.202-0.397,0.43-0.598,0.686c-0.202,0.255-0.387,0.521-0.554,0.796
			c-0.167,0.275-0.308,0.546-0.42,0.812c-0.113,0.266-0.175,0.501-0.185,0.708c-0.06,0.108-0.066,0.229-0.022,0.361
			c0.044,0.133,0.115,0.253,0.214,0.362c0.099,0.108,0.209,0.189,0.332,0.243c0.123,0.054,0.229,0.052,0.317-0.007L338.433,81.344z"
			/>
	</g>
</g>
</svg>
