<svg width="81" height="81" viewBox="0 0 81 81" fill="none" xmlns="http://www.w3.org/2000/svg">
<g clip-path="url(#clip0_291_44)">
<path d="M79.8135 76.0852H77.9119L60.1691 49.4712C59.4621 48.4108 58.2873 47.7903 57.0038 47.8138C56.1936 47.8286 55.431 48.1024 54.81 48.5782L43.9619 24.9102C43.5071 23.9177 42.6802 23.2077 41.6865 22.9036V13.7816H51.9135C52.351 13.7816 52.7533 13.5406 52.9597 13.155C53.1661 12.7693 53.1439 12.3009 52.901 11.9369L50.803 8.79016L52.901 5.64402C53.1439 5.28003 53.1661 4.8116 52.9597 4.42598C52.7533 4.04036 52.351 3.79935 51.9135 3.79935H41.6865V3.71777C41.6865 3.06271 41.1551 2.53125 40.5 2.53125C39.8449 2.53125 39.3135 3.06271 39.3135 3.71777V22.9561C38.3575 23.2948 37.5763 24.0141 37.1561 24.9949L33.075 34.5167L31.0461 32.9186C30.4628 32.4594 29.7131 32.2895 28.9889 32.4527C28.2646 32.6152 27.6602 33.0898 27.3296 33.7541L13.4293 61.6992L11.2565 63.0532C9.94022 63.8733 8.86061 65.032 8.13448 66.4027L3.00833 76.0852H1.18652C0.531464 76.0852 0 76.6167 0 77.2717C0 77.9274 0.531464 78.4582 1.18652 78.4582H79.8135C80.4685 78.4582 81 77.9274 81 77.2717C81 76.6167 80.4685 76.0852 79.8135 76.0852ZM49.6968 6.17239L48.3898 8.13201C48.124 8.53061 48.124 9.04971 48.3898 9.44831L49.6968 11.4085H41.6865V6.17239H49.6968ZM29.4542 34.8109C29.4598 34.8004 29.4715 34.7756 29.5092 34.7676C29.5475 34.759 29.5692 34.7756 29.5778 34.7831L32.1072 36.7748L31.7426 37.6258C31.4843 38.2283 31.7636 38.9254 32.3661 39.1837C32.9687 39.442 33.6657 39.1627 33.9241 38.5608L39.337 25.9292C39.6583 25.1809 40.3554 25.1141 40.5612 25.1117C40.7651 25.1086 41.4653 25.158 41.8046 25.899L49.7642 43.2648L48.4794 44.5502C48.2235 44.8055 47.8861 44.9352 47.524 44.9161C47.1631 44.8963 46.8399 44.7313 46.6137 44.4501C45.8029 43.4441 44.5552 42.9528 43.2772 43.1345C41.998 43.3168 40.9375 44.1368 40.4394 45.3283L38.4687 50.046C38.2129 50.659 37.6746 50.7844 37.4546 50.8098C37.2346 50.8351 36.6815 50.8363 36.2928 50.2981L31.6468 43.8729L31.9978 43.0554C32.2561 42.4528 31.9768 41.7557 31.3743 41.4974C30.7724 41.2391 30.0747 41.5184 29.8163 42.1203L25.2896 52.6829C24.6673 54.1351 23.6291 55.3451 22.2881 56.1806L17.2738 59.3045L29.4542 34.8109ZM10.2319 67.5132C10.7621 66.5121 11.5501 65.666 12.5116 65.0672L23.5426 58.1946C25.2977 57.1008 26.656 55.5182 27.4711 53.6173L30.5573 46.4159L34.3696 51.6885C35.0642 52.6483 36.1346 53.1921 37.2939 53.1921C37.4373 53.1921 37.5819 53.1834 37.7271 53.1668C39.0496 53.0141 40.1459 52.1891 40.6588 50.9606L42.6296 46.2429C42.878 45.649 43.3989 45.5143 43.6109 45.484C43.8235 45.4537 44.3618 45.4377 44.7659 45.9389C45.4111 46.7398 46.3702 47.2304 47.3973 47.2854C48.425 47.3404 49.4298 46.9548 50.1572 46.2274L50.819 45.5656L53.1902 50.7399L52.5327 51.8084C52.1897 52.3665 52.3634 53.0975 52.9214 53.4405C53.4801 53.7841 54.2105 53.6098 54.5541 53.0518L55.9217 50.8283C56.1677 50.4291 56.578 50.1949 57.0471 50.1862C57.5118 50.1782 57.9345 50.397 58.1946 50.7875L75.06 76.0852H23.4165L27.5446 72.5466C28.9697 71.3255 30.5882 70.3862 32.3556 69.7552L44.3012 65.4887C46.4493 64.7211 48.2915 63.2287 49.4873 61.2858L51.8764 57.403C52.22 56.845 52.0457 56.1145 51.4877 55.7709C50.9297 55.4273 50.1992 55.6016 49.8556 56.1596L47.4659 60.0424C46.5525 61.5268 45.1447 62.6676 43.5028 63.2541L31.5572 67.5206C29.516 68.2492 27.646 69.3344 26.0003 70.7452L19.7704 76.0852H5.69346L10.2319 67.5132Z" fill="#FD5B2F"/>
</g>
<defs>
<clipPath id="clip0_291_44">
<rect width="81" height="81" fill="white"/>
</clipPath>
</defs>
</svg>
