<svg width="53" height="53" viewBox="0 0 53 53" fill="none" xmlns="http://www.w3.org/2000/svg">
<path d="M46.2369 31.2487L45.9871 31.3834C44.9004 30.0788 43.0284 29.5751 41.6019 30.2982L41.5864 30.3064L40.9712 30.6376C39.4245 29.3371 37.2294 29.1424 35.478 30.1507L32.0911 31.9923H27.5826C26.6088 31.9909 25.6478 31.7707 24.7705 31.3479L24.1494 31.0476C20.5364 29.2893 16.2422 29.7089 13.0373 32.1329C13.0219 32.1442 13.0073 32.1561 12.9928 32.1693L11.4934 33.5039C10.9355 33.9994 10.2771 34.3689 9.56314 34.586L8.71813 31.8148C8.62849 31.5204 8.35729 31.3197 8.04968 31.3197H0.798657C0.59844 31.3193 0.407779 31.4053 0.275363 31.5549C0.142491 31.7047 0.0806061 31.9045 0.104724 32.1028L2.52188 51.9216C2.56466 52.2724 2.86225 52.5359 3.21582 52.5359H14.0917C14.3133 52.5359 14.5217 52.4308 14.6536 52.2529C14.7852 52.075 14.8247 51.8452 14.7601 51.6331L13.3363 46.9616L17.7702 44.1591C18.3604 43.8333 19.0525 43.7437 19.7059 43.9088C19.7205 43.9125 19.735 43.9156 19.7496 43.9184L28.8012 45.5852C31.2666 46.0261 33.808 45.6675 36.0545 44.5613C36.0841 44.5463 36.1128 44.5299 36.1401 44.5108L51.796 33.7614C52.1009 33.5522 52.1901 33.1412 51.999 32.8245C50.8095 30.8424 48.27 30.148 46.2369 31.2487ZM42.2412 31.5418C43.0453 31.1391 44.0554 31.4612 44.7111 32.0719L38.8029 35.2594L38.4789 35.4301C38.2933 34.9127 38.0266 34.4281 37.6885 33.9949L42.2412 31.5418ZM36.1542 31.3743L36.1705 31.3652C37.2331 30.7509 38.5436 30.755 39.602 31.3757L36.6333 32.9751C36.0754 32.5702 35.442 32.2817 34.7704 32.1261L36.1542 31.3743ZM3.83422 51.138L1.5877 32.7176H7.53139L13.1475 51.138H3.83422ZM35.3898 43.33C33.4235 44.2865 31.2048 44.595 29.052 44.21L20.0231 42.5473C19.0243 42.3011 17.9691 42.444 17.0718 42.9478C17.0613 42.9537 17.0504 42.96 17.0399 42.9669L12.9127 45.5756L9.97044 35.9247C10.8778 35.648 11.7141 35.1779 12.4226 34.5477L13.9001 33.2322C16.6854 31.139 20.4076 30.7814 23.5406 32.3053L24.1612 32.6056C25.2288 33.1203 26.3978 33.3878 27.5822 33.3897H33.6042C35.4066 33.3919 36.9574 34.6656 37.3105 36.4334L32.9762 36.2373C31.3882 36.1658 29.7969 36.2391 28.222 36.4566C27.8398 36.5099 27.5727 36.8625 27.6255 37.2452C27.6787 37.6274 28.0313 37.8945 28.414 37.8413C29.9043 37.6356 31.41 37.566 32.913 37.6338L38.0495 37.8668C38.0599 37.8668 38.0704 37.8672 38.0809 37.8672C38.4672 37.8672 38.7798 37.5546 38.7798 37.1683C38.7798 37.0636 38.7762 36.9603 38.7698 36.857L39.4605 36.493L46.9013 32.4791C48.0576 31.853 49.49 32.0755 50.4019 33.0229L35.3898 43.33Z" fill="#FD5B2F"/>
<path d="M5.93555 48.3693C5.93555 49.5561 6.89795 50.518 8.08514 50.518C9.27188 50.5175 10.2338 49.5552 10.2334 48.368C10.2334 47.1812 9.27097 46.2193 8.08378 46.2197C6.8975 46.2211 5.93645 47.183 5.93555 48.3693ZM8.08423 47.618C8.49923 47.618 8.8355 47.9543 8.8355 48.3693C8.83596 48.7839 8.49923 49.1206 8.08469 49.1206C7.66969 49.1206 7.33342 48.7843 7.33342 48.3693C7.33342 47.9543 7.66969 47.6185 8.08423 47.618Z" fill="#FD5B2F"/>
<path d="M26.0999 26.908C32.9195 26.908 38.4478 21.3797 38.4478 14.5601C38.4478 7.74041 32.9195 2.21216 26.0999 2.21216C19.2802 2.21216 13.752 7.74041 13.752 14.5601C13.7597 21.3765 19.2834 26.9003 26.0999 26.908ZM26.0999 3.61003C32.1473 3.61003 37.0499 8.51261 37.0499 14.5601C37.0499 20.6075 32.1473 25.5101 26.0999 25.5101C20.0524 25.5101 15.1498 20.6075 15.1498 14.5601C15.1567 8.51535 20.0551 3.61686 26.0999 3.61003Z" fill="#FD5B2F"/>
<path d="M24.5505 14.5159H24.5246L22.4528 14.4936H22.445C22.1602 14.4936 21.9036 14.6666 21.7971 14.9305C21.6901 15.1949 21.7548 15.4975 21.9595 15.6954L27.0851 20.6439C27.3631 20.9124 27.8054 20.9047 28.0734 20.6266C28.3414 20.3491 28.3337 19.9068 28.0561 19.6383L24.1947 15.9106L24.5091 15.9143C26.3406 15.9334 27.9264 14.6447 28.2823 12.8478L29.7111 12.8632H29.7184C30.1047 12.8651 30.4191 12.5538 30.421 12.1679C30.4232 11.7816 30.112 11.4672 29.7261 11.4654L28.2982 11.4499C28.1894 10.821 27.9228 10.2299 27.5228 9.73258L29.7443 9.75579H29.752C30.1379 9.75807 30.4523 9.44682 30.4546 9.0605C30.4564 8.67462 30.1452 8.36019 29.7593 8.3579L24.5906 8.3024L22.5188 8.28056C22.1329 8.27646 21.8166 8.58589 21.8125 8.97176C21.8084 9.35809 22.1179 9.67434 22.5037 9.67843L24.5755 9.70027C25.6362 9.71256 26.564 10.4161 26.8625 11.434L22.4856 11.3876H22.4778C22.0919 11.3853 21.777 11.6965 21.7752 12.0829C21.773 12.4687 22.0847 12.7832 22.4705 12.7854L26.8457 12.8318C26.529 13.8329 25.6007 14.5141 24.5505 14.5159Z" fill="#FD5B2F"/>
<path d="M43.2653 7.90015C42.879 7.90015 42.5664 8.21321 42.5664 8.59908V9.76398C42.5664 10.1503 42.879 10.4629 43.2653 10.4629C43.6512 10.4629 43.9643 10.1503 43.9643 9.76398V8.59908C43.9643 8.21321 43.6512 7.90015 43.2653 7.90015Z" fill="#FD5B2F"/>
<path d="M43.2653 11.395C42.879 11.395 42.5664 11.7081 42.5664 12.094V13.2589C42.5664 13.6452 42.879 13.9578 43.2653 13.9578C43.6512 13.9578 43.9643 13.6452 43.9643 13.2589V12.094C43.9643 11.7081 43.6512 11.395 43.2653 11.395Z" fill="#FD5B2F"/>
<path d="M40.9333 10.23C40.547 10.23 40.2344 10.543 40.2344 10.9289C40.2344 11.3152 40.547 11.6279 40.9333 11.6279H42.0982C42.4841 11.6279 42.7971 11.3152 42.7971 10.9289C42.7971 10.543 42.4841 10.23 42.0982 10.23H40.9333Z" fill="#FD5B2F"/>
<path d="M45.5943 11.6279C45.9802 11.6279 46.2932 11.3152 46.2932 10.9289C46.2932 10.543 45.9802 10.23 45.5943 10.23H44.4294C44.0431 10.23 43.7305 10.543 43.7305 10.9289C43.7305 11.3152 44.0431 11.6279 44.4294 11.6279H45.5943Z" fill="#FD5B2F"/>
<path d="M12.6111 0.0175781C12.2252 0.0175781 11.9121 0.330644 11.9121 0.716517V1.88141C11.9121 2.26729 12.2252 2.58035 12.6111 2.58035C12.9974 2.58035 13.31 2.26729 13.31 1.88141V0.716517C13.31 0.330644 12.9974 0.0175781 12.6111 0.0175781Z" fill="#FD5B2F"/>
<path d="M12.6111 3.51221C12.2252 3.51221 11.9121 3.82527 11.9121 4.21115V5.37604C11.9121 5.76191 12.2252 6.07498 12.6111 6.07498C12.9974 6.07498 13.31 5.76191 13.31 5.37604V4.21115C13.31 3.82527 12.9974 3.51221 12.6111 3.51221Z" fill="#FD5B2F"/>
<path d="M10.281 2.34741C9.8951 2.34741 9.58203 2.66048 9.58203 3.04635C9.58203 3.43222 9.8951 3.74529 10.281 3.74529H11.4459C11.8322 3.74529 12.1448 3.43222 12.1448 3.04635C12.1448 2.66048 11.8322 2.34741 11.4459 2.34741H10.281Z" fill="#FD5B2F"/>
<path d="M14.942 2.34741H13.7771C13.3912 2.34741 13.0781 2.66048 13.0781 3.04635C13.0781 3.43222 13.3912 3.74529 13.7771 3.74529H14.942C15.3283 3.74529 15.6409 3.43222 15.6409 3.04635C15.6409 2.66048 15.3283 2.34741 14.942 2.34741Z" fill="#FD5B2F"/>
</svg>
