<svg width="49" height="55" viewBox="0 0 49 55" fill="none" xmlns="http://www.w3.org/2000/svg">
<path d="M47.6724 35.5442C47.2053 34.7643 45.2917 32.4468 40.2782 35.3665L31.5715 40.4378C31.2126 40.6467 30.8486 40.8043 30.4723 40.9116C30.5944 40.6804 30.6933 40.4274 30.7664 40.1543C31.2246 38.444 30.2096 36.659 28.4558 36.0904C28.4187 36.0783 28.3807 36.0688 28.3422 36.0618C25.8478 35.6119 23.3821 34.7205 21.401 34.0043C20.7108 33.7548 20.0588 33.5191 19.5036 33.3391C17.239 32.6044 15.2004 33.5087 13.505 34.4904L7.11063 38.1926L6.54732 37.1972C6.26513 36.6987 5.80445 36.3395 5.25004 36.1858C4.69596 36.0322 4.11583 36.1031 3.6173 36.3852L1.17452 37.7677C0.142837 38.3516 -0.221383 39.6659 0.362437 40.6976L7.54451 53.3879C7.8267 53.8865 8.28737 54.2457 8.84178 54.3993C9.0335 54.4525 9.22825 54.4787 9.42158 54.4787C9.78743 54.4787 10.1484 54.3847 10.4745 54.2001L12.9175 52.8175C13.9492 52.2335 14.3135 50.9192 13.7296 49.8875L13.0357 48.6614L14.3962 47.876L25.5096 50.8538C26.1334 51.021 26.7537 51.1041 27.3641 51.104C28.5986 51.104 29.7913 50.7641 30.8814 50.0929L46.6822 40.3635C48.1643 39.4508 48.6364 37.1537 47.6724 35.5442ZM12.0624 51.3066L9.61937 52.6893C9.49124 52.7619 9.36766 52.7437 9.30528 52.7265C9.24301 52.7093 9.12767 52.6611 9.0552 52.533L1.87313 39.8427C1.76257 39.6474 1.83428 39.389 2.02947 39.2785L4.47235 37.8959C4.54363 37.8556 4.61361 37.8433 4.67231 37.8433C4.71907 37.8433 4.75878 37.8511 4.78644 37.8588C4.84872 37.8761 4.96395 37.9242 5.03653 38.0523L12.2187 50.7425C12.3293 50.9379 12.2575 51.1962 12.0624 51.3066ZM26.9068 42.5449L27.9897 42.721C29.6317 42.9835 31.089 42.7274 32.445 41.9378L41.1518 36.8665C43.6071 35.4365 45.488 35.2755 46.1831 36.436C46.6591 37.2308 46.4515 38.4667 45.7717 38.8852L29.9711 48.6147C28.7413 49.3717 27.3915 49.5611 25.9588 49.177L14.498 46.1061C14.2757 46.0468 14.0388 46.0778 13.8394 46.1928L12.1805 47.1505L7.96569 39.7033L14.3747 35.9925C15.8077 35.1628 17.356 34.467 18.968 34.9901C19.4958 35.1613 20.1051 35.3816 20.8107 35.6366C22.8368 36.3692 25.3544 37.2794 27.9705 37.7585C28.8283 38.0617 29.3079 38.8896 29.0894 39.7048C28.8017 40.7786 27.9009 40.9116 27.1827 40.8297C25.9062 40.5668 24.6911 40.2201 23.4056 39.853C22.7938 39.6783 22.1611 39.4976 21.5105 39.3232C21.0476 39.1994 20.5716 39.474 20.4474 39.937C20.3233 40.4 20.5981 40.8759 21.0612 41C21.6981 41.1707 22.3237 41.3494 22.9288 41.5221C24.2597 41.9022 25.5168 42.2612 26.8721 42.5383M5.13428 40.2639C5.20393 40.7405 4.87411 41.1834 4.39738 41.253C3.92076 41.3227 3.47788 40.9929 3.40823 40.5161C3.33858 40.0395 3.6684 39.5966 4.14513 39.527C4.62175 39.4573 5.06463 39.7873 5.13428 40.2639ZM17.9365 14.2227C18.3381 15.0058 18.5397 15.3988 18.5973 15.7255C18.6549 16.0522 18.5999 16.4904 18.4905 17.3636C18.4629 17.5833 18.4322 17.828 18.3994 18.1029C18.2186 19.615 19.0378 21.0338 20.4377 21.6335C20.6922 21.7425 20.9194 21.8382 21.1234 21.9242C21.1605 21.9398 21.1958 21.9548 21.2313 21.9698L18.0053 28.8987C17.8688 29.1919 17.9066 29.5365 18.1033 29.7932C18.3 30.0498 18.6229 30.176 18.9415 30.1201L22.4875 29.5006L24.296 32.6129C24.4518 32.881 24.7382 33.0447 25.0463 33.0447C25.0595 33.0447 25.0727 33.0444 25.0858 33.0438C25.4088 33.0292 25.6969 32.8362 25.8334 32.5431L29.0358 25.6646L28.9726 25.6352C29.5209 25.4693 29.8444 25.3859 30.1097 25.3859C30.4415 25.3859 30.8635 25.5161 31.7044 25.7756C31.7926 25.8028 31.886 25.8316 31.983 25.8614L34.2942 31.2272C34.4221 31.5241 34.7044 31.7254 35.0268 31.7494C35.0484 31.751 35.07 31.7517 35.0915 31.7517C35.3901 31.7517 35.6698 31.5978 35.8288 31.3414L37.7268 28.2829L41.2532 29.0052C41.57 29.0701 41.8965 28.9534 42.1005 28.7027C42.3046 28.4519 42.3523 28.1085 42.2245 27.8115L39.5976 21.7123C39.6574 21.6869 39.7188 21.6607 39.7819 21.6337C41.1818 21.0341 42.0009 19.6152 41.8202 18.1031C41.7873 17.8282 41.7567 17.5835 41.7291 17.3639C41.6196 16.4908 41.5647 16.0526 41.6223 15.7258C41.6799 15.3991 41.8815 15.006 42.2829 14.223C42.3839 14.026 42.4964 13.8066 42.6214 13.5595C43.3085 12.2004 43.0239 10.587 41.9136 9.54488C41.7117 9.35534 41.531 9.18772 41.3687 9.03713C40.7236 8.43855 40.3997 8.13824 40.2339 7.85083C40.068 7.56354 39.9697 7.13292 39.7741 6.27504C39.7248 6.05914 39.67 5.81871 39.6067 5.5491C39.2595 4.06629 38.0044 3.01324 36.4838 2.92872C36.2074 2.91331 35.9612 2.90116 35.7401 2.89009C34.8612 2.84637 34.42 2.82435 34.1082 2.71086C33.7964 2.59737 33.4443 2.33069 32.743 1.79928C32.5665 1.66561 32.37 1.51676 32.1483 1.35076C30.9292 0.438094 29.2909 0.438094 28.0717 1.35076C27.8501 1.51676 27.6536 1.66561 27.4771 1.79928C26.7757 2.33069 26.4237 2.59737 26.1119 2.71086C25.8001 2.82435 25.359 2.84637 24.48 2.89009C24.2589 2.90116 24.0126 2.91331 23.7363 2.92872C22.2157 3.01334 20.9606 4.0664 20.6133 5.5491C20.5502 5.81871 20.4954 6.05903 20.446 6.27494C20.2503 7.13292 20.1521 7.56343 19.9861 7.85083C19.8202 8.13813 19.4964 8.43855 18.8514 9.03702C18.689 9.18761 18.5083 9.35534 18.3064 9.54477C17.1959 10.587 16.9115 12.2003 17.5985 13.5594C17.723 13.8064 17.8355 14.0257 17.9365 14.2227ZM24.9615 30.3028L23.6845 28.1052C23.5019 27.791 23.1431 27.6239 22.7846 27.6863L20.2809 28.1238L22.7558 22.808C22.9606 23.0362 23.1892 23.3899 23.5665 23.9741C23.6866 24.1602 23.8203 24.3673 23.9719 24.5992C24.6158 25.5838 25.6809 26.1421 26.8044 26.1421C26.8362 26.1421 26.8683 26.1395 26.9002 26.1386L24.9615 30.3028ZM37.4824 26.4607C37.1263 26.3878 36.7624 26.5445 36.5708 26.8534L35.2307 29.013L33.9732 26.0935C34.8834 25.9407 35.7116 25.4186 36.2474 24.5992C36.399 24.3674 36.5326 24.1604 36.6527 23.9744C37.1301 23.2351 37.3697 22.864 37.6239 22.6507C37.7231 22.5675 37.8461 22.4905 38.0069 22.4074L39.9723 26.9707L37.4824 26.4607ZM19.494 10.8104C19.6932 10.6234 19.8714 10.458 20.0317 10.3095C21.5723 8.88024 21.6707 8.70969 22.1382 6.66086C22.1868 6.44788 22.2409 6.21082 22.3032 5.94479C22.476 5.20745 23.0763 4.70382 23.8324 4.66172C24.1051 4.64653 24.3479 4.63449 24.5661 4.62353C26.6651 4.51905 26.8501 4.45167 28.5251 3.1826C28.6992 3.05067 28.8932 2.90377 29.1119 2.74005C29.415 2.51307 29.7624 2.39969 30.1099 2.39969C30.4573 2.39969 30.8047 2.51307 31.108 2.74005C31.3267 2.90366 31.5206 3.05056 31.6946 3.18249C33.3697 4.45156 33.5547 4.51883 35.6536 4.62342C35.8718 4.63427 36.1146 4.64631 36.3874 4.66161C37.1436 4.70371 37.7438 5.20734 37.9165 5.94468C37.9788 6.21071 38.0329 6.44788 38.0815 6.66086C38.5489 8.70958 38.6473 8.88013 40.1881 10.3093C40.3482 10.4579 40.5265 10.6233 40.7257 10.8103C41.2779 11.3286 41.414 12.1002 41.0722 12.7761C40.9489 13.0199 40.838 13.2363 40.7384 13.4307C39.7795 15.3007 39.7453 15.4946 40.0068 17.5797C40.0339 17.7964 40.0642 18.0377 40.0966 18.3089C40.1866 19.0609 39.7948 19.7394 39.0986 20.0376C38.8475 20.1451 38.6233 20.2396 38.422 20.3245C36.4854 21.1406 36.3346 21.2671 35.1946 23.0325C35.0761 23.216 34.9441 23.4203 34.7947 23.6489C34.3802 24.2826 33.6441 24.5506 32.9189 24.3316C32.6574 24.2525 32.425 24.1809 32.2164 24.1165C30.2084 23.497 30.0115 23.4969 28.0032 24.1165C27.7945 24.1809 27.5621 24.2525 27.3006 24.3316C26.5759 24.5507 25.8393 24.2827 25.4249 23.6489C25.2754 23.4203 25.1433 23.2159 25.0248 23.0324C23.8849 21.2671 23.7341 21.1404 21.7974 20.3245C21.5962 20.2396 21.3721 20.1452 21.121 20.0376C20.4248 19.7394 20.033 19.0609 20.1229 18.3088C20.1554 18.0376 20.1856 17.7962 20.2129 17.5795C20.4743 15.4943 20.4402 15.3006 19.4812 13.4304C19.3816 13.2361 19.2706 13.0198 19.1473 12.776C18.8057 12.1003 18.9417 11.3287 19.494 10.8104ZM30.1096 21.3622C34.498 21.3622 38.0683 17.792 38.0683 13.4035C38.0683 9.0151 34.498 5.44495 30.1096 5.44495C25.7212 5.44495 22.151 9.01521 22.151 13.4035C22.151 17.792 25.7213 21.3622 30.1096 21.3622ZM30.1096 7.18077C33.5408 7.18077 36.3324 9.97225 36.3324 13.4034C36.3324 16.8346 33.5409 19.6262 30.1096 19.6262C26.6783 19.6262 23.887 16.8347 23.887 13.4034C23.887 9.97214 26.6784 7.18077 30.1096 7.18077ZM27.9001 16.4792L25.6664 14.2453C25.3273 13.9064 25.3274 13.3569 25.6664 13.0179C26.0054 12.6789 26.5551 12.679 26.8938 13.0179L28.5428 14.6671L33.3559 10.299C33.7109 9.9768 34.2598 10.0035 34.582 10.3585C34.9041 10.7135 34.8775 11.2625 34.5225 11.5846L29.0971 16.5082C28.9312 16.6587 28.7224 16.7335 28.514 16.7335C28.2913 16.7334 28.0691 16.6482 27.9001 16.4792Z" fill="#FD5B2F"/>
</svg>
