<svg width="64" height="64" viewBox="0 0 64 64" fill="none" xmlns="http://www.w3.org/2000/svg">
<g clip-path="url(#clip0_291_46)">
<path d="M54.6678 23.3617L53.4126 24.6179C53.2435 24.7855 53.0757 24.9319 52.9087 25.0667C54.3538 28.3036 55.1655 31.8842 55.1655 35.6524C55.1655 50.0169 43.4784 61.7031 29.1133 61.7031C14.7472 61.7031 3.06035 50.0169 3.06035 35.6524C3.06035 21.2893 14.7474 9.60408 29.1133 9.60408C32.1055 9.60408 34.978 10.1178 37.657 11.0498V11.049C37.9123 10.6435 38.2103 10.2396 38.6182 9.8287L39.2629 9.18307C36.1105 7.97357 32.6908 7.30432 29.114 7.30432C13.4577 7.30532 0.761719 19.9975 0.761719 35.6515C0.761719 51.3079 13.4577 64.0001 29.1134 64.0001C44.7713 64.0001 57.4643 51.3078 57.4643 35.6515C57.4642 31.2492 56.4606 27.0795 54.6678 23.3617Z" fill="#FD5B2F"/>
<path d="M46.4905 26.8234H43.9136C45.2245 29.2204 45.9707 31.9673 45.9707 34.8856C45.9707 44.1801 38.4086 51.7415 29.1139 51.7415C19.8187 51.7415 12.2565 44.18 12.2565 34.8856C12.2564 25.5923 19.8186 18.031 29.1139 18.031C31.7267 18.031 34.2037 18.6286 36.4131 19.6949V17.1768C34.1631 16.2485 31.6984 15.7325 29.1139 15.7325C18.5337 15.7325 9.95703 24.3084 9.95703 34.8857C9.95703 45.463 18.5335 54.0404 29.1139 54.0404C39.692 54.0404 48.2701 45.463 48.2701 34.8857C48.2702 32.0046 47.6292 29.2746 46.4905 26.8234Z" fill="#FD5B2F"/>
<path d="M63.0598 9.47427C62.8806 9.12665 62.591 8.88365 62.3045 8.73715C62.0156 8.58927 61.7206 8.5199 61.4189 8.48877L55.9472 7.94302C55.8359 7.93465 55.6606 7.85765 55.5235 7.71752C55.3832 7.58027 55.3062 7.40502 55.2986 7.29377L54.7506 1.82001C54.7079 1.41988 54.602 1.02201 54.3231 0.651633C54.1844 0.468633 53.9946 0.298007 53.7651 0.179132C53.5364 0.060257 53.2727 -0.000743169 53.0244 6.83287e-06C52.705 0.000881835 52.4215 0.090632 52.183 0.213382C51.9444 0.338382 51.7417 0.498383 51.5587 0.680508L40.5151 11.7242C40.0662 12.1792 39.7468 12.7264 39.5013 13.3117C39.2621 13.8993 39.0997 14.5129 39.0951 15.1523V21.4592C39.0966 21.8913 39.208 22.2938 39.3901 22.6551L34.6381 27.5488C33.0984 26.3888 31.1909 25.6914 29.1147 25.6914C24.0356 25.6914 19.9199 29.8086 19.9199 34.8853C19.9199 39.9621 24.0356 44.0792 29.1147 44.0792C34.1914 44.0792 38.3095 39.9621 38.3095 34.8853C38.3095 32.7132 37.5512 30.7201 36.2906 29.1463L41.2126 24.0787C41.3956 24.1176 41.5831 24.1404 41.7781 24.1412H48.0887C48.7281 24.1367 49.3417 23.9751 49.9285 23.7357C50.5146 23.4894 51.0617 23.1702 51.5175 22.7213L62.5589 11.6807C62.741 11.4977 62.9003 11.295 63.0254 11.0558C63.1481 10.8172 63.2388 10.5338 63.2388 10.2152C63.2411 9.9674 63.1801 9.70302 63.0598 9.47427ZM29.1147 41.7816C25.3116 41.7816 22.2178 38.6887 22.2178 34.8862C22.2178 31.0846 25.3114 27.9908 29.1147 27.9908C30.5652 27.9908 31.9111 28.4436 33.0229 29.2117L28.2899 34.0864C27.8478 34.5415 27.8586 35.2693 28.3137 35.7113C28.7687 36.1535 29.4973 36.1427 29.9394 35.6876L34.6694 30.8173C35.5084 31.9592 36.0107 33.3631 36.0107 34.8859C36.0107 38.6887 32.9171 41.7816 29.1147 41.7816ZM41.3953 20.5928V15.1533C41.3908 14.9505 41.4738 14.5534 41.6271 14.1922C41.7727 13.8294 41.9952 13.4902 42.1423 13.3499L52.555 2.93814L53.0131 7.52402C53.0451 7.83265 53.1335 8.11852 53.2509 8.38602L41.3953 20.5928ZM49.8926 21.0973C49.7509 21.2437 49.4131 21.4654 49.0504 21.6125C48.6891 21.7658 48.2921 21.8488 48.0892 21.8443H43.3836L54.8839 10.0019C55.1445 10.1133 55.4196 10.1978 55.7191 10.2298L60.3027 10.687L49.8926 21.0973Z" fill="#FD5B2F"/>
</g>
<defs>
<clipPath id="clip0_291_46">
<rect width="64" height="64" fill="white"/>
</clipPath>
</defs>
</svg>
